<svg width="41" height="40" viewBox="0 0 41 40" fill="none" xmlns="http://www.w3.org/2000/svg">
<g id="image-03">
<path id="Icon" d="M7.62007 34.5465L18.6143 23.5523C19.2743 22.8923 19.6043 22.5622 19.9849 22.4386C20.3196 22.3298 20.6802 22.3298 21.0149 22.4386C21.3955 22.5622 21.7255 22.8923 22.3855 23.5523L33.3065 34.4732M23.8333 25L28.6143 20.219C29.2743 19.5589 29.6043 19.2289 29.9849 19.1053C30.3196 18.9965 30.6802 18.9965 31.0149 19.1053C31.3955 19.2289 31.7255 19.5589 32.3855 20.2189L37.1666 25M17.1666 15C17.1666 16.8409 15.6742 18.3333 13.8333 18.3333C11.9923 18.3333 10.4999 16.8409 10.4999 15C10.4999 13.1591 11.9923 11.6667 13.8333 11.6667C15.6742 11.6667 17.1666 13.1591 17.1666 15ZM11.8333 35H29.1666C31.9668 35 33.367 35 34.4365 34.455C35.3773 33.9757 36.1423 33.2108 36.6216 32.27C37.1666 31.2004 37.1666 29.8003 37.1666 27V13C37.1666 10.1997 37.1666 8.79961 36.6216 7.73005C36.1423 6.78924 35.3773 6.02433 34.4365 5.54497C33.367 5 31.9668 5 29.1666 5H11.8333C9.03299 5 7.63286 5 6.5633 5.54497C5.62249 6.02433 4.85759 6.78924 4.37822 7.73005C3.83325 8.79961 3.83325 10.1997 3.83325 13V27C3.83325 29.8003 3.83325 31.2004 4.37822 32.27C4.85759 33.2108 5.62249 33.9757 6.5633 34.455C7.63286 35 9.03299 35 11.8333 35Z" stroke="black" stroke-width="2" stroke-linecap="round" stroke-linejoin="round"/>
</g>
</svg>
