<?xml version="1.0" encoding="utf-8"?>
<svg viewBox="0 0 128 128" fill="none" xmlns="http://www.w3.org/2000/svg">
  <g id="shopping-cart-03" transform="matrix(1, 0, 0, 1, -101.9331283569336, -99.79331970214844)">
    <g id="Icon">
      <path d="M 125.668 173.667 L 195.725 173.667 C 201.127 173.667 203.828 173.667 205.978 172.66 C 207.872 171.772 209.463 170.348 210.554 168.563 C 211.792 166.538 212.091 163.853 212.687 158.485 L 215.807 130.404 C 215.989 128.765 216.081 127.945 215.817 127.31 C 215.585 126.753 215.171 126.29 214.643 125.999 C 214.041 125.667 213.217 125.667 211.567 125.667 L 123.001 125.667" stroke="#98A2B3" stroke-width="2.5" stroke-linecap="round" stroke-linejoin="round"/>
      <path d="M 189.667 213.667 C 189.667 215.139 188.473 216.333 187 216.333 C 185.528 216.333 184.334 215.139 184.334 213.667 C 184.334 212.194 185.528 211 187 211 C 188.473 211 189.667 212.194 189.667 213.667 Z" stroke="#98A2B3" stroke-width="2.5" stroke-linecap="round" stroke-linejoin="round"/>
      <path d="M 141.667 213.667 C 141.667 215.139 140.473 216.333 139 216.333 C 137.528 216.333 136.334 215.139 136.334 213.667 C 136.334 212.194 137.528 211 139 211 C 140.473 211 141.667 212.194 141.667 213.667 Z" stroke="#98A2B3" stroke-width="2.5" stroke-linecap="round" stroke-linejoin="round"/>
      <path d="M 187 213.667 L 187.054 213.667" stroke="#98A2B3" stroke-width="2.5" stroke-linecap="round" stroke-linejoin="round"/>
      <path d="M 139 213.667 L 139.054 213.667" stroke="#98A2B3" stroke-width="2.5" stroke-linecap="round" stroke-linejoin="round"/>
      <path d="M 109.667 109.667 L 116.325 109.667 C 117.737 109.667 118.442 109.667 118.994 109.935 C 119.48 110.171 119.883 110.55 120.149 111.02 C 120.452 111.554 120.496 112.259 120.584 113.667 L 125.417 190.999 C 125.505 192.408 125.549 193.112 125.851 193.647 C 126.117 194.117 126.52 194.495 127.006 194.732 C 127.558 195 128.264 195 129.675 195 L 200.334 195" stroke="#98A2B3" stroke-width="2.5" stroke-linecap="round" stroke-linejoin="round"/>
    </g>
  </g>
</svg>