<svg width="32" height="32" viewBox="0 0 32 32" fill="none" xmlns="http://www.w3.org/2000/svg">
<path d="M16 10.6666V16M16 21.3333H16.0133M4 10.5886V21.4114C4 21.8682 4 22.0967 4.06731 22.3004C4.12686 22.4806 4.22421 22.6461 4.35284 22.7857C4.49825 22.9434 4.69793 23.0544 5.0973 23.2762L14.964 28.7577C15.3421 28.9678 15.5312 29.0728 15.7314 29.114C15.9086 29.1505 16.0914 29.1505 16.2686 29.114C16.4688 29.0728 16.6579 28.9678 17.036 28.7577L26.9027 23.2762C27.3021 23.0544 27.5018 22.9434 27.6472 22.7857C27.7758 22.6461 27.8731 22.4806 27.9327 22.3004C28 22.0967 28 21.8682 28 21.4114V10.5886C28 10.1317 28 9.90328 27.9327 9.69955C27.8731 9.51931 27.7758 9.35387 27.6472 9.21428C27.5018 9.0565 27.3021 8.94556 26.9027 8.72369L17.036 3.24221C16.6579 3.03214 16.4688 2.9271 16.2686 2.88592C16.0914 2.84947 15.9086 2.84947 15.7314 2.88592C15.5312 2.9271 15.3421 3.03214 14.964 3.24221L5.0973 8.7237C4.69793 8.94556 4.49825 9.0565 4.35284 9.21428C4.22421 9.35387 4.12686 9.51931 4.06731 9.69955C4 9.90328 4 10.1317 4 10.5886Z" stroke="white" stroke-width="2" stroke-linecap="round" stroke-linejoin="round"/>
</svg>
