<svg xmlns="http://www.w3.org/2000/svg" width="20" height="20" viewBox="0 0 20 20" fill="none">
  <g clip-path="url(#clip0_11890_38740)">
    <path d="M8.14852 5.53001C7.68828 5.53001 7.31518 5.15692 7.31518 4.69668C7.31519 4.23644 7.68828 3.86335 8.14852 3.86335L15.2196 3.86336C15.4497 3.86336 15.658 3.95663 15.8088 4.10743C15.8887 4.18733 15.949 4.27942 15.9897 4.3777C16.0304 4.47596 16.0529 4.5837 16.0529 4.69669L16.0529 11.7677C16.0529 12.228 15.6798 12.6011 15.2196 12.6011C14.7593 12.6011 14.3863 12.228 14.3863 11.7678L14.3862 6.70853L5.20223 15.8926C4.87679 16.218 4.34915 16.218 4.02372 15.8926C3.69828 15.5671 3.69828 15.0395 4.02372 14.714L13.2077 5.53002L8.14852 5.53001Z" fill="#D7D3D0"/>
  </g>
  <defs>
    <clipPath id="clip0_11890_38740">
      <rect width="20" height="20" fill="white"/>
    </clipPath>
  </defs>
</svg>