<svg xmlns="http://www.w3.org/2000/svg" width="40" height="40" viewBox="0 0 40 40" fill="none">
                                    <path d="M13.9671 14.7553C15.1271 17.1714 16.7084 19.4358 18.7111 21.4384C20.7137 23.441 22.9781 25.0224 25.3941 26.1823C25.602 26.2821 25.7059 26.332 25.8373 26.3703C26.3046 26.5066 26.8784 26.4087 27.2741 26.1254C27.3854 26.0456 27.4807 25.9504 27.6712 25.7598C28.2539 25.1772 28.5452 24.8858 28.8382 24.6954C29.943 23.977 31.3673 23.977 32.4721 24.6954C32.7651 24.8858 33.0564 25.1772 33.6391 25.7598L33.9639 26.0846C34.8496 26.9704 35.2925 27.4132 35.5331 27.8889C36.0115 28.8348 36.0115 29.9519 35.5331 30.8979C35.2925 31.3735 34.8496 31.8164 33.9639 32.7021L33.7012 32.9648C32.8185 33.8475 32.3771 34.2889 31.7771 34.626C31.1112 35 30.0771 35.2689 29.3134 35.2667C28.6251 35.2646 28.1547 35.1311 27.214 34.8641C22.1583 33.4291 17.3877 30.7217 13.4078 26.7417C9.4278 22.7617 6.72034 17.9911 5.28539 12.9355C5.01838 11.9947 4.88487 11.5244 4.88283 10.8361C4.88055 10.0724 5.14949 9.03826 5.52352 8.37242C5.8606 7.77237 6.30196 7.33102 7.18466 6.44831L7.44739 6.18559C8.33312 5.29985 8.77599 4.85698 9.25163 4.61641C10.1976 4.13796 11.3147 4.13796 12.2606 4.61641C12.7362 4.85698 13.1791 5.29985 14.0648 6.18559L14.3896 6.51037C14.9723 7.09305 15.2636 7.38438 15.4541 7.67735C16.1724 8.78216 16.1724 10.2065 15.4541 11.3113C15.2636 11.6042 14.9723 11.8956 14.3896 12.4783C14.1991 12.6688 14.1038 12.764 14.0241 12.8754C13.7408 13.2711 13.6429 13.8449 13.7791 14.3121C13.8175 14.4436 13.8673 14.5475 13.9671 14.7553Z" stroke="black" stroke-width="3" stroke-linecap="round" stroke-linejoin="round"/>
                                </svg>