<svg width="16" height="17" viewBox="0 0 16 17" fill="none" xmlns="http://www.w3.org/2000/svg">
<g clip-path="url(#clip0_11890_38806)">
<path fill-rule="evenodd" clip-rule="evenodd" d="M6.74804 14.3984C6.57399 14.2643 6.35326 14.2051 6.13476 14.234L5.13188 14.3665C4.8008 14.4102 4.48083 14.2258 4.35343 13.9169L3.95272 12.9481C3.87791 12.7666 3.73422 12.6229 3.55276 12.5481L2.58395 12.1473C2.27508 12.0192 2.09065 11.7 2.13436 11.3688L2.27138 10.3274C2.2973 10.1333 2.24472 9.93704 2.12547 9.78149L1.48626 8.94892C1.28257 8.68448 1.28257 8.3156 1.48626 8.05042L2.12547 7.21785C2.24398 7.06304 2.29656 6.86675 2.27138 6.67268L2.13436 5.63123C2.09065 5.30013 2.27508 4.98088 2.58395 4.85273L3.55276 4.45275C3.73348 4.37719 3.87717 4.23349 3.95272 4.05276L4.35269 3.08389C4.48083 2.77501 4.80006 2.59057 5.13114 2.63428L6.17254 2.77131C6.36659 2.7965 6.56288 2.7439 6.71842 2.62539L7.55094 1.98615C7.81536 1.78245 8.18422 1.78245 8.44938 1.98615L9.28191 2.62539C9.43671 2.7439 9.63299 2.7965 9.82705 2.76983L10.8684 2.6328C11.1995 2.58909 11.5195 2.77353 11.6469 3.08241L12.0476 4.05128C12.1224 4.23275 12.2661 4.37645 12.4476 4.45126L13.4164 4.85199C13.7252 4.98014 13.9097 5.29939 13.866 5.63049L13.7289 6.67194C13.703 6.86601 13.7556 7.0623 13.8749 7.21785L14.5141 8.05042C14.7178 8.31486 14.7178 8.68374 14.5141 8.94892L13.8986 9.75112C13.7645 9.92519 13.7052 10.1459 13.7341 10.3644L13.866 11.3681C13.9097 11.6992 13.7252 12.0192 13.4164 12.1466L12.4476 12.5473C12.2661 12.6221 12.1224 12.7658 12.0476 12.9473L11.6469 13.9162C11.5188 14.2251 11.1995 14.4095 10.8684 14.3658L9.82705 14.2288C9.63299 14.2028 9.43671 14.2554 9.28117 14.3747L8.44864 15.0139C8.18422 15.2176 7.81536 15.2176 7.5502 15.0139L6.74804 14.3984ZM10.8049 7.30478C11.0652 7.04443 11.0652 6.62232 10.8049 6.36197C10.5446 6.10162 10.1224 6.10162 9.86209 6.36197L7.3335 8.89057L6.47157 8.02864C6.21122 7.76829 5.78911 7.76829 5.52876 8.02864C5.26841 8.28899 5.26841 8.7111 5.52876 8.97145L6.86209 10.3048C7.12244 10.5651 7.54455 10.5651 7.8049 10.3048L10.8049 7.30478Z" fill="#9FFF02"/>
<path d="M6.13476 14.234C6.35326 14.2051 6.57399 14.2643 6.74804 14.3984L7.5502 15.0139C7.81536 15.2176 8.18422 15.2176 8.44864 15.0139L9.28117 14.3747C9.43671 14.2554 9.63299 14.2028 9.82705 14.2288L10.8684 14.3658C11.1995 14.4095 11.5188 14.2251 11.6469 13.9162L12.0476 12.9473C12.1224 12.7658 12.2661 12.6221 12.4476 12.5473L13.4164 12.1466C13.7252 12.0192 13.9097 11.6992 13.866 11.3681L13.7341 10.3644C13.7052 10.1459 13.7645 9.92519 13.8986 9.75112L14.5141 8.94892C14.7178 8.68374 14.7178 8.31486 14.5141 8.05042L13.8749 7.21785C13.7556 7.0623 13.703 6.86601 13.7289 6.67194L13.866 5.63049C13.9097 5.29939 13.7252 4.98014 13.4164 4.85199L12.4476 4.45126C12.2661 4.37645 12.1224 4.23275 12.0476 4.05128L11.6469 3.08241C11.5195 2.77353 11.1995 2.58909 10.8684 2.6328L9.82705 2.76983C9.63299 2.7965 9.43671 2.7439 9.28191 2.62539L8.44938 1.98615C8.18422 1.78245 7.81536 1.78245 7.55094 1.98615L6.71842 2.62539C6.56288 2.7439 6.36659 2.7965 6.17254 2.77131L5.13114 2.63428C4.80006 2.59057 4.48083 2.77501 4.35269 3.08389L3.95272 4.05276C3.87717 4.23349 3.73348 4.37719 3.55276 4.45275L2.58395 4.85273C2.27508 4.98088 2.09065 5.30013 2.13436 5.63123L2.27138 6.67268C2.29656 6.86675 2.24398 7.06304 2.12547 7.21785L1.48626 8.05042C1.28257 8.3156 1.28257 8.68448 1.48626 8.94892L2.12547 9.78149C2.24472 9.93704 2.2973 10.1333 2.27138 10.3274L2.13436 11.3688C2.09065 11.7 2.27508 12.0192 2.58395 12.1473L3.55276 12.5481C3.73422 12.6229 3.87791 12.7666 3.95272 12.9481L4.35343 13.9169C4.48083 14.2258 4.8008 14.4102 5.13188 14.3665L6.13476 14.234Z" stroke="#9FFF02" stroke-width="2" stroke-linecap="round" stroke-linejoin="round"/>
</g>
<defs>
<clipPath id="clip0_11890_38806">
<rect width="16" height="16" fill="white" transform="translate(0 0.5)"/>
</clipPath>
</defs>
</svg>
