<svg xmlns="http://www.w3.org/2000/svg" width="54" height="55" viewBox="0 0 54 55" fill="none">
                                                <path d="M16.2879 3.82788C17.3444 3.82788 18.3177 4.40079 18.8305 5.32445L22.3876 11.732C22.8534 12.571 22.8753 13.5858 22.4461 14.4441L19.0192 21.2979C19.0192 21.2979 20.0123 26.4036 24.1685 30.5597C28.3247 34.7159 33.4133 35.6919 33.4133 35.6919L40.266 32.2656C41.1249 31.8361 42.1404 31.8583 42.9796 32.3249L49.4054 35.8975C50.3281 36.4106 50.9004 37.3833 50.9004 38.4391V45.8161C50.9004 49.5728 47.4109 52.2862 43.8513 51.085C36.5406 48.6182 25.1924 43.9215 17.9997 36.7286C10.8068 29.5358 6.11002 18.1876 3.64321 10.8769C2.44216 7.31734 5.1555 3.82788 8.9122 3.82788H16.2879Z" stroke="white" stroke-width="5.83881" stroke-linejoin="round"/>
                                                <path opacity="0.01" d="M52.6445 1.3772H33.7422V20.2795H52.6445V1.3772Z" fill="white"/>
                                                <path d="M49.7366 4.28525L36.6504 17.3714" stroke="white" stroke-width="5.83881" stroke-linecap="round" stroke-linejoin="round"/>
                                                <path d="M36.6504 4.2851L49.7366 17.3713" stroke="white" stroke-width="5.83881" stroke-linecap="round" stroke-linejoin="round"/>
                                            </svg>