<svg xmlns="http://www.w3.org/2000/svg" width="48" height="48" viewBox="0 0 36 37" fill="none">
                                    <path d="M24.4641 19.5969C22.4412 18.8864 20.2657 18.5 18 18.5C15.7343 18.5 13.5588 18.8864 11.5359 19.5969C11.4686 19.6206 11.435 19.6324 11.382 19.6557C10.9011 19.8676 10.5318 20.3887 10.4913 20.9126C10.4868 20.9704 10.4868 21.0216 10.4868 21.1241C10.4868 21.4732 10.4868 21.6478 10.4723 21.7948C10.3317 23.2185 9.20533 24.3449 7.78159 24.4855C7.63455 24.5 7.45999 24.5 7.11085 24.5H6.7434C6.05256 24.5 5.70714 24.5 5.41981 24.4434C4.22563 24.208 3.29203 23.2744 3.05664 22.0802C3 21.7929 3 21.4474 3 20.7566V20.4594C3 19.7464 3 19.39 3.07611 18.9814C3.24632 18.0678 3.91012 16.9374 4.62509 16.3437C4.94481 16.0781 5.16165 15.9572 5.59531 15.7153C9.26695 13.6671 13.4972 12.5 18 12.5C22.5028 12.5 26.733 13.6671 30.4047 15.7153C30.8384 15.9572 31.0552 16.0781 31.3749 16.3437C32.0899 16.9374 32.7537 18.0678 32.9239 18.9814C33 19.39 33 19.7464 33 20.4594V20.7566C33 21.4474 33 21.7929 32.9434 22.0802C32.708 23.2744 31.7744 24.208 30.5802 24.4434C30.2929 24.5 29.9474 24.5 29.2566 24.5H28.8891C28.54 24.5 28.3654 24.5 28.2184 24.4855C26.7947 24.3449 25.6683 23.2185 25.5277 21.7948C25.5132 21.6478 25.5132 21.4732 25.5132 21.1241C25.5132 21.0216 25.5132 20.9704 25.5087 20.9126C25.4682 20.3887 25.0989 19.8676 24.618 19.6557C24.565 19.6324 24.5313 19.6206 24.4641 19.5969Z" stroke="white" stroke-width="3" stroke-linecap="round" stroke-linejoin="round"/>
                                    </svg>