<svg xmlns="http://www.w3.org/2000/svg" width="32" height="32" viewBox="0 0 32 32" fill="none">
                            <path d="M16 21.3334V16M16 10.6667H16.0133M4 10.5886V21.4114C4 21.8683 4 22.0967 4.06731 22.3005C4.12686 22.4807 4.22421 22.6461 4.35284 22.7857C4.49825 22.9435 4.69793 23.0544 5.0973 23.2763L14.964 28.7578C15.3421 28.9679 15.5312 29.0729 15.7314 29.1141C15.9086 29.1505 16.0914 29.1505 16.2686 29.1141C16.4688 29.0729 16.6579 28.9679 17.036 28.7578L26.9027 23.2763C27.3021 23.0544 27.5018 22.9435 27.6472 22.7857C27.7758 22.6461 27.8731 22.4807 27.9327 22.3005C28 22.0967 28 21.8683 28 21.4114V10.5886C28 10.1318 28 9.90334 27.9327 9.69961C27.8731 9.51937 27.7758 9.35393 27.6472 9.21434C27.5018 9.05656 27.3021 8.94562 26.9027 8.72376L17.036 3.24227C16.6579 3.0322 16.4688 2.92716 16.2686 2.88598C16.0914 2.84953 15.9086 2.84953 15.7314 2.88598C15.5312 2.92716 15.3421 3.0322 14.964 3.24227L5.0973 8.72376C4.69793 8.94563 4.49825 9.05656 4.35284 9.21434C4.22421 9.35393 4.12686 9.51937 4.06731 9.69961C4 9.90334 4 10.1318 4 10.5886Z" stroke="#9FFF02" stroke-width="2" stroke-linecap="round" stroke-linejoin="round"/>
                        </svg>