<svg xmlns="http://www.w3.org/2000/svg" width="129" height="128" viewBox="0 0 129 128" fill="none">
<path fill-rule="evenodd" clip-rule="evenodd" d="M46.4972 2.58423C57.8808 -0.752662 69.9334 -0.850805 81.3141 2.24814C84.0911 3.00432 85.4872 6.01436 84.5077 8.72067C83.5281 11.427 80.5439 12.8002 77.7553 12.0881C68.4706 9.71729 58.6856 9.87258 49.429 12.586C38.4995 15.7898 28.8753 22.3931 21.9532 31.4376C15.0312 40.4822 11.1714 51.4972 10.9342 62.8842C10.697 74.2711 14.0947 85.4373 20.6341 94.7623C27.1735 104.087 36.5143 111.086 47.3009 114.742C58.0875 118.398 69.7586 118.522 80.6203 115.095C91.4819 111.668 100.969 104.869 107.704 95.6847C113.409 87.9061 116.888 78.7593 117.822 69.2223C118.103 66.3579 120.411 64.02 123.289 64.0211C126.167 64.0221 128.521 66.36 128.286 69.2285C127.323 80.9843 123.124 92.2825 116.109 101.848C108.063 112.819 96.7308 120.941 83.7562 125.034C70.7816 129.128 56.8401 128.98 43.9551 124.613C31.0702 120.245 19.9122 111.886 12.1007 100.747C4.28916 89.6076 0.230541 76.2692 0.513889 62.6671C0.797236 49.065 5.4078 35.9072 13.6764 25.1032C21.9451 14.2992 33.4415 6.41125 46.4972 2.58423Z" fill="#9FFF02"/>
</svg>