<svg xmlns="http://www.w3.org/2000/svg" width="28" height="29" viewBox="0 0 28 29" fill="none">
  <path fill-rule="evenodd" clip-rule="evenodd" d="M21.9076 18.6335V20.7067C21.9076 21.8284 20.9983 22.7376 19.8767 22.7376H3.62953C2.5079 22.7376 1.59863 21.8284 1.59863 20.7067V7.94111C1.59863 6.81948 2.5079 5.91022 3.62953 5.91022H19.8767C20.9983 5.91022 21.9076 6.81948 21.9076 7.94111V10.0144L25.29 8.32313C25.5599 8.18823 25.8803 8.20264 26.1369 8.36123C26.3935 8.51982 26.5497 8.79997 26.5497 9.10162V19.5462C26.5497 19.8479 26.3935 20.128 26.1369 20.2866C25.8803 20.4452 25.5599 20.4596 25.29 20.3247L21.9076 18.6335ZM3.3394 7.94111C3.3394 7.78088 3.46929 7.65098 3.62953 7.65098H19.8767C20.0369 7.65098 20.1668 7.78088 20.1668 7.94111V11.4076C20.1666 11.4181 20.1666 11.4285 20.1668 11.439V17.2089C20.1666 17.2193 20.1666 17.2298 20.1668 17.2402V20.7067C20.1668 20.867 20.0369 20.9969 19.8767 20.9969H3.62953C3.46929 20.9969 3.3394 20.867 3.3394 20.7067V7.94111ZM21.9076 16.6873L24.8089 18.1379V10.5099L21.9076 11.9606V16.6873Z" fill="white" />
</svg>