<svg xmlns="http://www.w3.org/2000/svg" width="36" height="37" viewBox="0 0 36 37" fill="none">
    <path d="M7.5 8C5.01472 8 3 10.0147 3 12.5V24.5C3 26.9853 5.01472 29 7.5 29H21C23.029 29 24.7443 27.6572 25.3058 25.8117M25.5 18.5L30.9515 13.0485C31.594 12.406 31.9153 12.0847 32.1912 12.063C32.4305 12.0441 32.6644 12.141 32.8203 12.3236C33 12.534 33 12.9883 33 13.8971V23.1029C33 24.0117 33 24.466 32.8203 24.6764C32.6644 24.859 32.4305 24.9559 32.1912 24.937C31.9153 24.9153 31.594 24.594 30.9515 23.9515L25.5 18.5ZM25.5 18.5V15.2C25.5 12.6798 25.5 11.4196 25.0095 10.457C24.5781 9.61031 23.8897 8.9219 23.043 8.49047C22.0804 8 20.8202 8 18.3 8H14.25M3 3.5L33 33.5" stroke="white" stroke-width="2.25" stroke-linecap="round" stroke-linejoin="round"/>
</svg>