<svg xmlns="http://www.w3.org/2000/svg" width="36" height="36" viewBox="0 0 36 36" fill="none">
  <path d="M13.5 7.5C13.5 5.01472 15.5147 3 18 3C20.4853 3 22.5 5.01472 22.5 7.5V18C22.5 20.4853 20.4853 22.5 18 22.5C15.5147 22.5 13.5 20.4853 13.5 18V7.5Z" fill="#9FFF02" />
  <path d="M28.5 15V18C28.5 23.799 23.799 28.5 18 28.5M7.5 15V18C7.5 23.799 12.201 28.5 18 28.5M18 28.5V33M12 33H24M18 22.5C15.5147 22.5 13.5 20.4853 13.5 18V7.5C13.5 5.01472 15.5147 3 18 3C20.4853 3 22.5 5.01472 22.5 7.5V18C22.5 20.4853 20.4853 22.5 18 22.5Z" stroke="#9FFF02" stroke-width="2.25" stroke-linecap="round" stroke-linejoin="round" />
</svg>