<svg xmlns="http://www.w3.org/2000/svg" width="36" height="36" viewBox="0 0 36 36" fill="none">
  <path d="M33 13.3971C33 12.4883 33 12.034 32.8203 11.8236C32.6644 11.641 32.4305 11.5441 32.1912 11.563C31.9153 11.5847 31.594 11.906 30.9515 12.5485L25.5 18L30.9515 23.4515C31.594 24.094 31.9153 24.4153 32.1912 24.437C32.4305 24.4559 32.6644 24.359 32.8203 24.1764C33 23.966 33 23.5117 33 22.6029V13.3971Z" fill="#9FFF02" />
  <path d="M3 14.7C3 12.1798 3 10.9196 3.49047 9.95704C3.9219 9.11031 4.61031 8.4219 5.45704 7.99047C6.41965 7.5 7.67976 7.5 10.2 7.5H18.3C20.8202 7.5 22.0804 7.5 23.043 7.99047C23.8897 8.4219 24.5781 9.11031 25.0095 9.95704C25.5 10.9196 25.5 12.1798 25.5 14.7V21.3C25.5 23.8202 25.5 25.0804 25.0095 26.043C24.5781 26.8897 23.8897 27.5781 23.043 28.0095C22.0804 28.5 20.8202 28.5 18.3 28.5H10.2C7.67976 28.5 6.41965 28.5 5.45704 28.0095C4.61031 27.5781 3.9219 26.8897 3.49047 26.043C3 25.0804 3 23.8202 3 21.3V14.7Z" fill="#9FFF02" />
  <path d="M33 13.3971C33 12.4883 33 12.034 32.8203 11.8236C32.6644 11.641 32.4305 11.5441 32.1912 11.563C31.9153 11.5847 31.594 11.906 30.9515 12.5485L25.5 18L30.9515 23.4515C31.594 24.094 31.9153 24.4153 32.1912 24.437C32.4305 24.4559 32.6644 24.359 32.8203 24.1764C33 23.966 33 23.5117 33 22.6029V13.3971Z" stroke="#9FFF02" stroke-width="2.25" stroke-linecap="round" stroke-linejoin="round" />
  <path d="M3 14.7C3 12.1798 3 10.9196 3.49047 9.95704C3.9219 9.11031 4.61031 8.4219 5.45704 7.99047C6.41965 7.5 7.67976 7.5 10.2 7.5H18.3C20.8202 7.5 22.0804 7.5 23.043 7.99047C23.8897 8.4219 24.5781 9.11031 25.0095 9.95704C25.5 10.9196 25.5 12.1798 25.5 14.7V21.3C25.5 23.8202 25.5 25.0804 25.0095 26.043C24.5781 26.8897 23.8897 27.5781 23.043 28.0095C22.0804 28.5 20.8202 28.5 18.3 28.5H10.2C7.67976 28.5 6.41965 28.5 5.45704 28.0095C4.61031 27.5781 3.9219 26.8897 3.49047 26.043C3 25.0804 3 23.8202 3 21.3V14.7Z" stroke="#9FFF02" stroke-width="2.25" stroke-linecap="round" stroke-linejoin="round" />
</svg>