<svg xmlns="http://www.w3.org/2000/svg" width="22" height="21" viewBox="0 0 22 21" fill="none">
  <path d="M12.3479 0.183804C16.1559 0.639059 19.3808 3.43114 20.6254 7.10458C22.2648 11.9419 19.8764 17.2189 15.3239 19.3987C12.5295 20.7353 9.62531 20.7271 6.61121 19.374C6.40788 19.2828 6.2038 19.2694 5.99897 19.3337C4.88513 19.6775 3.73466 20.005 2.54756 20.3159C1.424 20.6097 0.623375 19.7396 0.926131 18.6407C1.22814 17.5433 1.5279 16.4631 1.82543 15.4001C1.93756 14.9987 1.87477 14.6241 1.71105 14.2362C-1.41518 6.87807 4.47847 -0.755861 12.3479 0.183804ZM19.4279 8.4995C17.9388 1.35671 8.79554 -0.80071 4.24075 4.86195C2.33002 7.2369 1.85907 10.399 2.87722 13.1844C3.05215 13.6643 3.25399 14.1524 3.48274 14.6488C3.52759 14.7445 3.53581 14.8432 3.5074 14.9448L2.52065 18.5061C2.48626 18.6347 2.5341 18.6848 2.66417 18.6564C3.76307 18.4112 4.84103 18.1219 5.89805 17.7885C6.18287 17.6988 6.54393 17.6764 6.81529 17.8109C9.74193 19.2574 12.9511 19.2395 15.6827 17.4611C18.6587 15.5257 20.1567 12.0025 19.4279 8.4995Z" fill="white" />
  <path d="M8.42768 10.2421C8.42768 10.5073 8.3223 10.7617 8.13472 10.9493C7.94715 11.1369 7.69274 11.2423 7.42746 11.2423C7.16219 11.2423 6.90778 11.1369 6.7202 10.9493C6.53263 10.7617 6.42725 10.5073 6.42725 10.2421C6.42725 9.97679 6.53263 9.72239 6.7202 9.53481C6.90778 9.34723 7.16219 9.24185 7.42746 9.24185C7.69274 9.24185 7.94715 9.34723 8.13472 9.53481C8.3223 9.72239 8.42768 9.97679 8.42768 10.2421Z" fill="white" />
  <path d="M10.906 11.2441C10.6497 11.2257 10.4114 11.1025 10.2437 10.9016C10.0759 10.7007 9.99241 10.4385 10.0115 10.1727C10.0305 9.90692 10.1506 9.65933 10.3453 9.48439C10.54 9.30944 10.7933 9.22148 11.0496 9.23985C11.3059 9.25822 11.5441 9.38142 11.7119 9.58235C11.8796 9.78328 11.9632 10.0455 11.9441 10.3112C11.9251 10.577 11.805 10.8246 11.6103 10.9996C11.4156 11.1745 11.1622 11.2625 10.906 11.2441Z" fill="white" />
  <path d="M15.5258 10.242C15.5258 10.3716 15.5002 10.4999 15.4507 10.6197C15.4011 10.7394 15.3284 10.8482 15.2368 10.9398C15.1451 11.0314 15.0363 11.1041 14.9166 11.1537C14.7969 11.2033 14.6686 11.2288 14.539 11.2288C14.4094 11.2288 14.2811 11.2033 14.1614 11.1537C14.0417 11.1041 13.9329 11.0314 13.8413 10.9398C13.7496 10.8482 13.6769 10.7394 13.6274 10.6197C13.5778 10.4999 13.5522 10.3716 13.5522 10.242C13.5522 9.98033 13.6562 9.72935 13.8413 9.54429C14.0263 9.35924 14.2773 9.25528 14.539 9.25528C14.8007 9.25528 15.0517 9.35924 15.2368 9.54429C15.4218 9.72935 15.5258 9.98033 15.5258 10.242Z" fill="white" />
</svg>