<svg xmlns="http://www.w3.org/2000/svg" width="36" height="37" viewBox="0 0 36 37" fill="none">
    <path d="M22.5 14.6V8C22.5 5.51472 20.4853 3.5 18 3.5C16.2336 3.5 14.7049 4.51778 13.9683 5.9989M18 29V33.5M18 29C12.201 29 7.5 24.299 7.5 18.5V15.5M18 29C23.799 29 28.5 24.299 28.5 18.5V15.5M12 33.5H24M3 3.5L33 33.5M18 23C15.5147 23 13.5 20.9853 13.5 18.5V14L21.1839 21.6801C20.3694 22.4955 19.2436 23 18 23Z" stroke="white" stroke-width="2.25" stroke-linecap="round" stroke-linejoin="round"/>
</svg>