<svg xmlns="http://www.w3.org/2000/svg" width="21" height="21" viewBox="0 0 21 21" fill="none">
                                    <g clip-path="url(#clip0_11890_39030)">
                                        <path fill-rule="evenodd" clip-rule="evenodd"
                                            d="M10.625 1.46875C8.52804 1.46875 6.82812 3.16867 6.82812 5.26562V5.75988L3.62787 2.55963C3.29837 2.23012 2.76413 2.23012 2.43463 2.55963C2.10512 2.88913 2.10512 3.42337 2.43463 3.75287L6.82812 8.14637V10.75C6.82812 12.847 8.52804 14.5469 10.625 14.5469C11.368 14.5469 12.0611 14.3335 12.6464 13.9646L17.6221 18.9404C17.9516 19.2699 18.4859 19.2699 18.8154 18.9404C19.1449 18.6109 19.1449 18.0766 18.8154 17.7471L13.8396 12.7714C14.2085 12.1861 14.4219 11.493 14.4219 10.75V5.26562C14.4219 3.16867 12.722 1.46875 10.625 1.46875ZM12.5891 11.5208C12.6829 11.2821 12.7344 11.022 12.7344 10.75V5.26562C12.7344 4.10065 11.79 3.15625 10.625 3.15625C9.46002 3.15625 8.51562 4.10065 8.51562 5.26562V7.44738L12.5891 11.5208ZM8.51562 9.83387V10.75C8.51562 11.915 9.46002 12.8594 10.625 12.8594C10.897 12.8594 11.1571 12.8079 11.3958 12.7141L8.51562 9.83387Z"
                                            fill="white" />
                                        <path
                                            d="M5.14062 10.3281C5.14062 9.86213 4.76287 9.48438 4.29688 9.48438C3.83088 9.48438 3.45312 9.86213 3.45312 10.3281C3.45312 14.0036 6.21794 17.0333 9.78125 17.4509V19.1875C9.78125 19.6535 10.159 20.0312 10.625 20.0312C11.091 20.0312 11.4688 19.6535 11.4688 19.1875V17.4508C12.0041 17.388 12.522 17.2661 13.0155 17.0917C13.4549 16.9364 13.6852 16.4544 13.5299 16.015C13.3746 15.5757 12.8926 15.3454 12.4532 15.5006C11.8825 15.7024 11.2675 15.8125 10.625 15.8125C7.59605 15.8125 5.14062 13.3571 5.14062 10.3281Z"
                                            fill="white" />
                                        <path
                                            d="M17.7969 10.3281C17.7969 9.86213 17.4191 9.48438 16.9531 9.48438C16.4871 9.48438 16.1094 9.86213 16.1094 10.3281C16.1094 11.1097 15.9464 11.8509 15.6534 12.5216C15.4668 12.9486 15.6618 13.446 16.0888 13.6325C16.5158 13.8191 17.0132 13.6242 17.1998 13.1972C17.5841 12.3175 17.7969 11.3465 17.7969 10.3281Z"
                                            fill="white" />
                                    </g>
                                    <defs>
                                        <clipPath id="clip0_11890_39030">
                                            <rect width="20.25" height="20.25" fill="white" transform="translate(0.5 0.625)" />
                                        </clipPath>
                                    </defs>
                                </svg>