<svg xmlns="http://www.w3.org/2000/svg" width="98" height="96" viewBox="0 0 98 96" fill="none">
  <path d="M30.5173 24.0001L36.6207 12.0001H61.034L67.1373 24.0001H30.5173Z" stroke="#FF8DDF" stroke-width="8.13777" stroke-linejoin="round"/>
  <path d="M83.4128 24.0001H14.2418C10.871 24.0001 8.13843 26.6864 8.13843 30.0001V78.0001C8.13843 81.3138 10.871 84.0001 14.2418 84.0001H83.4128C86.7836 84.0001 89.5161 81.3138 89.5161 78.0001V30.0001C89.5161 26.6864 86.7836 24.0001 83.4128 24.0001Z" stroke="#FF8DDF" stroke-width="8.13777" stroke-linejoin="round"/>
  <path d="M48.8273 70.0001C57.8161 70.0001 65.1028 62.8367 65.1028 54.0001C65.1028 45.1635 57.8161 38.0001 48.8273 38.0001C39.8385 38.0001 32.5518 45.1635 32.5518 54.0001C32.5518 62.8367 39.8385 70.0001 48.8273 70.0001Z" stroke="#FF8DDF" stroke-width="8.13777" stroke-linejoin="round"/>
</svg>