<svg xmlns="http://www.w3.org/2000/svg" width="24" height="25" viewBox="0 0 24 25" fill="none">
                                    <path d="M12 13.75C12.5523 13.75 13 13.3023 13 12.75C13 12.1977 12.5523 11.75 12 11.75C11.4477 11.75 11 12.1977 11 12.75C11 13.3023 11.4477 13.75 12 13.75Z" stroke="white" stroke-width="2" stroke-linecap="round" stroke-linejoin="round"/>
                                    <path d="M12 6.75C12.5523 6.75 13 6.30228 13 5.75C13 5.19772 12.5523 4.75 12 4.75C11.4477 4.75 11 5.19772 11 5.75C11 6.30228 11.4477 6.75 12 6.75Z" stroke="white" stroke-width="2" stroke-linecap="round" stroke-linejoin="round"/>
                                    <path d="M12 20.75C12.5523 20.75 13 20.3023 13 19.75C13 19.1977 12.5523 18.75 12 18.75C11.4477 18.75 11 19.1977 11 19.75C11 20.3023 11.4477 20.75 12 20.75Z" stroke="white" stroke-width="2" stroke-linecap="round" stroke-linejoin="round"/>
                                </svg>