<svg width="16" height="17" viewBox="0 0 16 17" fill="none" xmlns="http://www.w3.org/2000/svg">
<g id="credit-card-search">
<path id="Icon" d="M14.6666 14.9773L13.6666 13.9773M14.6666 6.97729H1.33325M14.6666 8.31063V5.77729C14.6666 5.03056 14.6666 4.65719 14.5213 4.37197C14.3934 4.12109 14.1895 3.91712 13.9386 3.78928C13.6534 3.64396 13.28 3.64396 12.5333 3.64396H3.46659C2.71985 3.64396 2.34648 3.64396 2.06126 3.78928C1.81038 3.91711 1.60641 4.12109 1.47858 4.37197C1.33325 4.65719 1.33325 5.03056 1.33325 5.77729V10.844C1.33325 11.5907 1.33325 11.9641 1.47858 12.2493C1.60641 12.5002 1.81038 12.7041 2.06126 12.832C2.34648 12.9773 2.71985 12.9773 3.46659 12.9773H6.99992M14.3333 12.3106C14.3333 13.5993 13.2886 14.644 11.9999 14.644C10.7113 14.644 9.66659 13.5993 9.66659 12.3106C9.66659 11.022 10.7113 9.97729 11.9999 9.97729C13.2886 9.97729 14.3333 11.022 14.3333 12.3106Z" stroke="black" stroke-width="1.25" stroke-linecap="round" stroke-linejoin="round"/>
</g>
</svg>
