<svg width="20" height="20" viewBox="0 0 20 20" fill="none" xmlns="http://www.w3.org/2000/svg">
<g id="mark" clip-path="url(#clip0_2751_99375)">
<path id="Icon" d="M16.6665 10.0001C16.6665 13.682 13.6817 16.6667 9.99984 16.6667M16.6665 10.0001C16.6665 6.31818 13.6817 3.33341 9.99984 3.33341M16.6665 10.0001H18.3332M9.99984 16.6667C6.31794 16.6667 3.33317 13.682 3.33317 10.0001M9.99984 16.6667V18.3334M3.33317 10.0001C3.33317 6.31818 6.31794 3.33341 9.99984 3.33341M3.33317 10.0001H1.6665M9.99984 3.33341V1.66675M12.4998 10.0001C12.4998 11.3808 11.3805 12.5001 9.99984 12.5001C8.61913 12.5001 7.49984 11.3808 7.49984 10.0001C7.49984 8.61937 8.61913 7.50008 9.99984 7.50008C11.3805 7.50008 12.4998 8.61937 12.4998 10.0001Z" stroke="#07F468" stroke-width="2" stroke-linecap="round" stroke-linejoin="round"/>
</g>
<defs>
<clipPath id="clip0_2751_99375">
<rect width="20" height="20" fill="white"/>
</clipPath>
</defs>
</svg>
