<svg width="37" height="36" viewBox="0 0 37 36" fill="none" xmlns="http://www.w3.org/2000/svg">
<g id="icon/merch">
<path id="color 1" d="M19.6718 10.9766C20.3787 10.7562 20.971 10.3777 21.4489 9.84093C22.0216 9.19948 22.7776 9.04896 23.6023 9.04896C26.6001 9.04459 29.4594 9.63041 32.1801 10.8064C32.2311 10.8278 32.2764 10.8604 32.3127 10.9019C32.349 10.9433 32.3753 10.9923 32.3896 11.0453C32.4965 11.4402 32.527 11.846 32.4812 12.2628C32.2936 13.9428 32.0285 15.6522 31.686 17.3911C31.614 17.7577 31.3914 17.9442 31.0183 17.9508L28.3674 17.9999C28.2234 18.002 28.1514 18.0751 28.1514 18.2191L28.1449 32.2624C28.1451 32.3636 28.1106 32.4619 28.047 32.5416C27.9835 32.6212 27.8945 32.6773 27.7947 32.7009C27.4958 32.7707 27.175 32.8057 26.8325 32.8057C21.0791 32.7991 15.2863 32.7926 9.45432 32.786C9.20123 32.786 9.03977 32.6638 8.96996 32.4195C8.92196 32.2515 8.89686 32.0846 8.89468 31.9187C8.87723 27.758 8.87614 23.21 8.89141 18.2748C8.89141 18.1024 8.80523 18.014 8.63286 18.0096L5.51396 17.9278C5.37868 17.9235 5.30123 17.8537 5.28159 17.7184C5.03287 15.9817 4.79396 14.3497 4.56486 12.8224C4.4885 12.3162 4.47759 11.798 4.53214 11.2678C4.5845 10.7278 4.9085 10.7377 5.30123 10.5773C7.7405 9.58239 10.4198 9.08058 13.339 9.07185C14.2063 9.06858 15.103 9.22895 15.6954 9.94241C16.0969 10.4268 16.5845 10.766 17.1583 10.9602C17.1931 10.972 17.2303 10.9746 17.2663 10.9677C17.3024 10.9608 17.336 10.9447 17.364 10.921C17.392 10.8973 17.4134 10.8668 17.4261 10.8323C17.4388 10.7979 17.4424 10.7608 17.4365 10.7246C17.142 8.79696 18.1205 7.75949 19.0827 6.29986C19.1356 6.22065 19.1662 6.12865 19.1713 6.03351C19.1764 5.93837 19.1558 5.84361 19.1115 5.75921C19.0673 5.67482 19.0012 5.6039 18.9201 5.55391C18.839 5.50391 18.7459 5.4767 18.6507 5.47512C18.5525 5.47294 18.45 5.48713 18.343 5.51767C18.1947 5.56131 18.0812 5.64856 18.0027 5.77947L17.3187 6.92492C17.2477 7.04426 17.1431 7.13996 17.0179 7.19994C16.8927 7.25992 16.7525 7.28152 16.615 7.26202C15.5285 7.10493 15.4827 5.78929 15.8263 5.00383C16.7329 2.92238 19.4296 2.57221 20.8369 4.28712C21.6158 5.23294 21.6616 6.84965 20.8074 7.8282C20.0481 8.70201 19.4983 9.63803 19.4721 10.8293C19.4721 10.8535 19.4777 10.8773 19.4886 10.8989C19.4994 10.9205 19.5152 10.9392 19.5346 10.9535C19.5541 10.9678 19.5766 10.9774 19.6005 10.9814C19.6243 10.9854 19.6487 10.9838 19.6718 10.9766ZM26.214 15.9479C27.1609 15.7362 28.1612 15.6708 29.215 15.7515C29.586 15.7777 29.8063 15.6086 29.8761 15.2442C30.0485 14.3278 30.127 13.4257 30.1118 12.5377C30.1111 12.4822 30.093 12.4285 30.0601 12.3838C30.0272 12.3392 29.9812 12.306 29.9285 12.2889C27.8841 11.6213 25.8147 11.2962 23.7201 11.3137C22.7612 11.3235 22.0936 12.4559 21.2394 12.8486C18.7227 14.0104 16.4023 13.5915 14.3732 11.834C12.979 10.6264 8.60014 11.7784 7.04559 12.3119C6.97839 12.3349 6.92091 12.3803 6.88234 12.4409C6.84377 12.5014 6.82635 12.5735 6.83286 12.6457L7.07177 15.1362C7.11323 15.5726 7.35323 15.7777 7.79177 15.7515C8.84341 15.686 9.78814 15.7242 10.626 15.866C10.7416 15.8857 10.8212 15.9489 10.8649 16.0558C10.998 16.3918 11.0656 16.7497 11.0678 17.1293C11.0852 21.6522 11.0918 26.078 11.0874 30.4067C11.0874 30.5006 11.1332 30.5475 11.2249 30.5475H25.6969C25.7516 30.5475 25.804 30.5257 25.8427 30.4871C25.8813 30.4484 25.903 30.396 25.903 30.3413C25.9009 26.3377 25.8998 22.4573 25.8998 18.7002C25.902 17.858 25.9423 17.0137 26.0209 16.1671C26.0318 16.0471 26.0961 15.974 26.214 15.9479ZM9.46885 32.5915C9.50977 32.5747 9.53956 32.5355 9.55166 32.4828C9.56375 32.43 9.55717 32.3679 9.53336 32.3101C9.52157 32.2815 9.5059 32.2548 9.48725 32.2315C9.4686 32.2083 9.44734 32.189 9.42467 32.1747C9.402 32.1603 9.37837 32.1513 9.35514 32.1481C9.3319 32.1448 9.30951 32.1475 9.28924 32.1558C9.24832 32.1727 9.21854 32.2118 9.20644 32.2646C9.19434 32.3174 9.20092 32.3795 9.22474 32.4373C9.23653 32.4659 9.2522 32.4926 9.27084 32.5158C9.28949 32.539 9.31076 32.5584 9.33343 32.5727C9.3561 32.587 9.37972 32.5961 9.40296 32.5993C9.42619 32.6025 9.44858 32.5999 9.46885 32.5915ZM27.9256 32.246C27.7423 32.0802 27.5907 32.1238 27.4707 32.3769C27.4585 32.4036 27.4549 32.4334 27.4605 32.4622C27.4661 32.491 27.4805 32.5173 27.5018 32.5375C27.5231 32.5577 27.5501 32.5707 27.5791 32.5748C27.6082 32.5789 27.6378 32.5738 27.6638 32.5602L27.8994 32.4359C27.9163 32.427 27.9309 32.4142 27.942 32.3986C27.953 32.383 27.9601 32.3651 27.9627 32.3464C27.9653 32.3277 27.9632 32.3088 27.9568 32.2914C27.9503 32.2739 27.9396 32.2583 27.9256 32.246Z" fill="#07F468"/>
</g>
</svg>
