<svg width="50" height="32" viewBox="0 0 50 32" fill="none" xmlns="http://www.w3.org/2000/svg">
<rect width="50" height="32" fill="#1B3771"/>
<path fill-rule="evenodd" clip-rule="evenodd" d="M25.0003 26.1342C27.4129 28.3331 30.657 29.6731 34.1694 29.6731C41.7297 29.6731 47.8421 23.5604 47.8421 15.9998C47.8421 8.46662 41.73 2.32715 34.1694 2.32715C30.657 2.32715 27.4132 3.6677 25.0003 5.86602C22.2387 8.38582 20.4962 11.9785 20.4962 15.9998C20.4962 20.0221 22.2387 23.6412 25.0003 26.1342Z" fill="#E9B040"/>
<path fill-rule="evenodd" clip-rule="evenodd" d="M46.019 23.6146C46.019 23.3733 46.2062 23.1855 46.4748 23.1855C46.716 23.1855 46.9038 23.3733 46.9038 23.6146C46.9038 23.8558 46.716 24.0703 46.4748 24.0703C46.4148 24.0708 46.3553 24.0594 46.2998 24.0366C46.2443 24.0139 46.1938 23.9804 46.1514 23.9379C46.109 23.8955 46.0754 23.8451 46.0527 23.7896C46.03 23.734 46.0185 23.6746 46.019 23.6146ZM46.4748 23.9628C46.6352 23.9628 46.7965 23.8023 46.7965 23.6143C46.7965 23.4262 46.6355 23.2925 46.4748 23.2925C46.287 23.2925 46.1263 23.4265 46.1263 23.6143C46.1263 23.8021 46.287 23.9628 46.4748 23.9628ZM46.3943 23.8291H46.3137V23.4268H46.4748C46.5015 23.4268 46.5553 23.4268 46.582 23.4535C46.6088 23.4809 46.6355 23.5073 46.6355 23.5341C46.6355 23.5878 46.6088 23.6413 46.5556 23.6413L46.6355 23.8291H46.5283L46.4748 23.6681H46.3943V23.8291ZM46.3943 23.5878H46.5015C46.5282 23.5878 46.5283 23.5605 46.5283 23.5341C46.5283 23.5341 46.5282 23.5073 46.5015 23.5073H46.3943V23.5878Z" fill="#E9B040"/>
<path fill-rule="evenodd" clip-rule="evenodd" d="M29.4236 14.553C29.3693 14.0665 29.2888 13.5833 29.1824 13.1055H20.8179C20.9269 12.6163 21.0612 12.133 21.2201 11.6577H28.7804C28.6161 11.1663 28.4282 10.6832 28.2174 10.2099H21.7829C22.0303 9.71607 22.2986 9.23302 22.5872 8.76205H27.4128C27.1132 8.24611 26.7631 7.76122 26.3676 7.31453H23.6327C24.035 6.80499 24.5175 6.32248 25 5.867C22.5872 3.6684 19.3698 2.32812 15.8309 2.32812C8.27063 2.32812 2.1579 8.4676 2.1579 16.0008C2.1579 23.5611 8.27063 29.6741 15.8309 29.6741C19.3698 29.6741 22.5869 28.3338 25 26.1352C25.4822 25.6795 25.9653 25.1972 26.394 24.6877H23.6324C23.254 24.2275 22.9048 23.744 22.5869 23.2402H27.4128C27.7124 22.7756 27.9812 22.2919 28.2174 21.7921H21.7829C21.5631 21.3227 21.375 20.8391 21.2199 20.3445H28.7801C28.9388 19.869 29.0731 19.3857 29.1824 18.8965C29.2896 18.4142 29.3696 17.9311 29.4236 17.4489C29.5309 16.4866 29.5309 15.5153 29.4236 14.553Z" fill="#CC2131"/>
<path fill-rule="evenodd" clip-rule="evenodd" d="M46.019 19.1644C46.019 18.9231 46.2062 18.7354 46.4748 18.7354C46.716 18.7354 46.9038 18.9231 46.9038 19.1644C46.9038 19.4056 46.716 19.6201 46.4748 19.6201C46.4148 19.6207 46.3553 19.6092 46.2997 19.5865C46.2442 19.5638 46.1937 19.5303 46.1513 19.4878C46.1089 19.4454 46.0753 19.395 46.0526 19.3394C46.0299 19.2839 46.0185 19.2244 46.019 19.1644ZM46.4748 19.5129C46.6352 19.5129 46.7965 19.3519 46.7965 19.1644C46.7965 18.9766 46.6355 18.8426 46.4748 18.8426C46.287 18.8426 46.1263 18.9766 46.1263 19.1644C46.1263 19.3516 46.287 19.5129 46.4748 19.5129ZM46.3943 19.3789H46.3137V18.9766H46.4748C46.5015 18.9766 46.5553 18.9766 46.582 19.0033C46.6088 19.0307 46.6355 19.0571 46.6355 19.0839C46.6355 19.1376 46.6088 19.1911 46.5556 19.1911L46.6355 19.3789H46.5283L46.4748 19.2179H46.3943V19.3789ZM46.3943 19.1379H46.5015C46.5283 19.1379 46.5283 19.1106 46.5283 19.0841C46.5283 19.0841 46.5283 19.0574 46.5015 19.0574H46.3943V19.1379Z" fill="white"/>
<path fill-rule="evenodd" clip-rule="evenodd" d="M20.3621 19.9416C19.9064 20.0756 19.5846 20.1293 19.2361 20.1293C18.5391 20.1293 18.1101 19.7003 18.1101 18.8958C18.1101 18.7353 18.1368 18.574 18.1635 18.3868L18.2438 17.8505L18.3243 17.3942L18.9678 13.5338H20.3886L20.2279 14.3916H21.1127L20.8981 15.8126H20.0136L19.6114 18.1182C19.6114 18.1987 19.5846 18.2787 19.5846 18.3327C19.5846 18.6278 19.7454 18.7618 20.0941 18.7618C20.2819 18.7618 20.3892 18.735 20.5499 18.708L20.3621 19.9416ZM24.9466 19.8875C24.4526 20.0462 23.9371 20.1278 23.4182 20.1293C21.8364 20.1293 20.8981 19.2713 20.8981 17.609C20.8981 15.6789 21.9974 14.2311 23.4987 14.2311C24.7053 14.2311 25.4825 15.0354 25.4825 16.2954C25.4825 16.6977 25.4291 17.1 25.2953 17.6895H22.346V17.8505C22.346 18.5205 22.775 18.8423 23.6327 18.8423C24.169 18.8423 24.6515 18.735 25.1878 18.4938L24.9466 19.8875ZM24.0618 16.5364V16.2687C24.0618 15.8129 23.7938 15.5449 23.3647 15.5449C22.8822 15.5449 22.5605 15.8934 22.4265 16.5367L24.0618 16.5364ZM9.02148 20.0221H7.54692L8.40497 14.6869L6.50139 20.0221H5.48289L5.37563 14.7136L4.46381 20.0221H3.04303L4.19582 13.0781H6.31362L6.39442 17.3677L7.8152 13.0781H10.1745L9.02148 20.0221ZM12.5874 17.5017C12.4266 17.5017 12.3996 17.475 12.2924 17.475C11.4613 17.475 11.0323 17.7967 11.0323 18.333C11.0323 18.708 11.2465 18.9231 11.5683 18.9231C12.2924 18.9231 12.5603 18.3327 12.5874 17.5017ZM13.7669 20.0221H12.4801L12.5069 19.432C12.1851 19.8878 11.7561 20.1293 10.9518 20.1293C10.228 20.1293 9.63827 19.4858 9.63827 18.574C9.63827 18.3063 9.69175 18.065 9.74524 17.8505C9.98649 16.9654 10.8713 16.4292 12.2118 16.4024C12.3726 16.4024 12.6409 16.4024 12.8551 16.4292C12.9086 16.242 12.9086 16.1614 12.9086 16.0542C12.9086 15.6789 12.6138 15.5717 11.9168 15.5717C11.4878 15.5717 11.0323 15.6522 10.6835 15.7324L10.496 15.8129H10.3888L10.6033 14.5529C11.3003 14.3384 11.7828 14.2579 12.3191 14.2579C13.6059 14.2579 14.2762 14.8209 14.2762 15.9202C14.2762 16.1879 14.3029 16.4024 14.1956 17.0192L13.9009 19.03L13.8474 19.3785L13.7939 19.673V19.8608L13.7669 20.0221ZM32.0781 14.4456C32.4798 14.4456 32.8553 14.5526 33.3916 14.8209L33.6329 13.2926C33.4989 13.2391 33.4718 13.2391 33.2843 13.1586L32.6675 13.0246C32.4798 12.9711 32.2653 12.9443 31.9976 12.9443C31.2735 12.9443 30.8445 12.9443 30.389 13.2391C30.1477 13.3731 29.8527 13.5876 29.5045 13.9631L29.3435 13.9094L27.8154 14.9819L27.8959 14.3921H26.3139L25.4293 20.0224H26.9042L27.4405 16.993C27.4405 16.993 27.655 16.564 27.7622 16.4297C28.0299 16.0812 28.2712 16.0812 28.5662 16.0812H28.6735C28.6467 16.403 28.6197 16.7785 28.6197 17.1538C28.6197 19.0036 29.6655 20.1567 31.2741 20.1567C31.6764 20.1567 32.0249 20.1029 32.5609 19.9421L32.8286 18.36C32.3464 18.6019 31.9441 18.7086 31.5688 18.7086C30.7108 18.7086 30.2012 18.0923 30.2012 17.0198C30.2012 15.5179 30.9517 14.4456 32.0781 14.4456ZM44.5977 13.0781L44.2759 15.0621C43.9274 14.5259 43.4987 14.2846 42.9357 14.2846C42.1584 14.2846 41.4344 14.7136 40.9786 15.5446L40.04 14.9816L40.1205 14.3919H38.5385L37.6272 20.0221H39.1285L39.6107 16.9927C39.6107 16.9927 39.9863 16.5637 40.0935 16.4294C40.308 16.1617 40.5493 16.0809 40.7371 16.0809C40.559 16.6171 40.4684 17.1785 40.4688 17.7435C40.4688 19.1643 41.2196 20.1023 42.2918 20.1023C42.8281 20.1023 43.2571 19.9151 43.6594 19.4593L43.5789 20.0224H44.9997L46.126 13.0783L44.5977 13.0781ZM42.8019 18.6812C42.2924 18.6812 42.0512 18.3327 42.0512 17.5822C42.0512 16.4832 42.5069 15.6789 43.2037 15.6789C43.7132 15.6789 43.9815 16.0809 43.9815 16.805C43.9815 17.904 43.4987 18.6812 42.8019 18.6812ZM35.9652 17.5017C35.8047 17.5017 35.778 17.475 35.6707 17.475C34.8394 17.475 34.4104 17.7967 34.4104 18.333C34.4104 18.708 34.6249 18.9231 34.9467 18.9231C35.6704 18.9231 35.9384 18.3327 35.9652 17.5017ZM37.1447 20.0221H35.8585L35.8852 19.432C35.5635 19.8878 35.1344 20.1293 34.3299 20.1293C33.6064 20.1293 32.9629 19.5125 32.9629 18.574C32.9896 17.2337 33.9814 16.4024 35.5899 16.4024C35.7509 16.4024 36.0189 16.4024 36.2334 16.4292C36.2872 16.242 36.2872 16.1614 36.2872 16.0542C36.2872 15.6789 35.9922 15.5717 35.2949 15.5717C34.8659 15.5717 34.3836 15.6522 34.0619 15.7324L33.8474 15.8129H33.7668L33.9814 14.5529C34.6787 14.3384 35.1609 14.2579 35.6972 14.2579C36.984 14.2579 37.6542 14.8209 37.6542 15.9202C37.6542 16.1879 37.681 16.4024 37.5737 17.0192L37.2793 19.03L37.2255 19.3785L37.172 19.673L37.1447 19.8608V20.0221ZM16.85 15.5984C17.145 15.5984 17.547 15.6252 17.9761 15.6789L18.1906 14.3651C17.7615 14.3116 17.1988 14.2579 16.8503 14.2579C15.2147 14.2579 14.652 15.1427 14.652 16.1882C14.652 16.8582 14.9735 17.3677 15.751 17.7162C16.3675 18.0113 16.4748 18.0653 16.4748 18.3063C16.4748 18.6548 16.153 18.8693 15.5632 18.8693C15.1345 18.8693 14.7322 18.7888 14.2494 18.6548L14.0887 19.9416H14.1157L14.3837 19.9953C14.4639 20.0221 14.5982 20.0488 14.759 20.0488C15.1342 20.1023 15.4289 20.1023 15.6167 20.1023C17.2523 20.1023 17.9493 19.4861 17.9493 18.2258C17.9493 17.4485 17.5741 16.9927 16.8233 16.671C16.2068 16.376 16.1263 16.3492 16.1263 16.0809C16.1263 15.8129 16.3942 15.5984 16.85 15.5984Z" fill="#1B3771"/>
<path fill-rule="evenodd" clip-rule="evenodd" d="M34.0352 12.8639L33.7934 14.3651C33.2571 14.0972 32.8821 13.9899 32.4798 13.9899C31.3541 13.9899 30.5768 15.0625 30.5768 16.5905C30.5768 17.6363 31.1131 18.2793 31.9703 18.2793C32.3458 18.2793 32.7481 18.1726 33.2306 17.9308L32.9629 19.5129C32.4266 19.6469 32.0784 19.7006 31.6494 19.7006C30.0673 19.7006 29.0755 18.5743 29.0755 16.7245C29.0755 14.2311 30.4425 12.5156 32.3996 12.5156C32.6679 12.5156 32.8824 12.5424 33.0702 12.5691L33.6864 12.7299C33.8742 12.8101 33.9009 12.8101 34.0352 12.8639ZM29.29 13.9094C29.2363 13.8826 29.1828 13.8826 29.129 13.8826C28.6468 13.8826 28.3782 14.1239 27.9227 14.7942L28.0567 13.9361H26.6897L25.8047 19.5931H27.2795C27.8158 16.1347 27.9495 15.5447 28.6735 15.5447H28.7808C28.9148 14.8744 29.0758 14.3651 29.3438 13.9091L29.29 13.9094ZM20.7375 19.5126C20.3352 19.6466 20.0137 19.7003 19.6649 19.7003C18.9141 19.7003 18.4854 19.2713 18.4854 18.4668C18.4854 18.3063 18.5121 18.145 18.5389 17.9578L18.6191 17.3945L18.6996 16.9655L19.3431 13.1051H20.8177L20.6569 13.9361H21.4077L21.1932 15.3302H20.4427L20.0404 17.6628C20.0404 17.77 20.0137 17.8505 20.0137 17.904C20.0137 18.199 20.1744 18.333 20.5232 18.333C20.711 18.333 20.8183 18.3063 20.9255 18.2793L20.7375 19.5126ZM15.027 15.7324C15.027 16.4292 15.3755 16.9387 16.153 17.2872C16.7696 17.5823 16.8501 17.6628 16.8501 17.9308C16.8501 18.2793 16.5821 18.4403 15.992 18.4403C15.563 18.4403 15.161 18.3598 14.6782 18.199L14.4637 19.5126H14.5442L14.8125 19.5663C14.9341 19.6032 15.0607 19.6213 15.1877 19.6198C15.5363 19.6466 15.8313 19.6733 16.0188 19.6733C17.5738 19.6733 18.2976 19.0838 18.2976 17.7968C18.2976 17.0195 18.0029 16.5638 17.2521 16.2147C16.6353 15.947 16.555 15.8664 16.555 15.6252C16.555 15.3034 16.7963 15.1427 17.2788 15.1427C17.5738 15.1427 17.9758 15.1962 18.3511 15.2499L18.5656 13.9361C18.1903 13.8826 17.6003 13.8289 17.2521 13.8289C15.59 13.8289 15.027 14.6869 15.027 15.7324ZM45.3759 19.5931H43.9551L44.035 19.0301C43.6327 19.4591 43.2037 19.6463 42.6674 19.6463C41.5954 19.6463 40.8717 18.735 40.8717 17.3143C40.8717 15.4374 41.9707 13.8556 43.2842 13.8556C43.8743 13.8556 44.3033 14.0969 44.705 14.6331L45.0268 12.6491H46.5016L45.3759 19.5931ZM43.177 18.2522C43.8743 18.2522 44.3565 17.475 44.3565 16.3492C44.3565 15.6519 44.0888 15.2499 43.5793 15.2499C42.9093 15.2499 42.4262 16.0272 42.4262 17.1532C42.4262 17.8773 42.6674 18.2522 43.177 18.2522ZM25.2681 19.4591C24.7588 19.6195 24.2763 19.7003 23.74 19.7003C22.0777 19.7003 21.22 18.8153 21.22 17.18C21.22 15.2232 22.3193 13.8021 23.8206 13.8021C25.0271 13.8021 25.8044 14.6064 25.8044 15.8664C25.8044 16.2687 25.7509 16.671 25.6439 17.2605H22.6948C22.6678 17.341 22.6678 17.3677 22.6678 17.4215C22.6678 18.065 23.0968 18.4133 23.9816 18.4133C24.4911 18.4133 24.9736 18.306 25.5099 18.0648L25.2681 19.4591ZM24.4374 16.1074V15.8127C24.4374 15.3569 24.1958 15.0889 23.7403 15.0889C23.2849 15.0889 22.9361 15.4642 22.8021 16.1074H24.4374ZM9.39707 19.5931H7.92251L8.78028 14.2579L6.8767 19.5931H5.85819L5.75094 14.2846L4.83941 19.5931H3.47211L4.62489 12.6491H6.7427L6.82321 16.9387L8.24428 12.6491H10.5499L9.39707 19.5931ZM13.0699 17.0727C12.9089 17.046 12.8287 17.046 12.7214 17.046C11.8904 17.046 11.4614 17.341 11.4614 17.904C11.4614 18.2525 11.6756 18.4941 11.9974 18.4941C12.6142 18.4941 13.0432 17.904 13.0699 17.0727ZM14.1422 19.5931H12.9089L12.9359 19.003C12.5607 19.4594 12.0779 19.673 11.3809 19.673C10.5766 19.673 10.0403 19.0568 10.0403 18.145C10.0403 16.778 10.9789 15.9734 12.6409 15.9734C12.8017 15.9734 13.0162 15.9734 13.2307 16.0002C13.2842 15.8394 13.2842 15.7592 13.2842 15.6519C13.2842 15.2767 13.0429 15.1424 12.3459 15.1424C11.9169 15.1424 11.4344 15.1959 11.1126 15.3031L10.8981 15.3566L10.7641 15.3834L10.9786 14.1233C11.7291 13.9088 12.2116 13.8283 12.7479 13.8283C14.0347 13.8283 14.705 14.3913 14.705 15.4639C14.705 15.7589 14.6779 15.9731 14.5707 16.5899L14.2759 18.6008L14.2224 18.9493L14.1954 19.2437L14.1687 19.4315L14.1422 19.5931ZM36.448 17.0727C36.2876 17.046 36.2068 17.046 36.0995 17.046C35.2682 17.046 34.8392 17.341 34.8392 17.904C34.8392 18.2525 35.0537 18.4941 35.3755 18.4941C35.9652 18.4941 36.4213 17.904 36.448 17.0727ZM37.5203 19.5931H36.2873L36.314 19.003C35.9385 19.4594 35.4295 19.673 34.7587 19.673C33.9547 19.673 33.3917 19.0568 33.3917 18.145C33.3917 16.778 34.357 15.9734 36.0187 15.9734C36.1792 15.9734 36.3942 15.9734 36.6082 16.0002C36.662 15.8394 36.662 15.7592 36.662 15.6519C36.662 15.2767 36.4207 15.1424 35.7234 15.1424C35.2944 15.1424 34.8122 15.1959 34.4904 15.3031L34.2759 15.3566L34.1419 15.3834L34.3564 14.1233C35.1066 13.9088 35.5894 13.8283 36.1257 13.8283C37.4125 13.8283 38.0827 14.3913 38.0827 15.4639C38.0827 15.7589 38.056 15.9731 37.9487 16.5899L37.6537 18.6008L37.6002 18.9493L37.5465 19.2437L37.5197 19.4315V19.5931H37.5203ZM41.4885 13.9094C41.4612 13.8826 41.408 13.8826 41.3539 13.8826C40.8717 13.8826 40.5767 14.1239 40.1209 14.7942L40.2549 13.9361H38.9146L38.0028 19.5931H39.5041C40.0136 16.1347 40.1747 15.5447 40.8717 15.5447H40.9789C41.1129 14.8744 41.3007 14.3651 41.542 13.9091L41.4885 13.9094Z" fill="white"/>
</svg>
