<svg xmlns="http://www.w3.org/2000/svg" width="24" height="24" viewBox="0 0 24 24" fill="none">
  <path fill-rule="evenodd" clip-rule="evenodd" d="M2.00006 5.19127C1.99911 5.10581 2.01017 5.01993 2.0336 4.9363C2.07089 4.80308 2.13777 4.68221 2.2267 4.58124C2.39329 4.3921 2.63728 4.27277 2.90914 4.27277H21.0902C21.2477 4.27277 21.3965 4.31282 21.5257 4.3833C21.6169 4.43287 21.7007 4.4988 21.7726 4.5804C21.8563 4.67519 21.9205 4.78757 21.959 4.91129C21.9635 4.9256 21.9676 4.94006 21.9713 4.95466C21.9914 5.03235 22.0008 5.11182 21.9999 5.19091V18.8181C21.9999 19.3202 21.5929 19.7272 21.0909 19.7272H2.90914C2.40707 19.7272 2.00006 19.3202 2.00006 18.8181V5.19127ZM3.81823 7.00008V17.9091H20.1818V7.00008L12.5455 12.7273C12.2222 12.9697 11.7778 12.9697 11.4545 12.7273L3.81823 7.00008ZM18.3637 6.09094H5.63633L12 10.8637L18.3637 6.09094Z" fill="white"/>
</svg>