<svg xmlns="http://www.w3.org/2000/svg" width="22" height="22" viewBox="0 0 22 22" fill="none">
  <path fill-rule="evenodd" clip-rule="evenodd" d="M7.56006 8.43549C7.56006 6.45731 9.17732 4.86975 11.1523 4.86975C13.1274 4.86975 14.7446 6.45731 14.7446 8.43549C14.7446 10.0892 13.6144 11.4699 12.0898 11.8784V12.8159C12.0898 13.3337 11.6701 13.7534 11.1523 13.7534C10.6346 13.7534 10.2148 13.3337 10.2148 12.8159V11.0637C10.2148 10.546 10.6346 10.1262 11.1523 10.1262C12.1097 10.1262 12.8696 9.3604 12.8696 8.43549C12.8696 7.51058 12.1097 6.74475 11.1523 6.74475C10.195 6.74475 9.43506 7.51058 9.43506 8.43549C9.43506 8.95326 9.01533 9.37299 8.49756 9.37299C7.97979 9.37299 7.56006 8.95326 7.56006 8.43549Z" fill="white"/>
  <path fill-rule="evenodd" clip-rule="evenodd" d="M11.1615 17.2228C11.8946 17.2228 12.489 16.6285 12.489 15.8954C12.489 15.1623 11.8946 14.568 11.1615 14.568C10.4283 14.568 9.83398 15.1623 9.83398 15.8954C9.83398 16.6285 10.4283 17.2228 11.1615 17.2228Z" fill="white"/>
  <path fill-rule="evenodd" clip-rule="evenodd" d="M3.22183 3.22182C5.21136 1.23232 7.96273 0 11 0C14.0373 0 16.7886 1.23231 18.7782 3.22182L18.0711 3.92893L18.7782 3.22183C20.7677 5.21136 22 7.96273 22 11C22 14.0373 20.7677 16.7886 18.7782 18.7782C16.7886 20.7677 14.0373 22 11 22C7.96273 22 5.21136 20.7677 3.22183 18.7782L3.92893 18.0711L3.22182 18.7782C1.23231 16.7886 0 14.0373 0 11C0 7.96273 1.23232 5.21136 3.22182 3.22183L3.22183 3.22182ZM11 2C8.51447 2 6.26584 3.00626 4.63603 4.63604C3.00625 6.26585 2 8.51447 2 11C2 13.4855 3.00627 15.7342 4.63604 17.3639C6.26584 18.9937 8.51447 20 11 20C13.4855 20 15.7342 18.9937 17.3639 17.3639C18.9937 15.7342 20 13.4855 20 11C20 8.51447 18.9937 6.26584 17.3639 4.63604C15.7342 3.00627 13.4855 2 11 2Z" fill="white"/>
</svg>