<svg xmlns="http://www.w3.org/2000/svg" width="20" height="20" viewBox="0 0 20 20" fill="none">
  <path d="M3.44997 0.524522C2.7913 0.780671 2.23427 1.1222 1.67725 1.67923C1.12023 2.23219 0.778693 2.79328 0.522544 3.44788C0.274526 4.08215 0.107825 4.80995 0.0590349 5.8752C0.0102445 6.94046 -0.00195312 7.28199 -0.00195312 9.99799C-0.00195312 12.714 0.0102445 13.0555 0.0590349 14.1208C0.107825 15.186 0.278592 15.9138 0.522544 16.5481C0.778693 17.2068 1.12023 17.7638 1.67725 18.3208C2.23427 18.8778 2.7913 19.2194 3.44997 19.4755C4.08424 19.7235 4.81203 19.8902 5.87729 19.939C6.94255 19.9878 7.28408 20 10.0001 20C12.7161 20 13.0576 19.9878 14.1229 19.939C15.1881 19.8902 15.9159 19.7195 16.5502 19.4755C17.2089 19.2194 17.7659 18.8778 18.3229 18.3208C18.8799 17.7638 19.2215 17.2068 19.4776 16.5481C19.7256 15.9138 19.8923 15.186 19.9411 14.1208C19.9899 13.0555 20.0021 12.714 20.0021 9.99799C20.0021 7.28199 19.9899 6.94046 19.9411 5.8752C19.8923 4.80995 19.7216 4.08215 19.4776 3.44788C19.2215 2.79328 18.8799 2.23219 18.327 1.67923C17.77 1.1222 17.2129 0.780671 16.5543 0.524522C15.92 0.276504 15.1922 0.109803 14.1269 0.0610128C13.0617 0.0122224 12.7201 2.47955e-05 10.0041 2.47955e-05C7.28815 2.47955e-05 6.94661 0.0122224 5.88136 0.0610128C4.81203 0.105737 4.08424 0.276504 3.44997 0.524522ZM14.0416 1.85813C15.0174 1.90285 15.5459 2.06549 15.8997 2.20372C16.3672 2.38669 16.7006 2.60218 17.0503 2.95184C17.4 3.30151 17.6154 3.63491 17.7984 4.10248C17.9367 4.45621 18.0993 4.98478 18.144 5.96059C18.1928 7.01364 18.2009 7.33078 18.2009 10.0021C18.2009 12.6733 18.1887 12.9905 18.144 14.0435C18.0993 15.0193 17.9367 15.5479 17.7984 15.9016C17.6154 16.3692 17.4 16.7026 17.0503 17.0523C16.7006 17.4019 16.3672 17.6174 15.8997 17.8004C15.5459 17.9386 15.0174 18.1013 14.0416 18.146C12.9885 18.1948 12.6714 18.2029 10.0001 18.2029C7.32881 18.2029 7.01167 18.1907 5.95861 18.146C4.9828 18.1013 4.45424 17.9386 4.10051 17.8004C3.63293 17.6174 3.29953 17.4019 2.94987 17.0523C2.6002 16.7026 2.38471 16.3692 2.20175 15.9016C2.06351 15.5479 1.90087 15.0193 1.85615 14.0435C1.80736 12.9905 1.79923 12.6733 1.79923 10.0021C1.79923 7.33078 1.81142 7.01364 1.85615 5.96059C1.90087 4.98478 2.06351 4.45621 2.20175 4.10248C2.38471 3.63491 2.6002 3.30151 2.94987 2.95184C3.29953 2.60218 3.63293 2.38669 4.10051 2.20372C4.45424 2.06549 4.9828 1.90285 5.95861 1.85813C7.01167 1.80934 7.32881 1.8012 10.0001 1.8012C12.6714 1.8012 12.9885 1.80934 14.0416 1.85813Z" fill="white"/>
  <path d="M4.86499 10.0021C4.86499 12.8401 7.16627 15.1373 10.0002 15.1373C12.8341 15.1373 15.1354 12.836 15.1354 10.0021C15.1354 7.16817 12.8382 4.86689 10.0002 4.86689C7.16221 4.86689 4.86499 7.1641 4.86499 10.0021ZM13.3342 10.0021C13.3342 11.8439 11.842 13.3361 10.0002 13.3361C8.15834 13.3361 6.66617 11.8439 6.66617 10.0021C6.66617 8.16024 8.15834 6.66807 10.0002 6.66807C11.842 6.66807 13.3342 8.16024 13.3342 10.0021Z" fill="white"/>
  <path d="M15.3425 5.86303C16.0049 5.86303 16.5419 5.32602 16.5419 4.6636C16.5419 4.00117 16.0049 3.46416 15.3425 3.46416C14.6801 3.46416 14.1431 4.00117 14.1431 4.6636C14.1431 5.32602 14.6801 5.86303 15.3425 5.86303Z" fill="white"/>
</svg>