<svg xmlns="http://www.w3.org/2000/svg" width="50" height="32" viewBox="0 0 50 32" fill="none">
  <rect width="50" height="32" fill="#1B3771"/>
  <path fill-rule="evenodd" clip-rule="evenodd" d="M25.0003 26.1338C27.4128 28.3327 30.6569 29.6727 34.1694 29.6727C41.7296 29.6727 47.8421 23.56 47.8421 15.9994C47.8421 8.46619 41.7299 2.32672 34.1694 2.32672C30.6569 2.32672 27.4131 3.66728 25.0003 5.86559C22.2386 8.3854 20.4961 11.978 20.4961 15.9994C20.4961 20.0217 22.2386 23.6408 25.0003 26.1338Z" fill="#E9B040"/>
  <path fill-rule="evenodd" clip-rule="evenodd" d="M46.0191 23.614C46.0191 23.3728 46.2063 23.185 46.4748 23.185C46.7161 23.185 46.9038 23.3728 46.9038 23.614C46.9038 23.8553 46.7161 24.0698 46.4748 24.0698C46.4148 24.0703 46.3554 24.0588 46.2998 24.0361C46.2443 24.0134 46.1939 23.9798 46.1515 23.9374C46.109 23.895 46.0755 23.8445 46.0527 23.789C46.03 23.7335 46.0186 23.674 46.0191 23.614ZM46.4748 23.9622C46.6353 23.9622 46.7966 23.8018 46.7966 23.6137C46.7966 23.4257 46.6356 23.292 46.4748 23.292C46.2871 23.292 46.1263 23.426 46.1263 23.6137C46.1263 23.8015 46.2871 23.9622 46.4748 23.9622ZM46.3943 23.8285H46.3138V23.4263H46.4748C46.5016 23.4263 46.5553 23.4263 46.5821 23.453C46.6088 23.4803 46.6356 23.5068 46.6356 23.5335C46.6356 23.5873 46.6088 23.6408 46.5556 23.6408L46.6356 23.8285H46.5283L46.4748 23.6675H46.3943V23.8285ZM46.3943 23.5873H46.5016C46.5283 23.5873 46.5283 23.56 46.5283 23.5335C46.5283 23.5335 46.5283 23.5068 46.5016 23.5068H46.3943V23.5873Z" fill="#E9B040"/>
  <path fill-rule="evenodd" clip-rule="evenodd" d="M29.4237 14.5522C29.3694 14.0657 29.2889 13.5825 29.1825 13.1047H20.8179C20.927 12.6154 21.0612 12.1322 21.2202 11.6569H28.7805C28.6161 11.1655 28.4282 10.6823 28.2174 10.209H21.7829C22.0304 9.71524 22.2987 9.2322 22.5872 8.76123H27.4129C27.1133 8.24529 26.7631 7.7604 26.3676 7.3137H23.6327C24.035 6.80417 24.5175 6.32166 25 5.86618C22.5872 3.66757 19.3698 2.3273 15.8309 2.3273C8.27069 2.3273 2.15796 8.46677 2.15796 16C2.15796 23.5603 8.27069 29.6733 15.8309 29.6733C19.3698 29.6733 22.5869 28.333 25 26.1344C25.4823 25.6786 25.9653 25.1964 26.3941 24.6869H23.6325C23.2541 24.2267 22.9049 23.7432 22.5869 23.2393H27.4129C27.7125 22.7748 27.9813 22.2911 28.2174 21.7912H21.7829C21.5631 21.3219 21.375 20.8383 21.2199 20.3437H28.7802C28.9389 19.8682 29.0731 19.3849 29.1825 18.8956C29.2897 18.4134 29.3696 17.9303 29.4237 17.4481C29.531 16.4858 29.531 15.5145 29.4237 14.5522Z" fill="#CC2131"/>
  <path fill-rule="evenodd" clip-rule="evenodd" d="M46.0191 19.1636C46.0191 18.9224 46.2063 18.7346 46.4748 18.7346C46.7161 18.7346 46.9039 18.9224 46.9039 19.1636C46.9039 19.4049 46.7161 19.6194 46.4748 19.6194C46.4148 19.6199 46.3553 19.6085 46.2998 19.5858C46.2443 19.5631 46.1938 19.5295 46.1514 19.4871C46.1089 19.4447 46.0754 19.3942 46.0527 19.3387C46.03 19.2831 46.0185 19.2236 46.0191 19.1636ZM46.4748 19.5122C46.6353 19.5122 46.7966 19.3511 46.7966 19.1636C46.7966 18.9759 46.6356 18.8419 46.4748 18.8419C46.2871 18.8419 46.1263 18.9759 46.1263 19.1636C46.1263 19.3508 46.2871 19.5122 46.4748 19.5122ZM46.3943 19.3782H46.3138V18.9759H46.4748C46.5016 18.9759 46.5553 18.9759 46.5821 19.0026C46.6088 19.0299 46.6356 19.0564 46.6356 19.0831C46.6356 19.1369 46.6088 19.1904 46.5556 19.1904L46.6356 19.3782H46.5283L46.4748 19.2171H46.3943V19.3782ZM46.3943 19.1372H46.5016C46.5283 19.1372 46.5283 19.1099 46.5283 19.0834C46.5283 19.0834 46.5283 19.0567 46.5016 19.0567H46.3943V19.1372Z" fill="white"/>
  <path fill-rule="evenodd" clip-rule="evenodd" d="M20.3621 19.9411C19.9063 20.0751 19.5846 20.1289 19.236 20.1289C18.539 20.1289 18.11 19.6999 18.11 18.8953C18.11 18.7349 18.1367 18.5736 18.1635 18.3864L18.2437 17.8501L18.3242 17.3937L18.9678 13.5334H20.3885L20.2278 14.3912H21.1126L20.8981 15.8122H20.0136L19.6113 18.1178C19.6113 18.1983 19.5846 18.2783 19.5846 18.3323C19.5846 18.6273 19.7453 18.7613 20.0941 18.7613C20.2819 18.7613 20.3891 18.7346 20.5499 18.7076L20.3621 19.9411ZM24.9465 19.8871C24.4525 20.0458 23.937 20.1273 23.4182 20.1289C21.8364 20.1289 20.8981 19.2709 20.8981 17.6085C20.8981 15.6785 21.9974 14.2307 23.4987 14.2307C24.7052 14.2307 25.4825 15.035 25.4825 16.295C25.4825 16.6973 25.429 17.0996 25.2953 17.6891H22.3459V17.8501C22.3459 18.5201 22.7749 18.8418 23.6327 18.8418C24.169 18.8418 24.6515 18.7346 25.1877 18.4933L24.9465 19.8871ZM24.0617 16.536V16.2683C24.0617 15.8125 23.7937 15.5445 23.3647 15.5445C22.8822 15.5445 22.5604 15.893 22.4264 16.5363L24.0617 16.536ZM9.02141 20.0217H7.54686L8.40491 14.6865L6.50133 20.0217H5.48283L5.37557 14.7132L4.46375 20.0217H3.04297L4.19576 13.0776H6.31356L6.39436 17.3673L7.81514 13.0776H10.1745L9.02141 20.0217ZM12.5873 17.5013C12.4266 17.5013 12.3995 17.4745 12.2923 17.4745C11.4613 17.4745 11.0322 17.7963 11.0322 18.3326C11.0322 18.7076 11.2465 18.9226 11.5682 18.9226C12.2923 18.9226 12.5603 18.3323 12.5873 17.5013ZM13.7668 20.0217H12.4801L12.5068 19.4316C12.185 19.8874 11.756 20.1289 10.9517 20.1289C10.228 20.1289 9.63821 19.4854 9.63821 18.5736C9.63821 18.3058 9.69169 18.0646 9.74518 17.8501C9.98643 16.965 10.8712 16.4287 12.2118 16.402C12.3725 16.402 12.6408 16.402 12.855 16.4287C12.9085 16.2415 12.9085 16.161 12.9085 16.0538C12.9085 15.6785 12.6138 15.5713 11.9168 15.5713C11.4877 15.5713 11.0322 15.6518 10.6835 15.732L10.496 15.8125H10.3887L10.6032 14.5525C11.3002 14.3379 11.7828 14.2574 12.319 14.2574C13.6058 14.2574 14.2761 14.8205 14.2761 15.9198C14.2761 16.1875 14.3028 16.402 14.1956 17.0188L13.9008 19.0296L13.8474 19.3781L13.7939 19.6726V19.8603L13.7668 20.0217ZM32.078 14.4452C32.4797 14.4452 32.8553 14.5522 33.3915 14.8205L33.6328 13.2921C33.4988 13.2386 33.4718 13.2386 33.2843 13.1581L32.6675 13.0241C32.4797 12.9707 32.2652 12.9439 31.9975 12.9439C31.2734 12.9439 30.8444 12.9439 30.3889 13.2386C30.1477 13.3726 29.8527 13.5872 29.5044 13.9627L29.3434 13.9089L27.8154 14.9815L27.8959 14.3917H26.3138L25.4293 20.0219H26.9041L27.4404 16.9926C27.4404 16.9926 27.6549 16.5636 27.7622 16.4293C28.0299 16.0808 28.2711 16.0808 28.5662 16.0808H28.6734C28.6467 16.4026 28.6196 16.7781 28.6196 17.1533C28.6196 19.0032 29.6655 20.1562 31.274 20.1562C31.6763 20.1562 32.0248 20.1025 32.5608 19.9417L32.8285 18.3596C32.3463 18.6014 31.944 18.7081 31.5688 18.7081C30.7107 18.7081 30.2012 18.0919 30.2012 17.0193C30.2012 15.5175 30.9517 14.4452 32.078 14.4452ZM44.5976 13.0776L44.2759 15.0617C43.9274 14.5254 43.4986 14.2842 42.9356 14.2842C42.1583 14.2842 41.4343 14.7132 40.9785 15.5442L40.04 14.9812L40.1205 14.3914H38.5384L37.6271 20.0217H39.1284L39.6107 16.9923C39.6107 16.9923 39.9862 16.5633 40.0935 16.429C40.308 16.1613 40.5492 16.0805 40.737 16.0805C40.5589 16.6167 40.4684 17.1781 40.4687 17.7431C40.4687 19.1639 41.2195 20.1019 42.2918 20.1019C42.8281 20.1019 43.2571 19.9147 43.6594 19.4589L43.5788 20.0219H44.9996L46.126 13.0779L44.5976 13.0776ZM42.8019 18.6808C42.2923 18.6808 42.0511 18.3323 42.0511 17.5818C42.0511 16.4828 42.5069 15.6785 43.2036 15.6785C43.7131 15.6785 43.9814 16.0805 43.9814 16.8045C43.9814 17.9036 43.4986 18.6808 42.8019 18.6808ZM35.9651 17.5013C35.8046 17.5013 35.7779 17.4745 35.6707 17.4745C34.8393 17.4745 34.4103 17.7963 34.4103 18.3326C34.4103 18.7076 34.6248 18.9226 34.9466 18.9226C35.6704 18.9226 35.9384 18.3323 35.9651 17.5013ZM37.1446 20.0217H35.8584L35.8852 19.4316C35.5634 19.8874 35.1344 20.1289 34.3298 20.1289C33.6063 20.1289 32.9628 19.5121 32.9628 18.5736C32.9895 17.2333 33.9813 16.402 35.5899 16.402C35.7509 16.402 36.0189 16.402 36.2334 16.4287C36.2872 16.2415 36.2872 16.161 36.2872 16.0538C36.2872 15.6785 35.9921 15.5713 35.2948 15.5713C34.8658 15.5713 34.3836 15.6518 34.0618 15.732L33.8473 15.8125H33.7668L33.9813 14.5525C34.6786 14.3379 35.1608 14.2574 35.6971 14.2574C36.9839 14.2574 37.6542 14.8205 37.6542 15.9198C37.6542 16.1875 37.6809 16.402 37.5737 17.0188L37.2792 19.0296L37.2254 19.3781L37.1719 19.6726L37.1446 19.8603V20.0217ZM16.85 15.598C17.145 15.598 17.547 15.6247 17.976 15.6785L18.1905 14.3647C17.7615 14.3112 17.1987 14.2574 16.8502 14.2574C15.2147 14.2574 14.6519 15.1422 14.6519 16.1878C14.6519 16.8578 14.9734 17.3673 15.7509 17.7158C16.3674 18.0108 16.4747 18.0649 16.4747 18.3058C16.4747 18.6544 16.1529 18.8689 15.5632 18.8689C15.1344 18.8689 14.7321 18.7884 14.2494 18.6544L14.0886 19.9411H14.1156L14.3836 19.9949C14.4639 20.0217 14.5981 20.0484 14.7589 20.0484C15.1341 20.1019 15.4289 20.1019 15.6167 20.1019C17.2522 20.1019 17.9493 19.4857 17.9493 18.2253C17.9493 17.4481 17.574 16.9923 16.8232 16.6706C16.2067 16.3755 16.1262 16.3488 16.1262 16.0805C16.1262 15.8125 16.3942 15.598 16.85 15.598Z" fill="#1B3771"/>
  <path fill-rule="evenodd" clip-rule="evenodd" d="M34.0352 12.8634L33.7934 14.3647C33.2571 14.0967 32.8822 13.9894 32.4799 13.9894C31.3541 13.9894 30.5769 15.062 30.5769 16.59C30.5769 17.6359 31.1132 18.2788 31.9704 18.2788C32.3459 18.2788 32.7482 18.1721 33.2307 17.9303L32.963 19.5124C32.4267 19.6464 32.0785 19.7002 31.6494 19.7002C30.0674 19.7002 29.0756 18.5738 29.0756 16.724C29.0756 14.2307 30.4426 12.5152 32.3997 12.5152C32.6679 12.5152 32.8825 12.5419 33.0702 12.5687L33.6865 12.7294C33.8742 12.8096 33.901 12.8096 34.0352 12.8634ZM29.2901 13.9089C29.2363 13.8822 29.1828 13.8822 29.1291 13.8822C28.6469 13.8822 28.3783 14.1234 27.9228 14.7937L28.0568 13.9357H26.6898L25.8047 19.5926H27.2796C27.8158 16.1343 27.9495 15.5442 28.6736 15.5442H28.7808C28.9148 14.8739 29.0759 14.3647 29.3439 13.9086L29.2901 13.9089ZM20.7375 19.5121C20.3352 19.6461 20.0138 19.6999 19.665 19.6999C18.9142 19.6999 18.4854 19.2709 18.4854 18.4663C18.4854 18.3058 18.5122 18.1445 18.5389 17.9573L18.6191 17.394L18.6997 16.965L19.3432 13.1046H20.8177L20.657 13.9357H21.4078L21.1933 15.3297H20.4428L20.0405 17.6623C20.0405 17.7696 20.0138 17.8501 20.0138 17.9036C20.0138 18.1986 20.1745 18.3326 20.5233 18.3326C20.7111 18.3326 20.8183 18.3058 20.9256 18.2788L20.7375 19.5121ZM15.0271 15.732C15.0271 16.4287 15.3756 16.9383 16.1531 17.2868C16.7696 17.5818 16.8501 17.6623 16.8501 17.9303C16.8501 18.2788 16.5821 18.4398 15.9921 18.4398C15.5631 18.4398 15.1611 18.3593 14.6783 18.1986L14.4638 19.5121H14.5443L14.8126 19.5659C14.9342 19.6028 15.0607 19.6208 15.1878 19.6194C15.5363 19.6461 15.8313 19.6729 16.0188 19.6729C17.5739 19.6729 18.2977 19.0834 18.2977 17.7963C18.2977 17.0191 18.0029 16.5633 17.2521 16.2142C16.6353 15.9465 16.5551 15.866 16.5551 15.6247C16.5551 15.303 16.7964 15.1422 17.2789 15.1422C17.5739 15.1422 17.9759 15.1957 18.3511 15.2495L18.5657 13.9357C18.1904 13.8822 17.6004 13.8284 17.2521 13.8284C15.5901 13.8284 15.0271 14.6865 15.0271 15.732ZM45.3759 19.5926H43.9551L44.0351 19.0296C43.6328 19.4586 43.2038 19.6458 42.6675 19.6458C41.5955 19.6458 40.8717 18.7346 40.8717 17.3138C40.8717 15.437 41.9708 13.8552 43.2843 13.8552C43.8743 13.8552 44.3034 14.0964 44.7051 14.6327L45.0268 12.6486H46.5017L45.3759 19.5926ZM43.177 18.2518C43.8743 18.2518 44.3566 17.4745 44.3566 16.3488C44.3566 15.6515 44.0889 15.2495 43.5793 15.2495C42.9093 15.2495 42.4262 16.0267 42.4262 17.1528C42.4262 17.8768 42.6675 18.2518 43.177 18.2518ZM25.2682 19.4586C24.7589 19.6191 24.2764 19.6999 23.7401 19.6999C22.0778 19.6999 21.22 18.8148 21.22 17.1795C21.22 15.2227 22.3193 13.8017 23.8206 13.8017C25.0272 13.8017 25.8044 14.6059 25.8044 15.866C25.8044 16.2683 25.7509 16.6705 25.644 17.26H22.6949C22.6678 17.3405 22.6678 17.3673 22.6678 17.4211C22.6678 18.0646 23.0969 18.4128 23.9816 18.4128C24.4912 18.4128 24.9737 18.3056 25.51 18.0643L25.2682 19.4586ZM24.4374 16.107V15.8122C24.4374 15.3565 24.1959 15.0885 23.7404 15.0885C23.2849 15.0885 22.9361 15.4637 22.8021 16.107H24.4374ZM9.39713 19.5926H7.92257L8.78034 14.2574L6.87676 19.5926H5.85825L5.751 14.2842L4.83947 19.5926H3.47217L4.62495 12.6486H6.74276L6.82327 16.9383L8.24434 12.6486H10.5499L9.39713 19.5926ZM13.07 17.0723C12.909 17.0455 12.8287 17.0455 12.7215 17.0455C11.8905 17.0455 11.4614 17.3405 11.4614 17.9036C11.4614 18.2521 11.6757 18.4936 11.9974 18.4936C12.6142 18.4936 13.0433 17.9036 13.07 17.0723ZM14.1423 19.5926H12.909L12.936 19.0026C12.5608 19.4589 12.078 19.6726 11.3809 19.6726C10.5767 19.6726 10.0404 19.0564 10.0404 18.1445C10.0404 16.7775 10.9789 15.973 12.641 15.973C12.8017 15.973 13.0162 15.973 13.2307 15.9997C13.2842 15.839 13.2842 15.7587 13.2842 15.6515C13.2842 15.2762 13.043 15.1419 12.346 15.1419C11.9169 15.1419 11.4344 15.1954 11.1127 15.3027L10.8981 15.3562L10.7641 15.3829L10.9787 14.1229C11.7292 13.9084 12.2117 13.8278 12.7479 13.8278C14.0347 13.8278 14.705 14.3909 14.705 15.4634C14.705 15.7584 14.678 15.9727 14.5707 16.5895L14.276 18.6003L14.2225 18.9488L14.1955 19.2433L14.1687 19.431L14.1423 19.5926ZM36.4481 17.0723C36.2876 17.0455 36.2068 17.0455 36.0996 17.0455C35.2683 17.0455 34.8392 17.3405 34.8392 17.9036C34.8392 18.2521 35.0538 18.4936 35.3755 18.4936C35.9653 18.4936 36.4213 17.9036 36.4481 17.0723ZM37.5204 19.5926H36.2873L36.3141 19.0026C35.9385 19.4589 35.4296 19.6726 34.7587 19.6726C33.9547 19.6726 33.3917 19.0564 33.3917 18.1445C33.3917 16.7775 34.357 15.973 36.0188 15.973C36.1792 15.973 36.3943 15.973 36.6082 15.9997C36.662 15.839 36.662 15.7587 36.662 15.6515C36.662 15.2762 36.4208 15.1419 35.7235 15.1419C35.2944 15.1419 34.8122 15.1954 34.4904 15.3027L34.2759 15.3562L34.1419 15.3829L34.3564 14.1229C35.1067 13.9084 35.5895 13.8278 36.1257 13.8278C37.4125 13.8278 38.0828 14.3909 38.0828 15.4634C38.0828 15.7584 38.0561 15.9727 37.9488 16.5895L37.6538 18.6003L37.6003 18.9488L37.5465 19.2433L37.5198 19.431V19.5926H37.5204ZM41.4885 13.9089C41.4612 13.8822 41.408 13.8822 41.354 13.8822C40.8717 13.8822 40.5767 14.1234 40.121 14.7937L40.255 13.9357H38.9147L38.0029 19.5926H39.5042C40.0137 16.1343 40.1747 15.5442 40.8717 15.5442H40.979C41.113 14.8739 41.3008 14.3647 41.542 13.9086L41.4885 13.9089Z" fill="white"/>
</svg>