<svg xmlns="http://www.w3.org/2000/svg" width="24" height="24" viewBox="0 0 24 24" fill="none">
  <path d="M12 12.5C12.5523 12.5 13 12.0523 13 11.5V7C13 6.44772 12.5523 6 12 6C11.4477 6 11 6.44772 11 7V11.5C11 12.0523 11.4477 12.5 12 12.5Z" fill="url(#paint0_linear_12989_76220)"/>
  <path d="M13 15C13 15.5523 12.5523 16 12 16C11.4477 16 11 15.5523 11 15V14.5C11 13.9477 11.4477 13.5 12 13.5C12.5523 13.5 13 13.9477 13 14.5V15Z" fill="url(#paint1_linear_12989_76220)"/>
  <path fill-rule="evenodd" clip-rule="evenodd" d="M1 3C1 2.44772 1.44772 2 2 2H22C22.5523 2 23 2.44772 23 3V18C23 18.5523 22.5523 19 22 19H14.9142L12.7071 21.2071C12.3166 21.5976 11.6834 21.5976 11.2929 21.2071L9.08579 19H2C1.44772 19 1 18.5523 1 18V3ZM3 4V17H9.5C9.76522 17 10.0196 17.1054 10.2071 17.2929L12 19.0858L13.7929 17.2929C13.9804 17.1054 14.2348 17 14.5 17H21V4H3Z" fill="url(#paint2_linear_12989_76220)"/>
  <defs>
    <linearGradient id="paint0_linear_12989_76220" x1="12" y1="2" x2="12" y2="21.5" gradientUnits="userSpaceOnUse">
      <stop stop-color="#FF0000"/>
      <stop offset="1" stop-color="#FF7201"/>
    </linearGradient>
    <linearGradient id="paint1_linear_12989_76220" x1="12" y1="2" x2="12" y2="21.5" gradientUnits="userSpaceOnUse">
      <stop stop-color="#FF0000"/>
      <stop offset="1" stop-color="#FF7201"/>
    </linearGradient>
    <linearGradient id="paint2_linear_12989_76220" x1="12" y1="2" x2="12" y2="21.5" gradientUnits="userSpaceOnUse">
      <stop stop-color="#FF0000"/>
      <stop offset="1" stop-color="#FF7201"/>
    </linearGradient>
  </defs>
</svg>