<svg xmlns="http://www.w3.org/2000/svg" width="24" height="24" viewBox="0 0 24 24" fill="none">
  <path fill-rule="evenodd" clip-rule="evenodd" d="M9 1C4.58174 1 1 4.58174 1 9C1 13.4183 4.58174 17 9 17C10.8487 17 12.551 16.3729 13.9056 15.3199L20.1464 21.5606C20.5369 21.9511 21.1701 21.9511 21.5606 21.5606C21.9511 21.1701 21.9511 20.5369 21.5606 20.1464L15.3199 13.9056C16.3729 12.551 17 10.8487 17 9C17 4.58174 13.4183 1 9 1ZM3 9C3 5.68631 5.68631 3 9 3C12.3137 3 15 5.68631 15 9C15 12.3137 12.3137 15 9 15C5.68631 15 3 12.3137 3 9Z" fill="#D7D3D0"/>
</svg>