<svg xmlns="http://www.w3.org/2000/svg" width="50" height="32" viewBox="0 0 50 32" fill="none">
  <rect width="50" height="32" fill="#0E4595"/>
  <path d="M18.7946 22.2626L20.9331 9.71387H24.3536L22.2136 22.2626H18.7946ZM34.5709 9.98439C33.8933 9.73016 32.8313 9.45734 31.5054 9.45734C28.1256 9.45734 25.7448 11.1593 25.7246 13.5986C25.7054 15.4018 27.4242 16.4077 28.7215 17.0079C30.053 17.623 30.5005 18.0152 30.4942 18.5645C30.4858 19.4056 29.431 19.7899 28.4479 19.7899C27.0789 19.7899 26.3516 19.5997 25.2282 19.1312L24.7875 18.9318L24.3074 21.741C25.1063 22.0912 26.5837 22.3947 28.1175 22.4104C31.7131 22.4104 34.047 20.728 34.0737 18.1231C34.0865 16.6956 33.1752 15.6093 31.2018 14.7136C30.0063 14.1332 29.2741 13.7457 29.2819 13.158C29.2819 12.6364 29.9016 12.0786 31.2407 12.0786C32.3592 12.0612 33.1695 12.3052 33.8008 12.5593L34.1073 12.7042L34.5709 9.98439ZM43.3728 9.71368H40.7297C39.9109 9.71368 39.2982 9.93721 38.9386 10.7543L33.8589 22.2543H37.4506C37.4506 22.2543 38.0378 20.708 38.1706 20.3686C38.5632 20.3686 42.0523 20.3739 42.5513 20.3739C42.6536 20.8132 42.9673 22.2543 42.9673 22.2543H46.1413L43.3728 9.7133V9.71368ZM39.1793 17.8169C39.4622 17.0939 40.5422 14.309 40.5422 14.309C40.5219 14.3425 40.8229 13.5825 40.9956 13.1113L41.2267 14.1933C41.2267 14.1933 41.8818 17.1887 42.0186 17.8169H39.1793ZM15.8909 9.71368L12.5422 18.2714L12.1853 16.5323C11.5619 14.5276 9.61959 12.3557 7.44824 11.2683L10.5102 22.2427L14.1291 22.2386L19.514 9.71355H15.8909" fill="white"/>
  <path d="M9.41775 9.71324H3.9023L3.85864 9.97433C8.14954 11.013 10.9888 13.5232 12.1676 16.5391L10.9683 10.7724C10.7612 9.97785 10.1608 9.74074 9.41787 9.71298" fill="#F2AE14"/>
</svg>