<svg width="30" height="30" viewBox="0 0 30 30" fill="none" xmlns="http://www.w3.org/2000/svg">
<path fill-rule="evenodd" clip-rule="evenodd" d="M12 0C8.556 0 6.02267 0.114667 4.29333 0.238C2.09333 0.395333 0.395333 2.09267 0.238 4.294C0.114667 6.02267 0 8.556 0 12C0 15.444 0.114667 17.9773 0.238 19.7067C0.391333 21.8493 2.00467 23.5153 4.12133 23.7467C4.03705 21.8323 3.99659 19.9162 4 18C4 14.5113 4.116 11.9307 4.24333 10.1513C4.47133 6.958 6.958 4.47133 10.1513 4.24333C11.9307 4.11667 14.5113 4 18 4C20.3 4 22.2047 4.05067 23.7467 4.12133C23.5153 2.00467 21.8493 0.391333 19.7067 0.238C17.9773 0.114667 15.444 0 12 0ZM18 6C14.556 6 12.0227 6.11467 10.2933 6.238C8.09333 6.39533 6.39533 8.09267 6.238 10.294C6.11467 12.0227 6 14.556 6 18C6 21.444 6.11467 23.9773 6.238 25.7067C6.39533 27.9067 8.09267 29.6047 10.294 29.762C12.0227 29.8853 14.556 30 18 30C21.444 30 23.9773 29.8853 25.7067 29.762C27.9067 29.6047 29.6047 27.9073 29.762 25.706C29.8853 23.9773 30 21.444 30 18C30 14.556 29.8853 12.0227 29.762 10.2933C29.6047 8.09333 27.9073 6.39533 25.706 6.238C23.9773 6.11467 21.444 6 18 6ZM20.6667 12.6667C20.6667 11.9594 20.9476 11.2811 21.4477 10.781C21.9478 10.281 22.6261 10 23.3333 10C24.0406 10 24.7189 10.281 25.219 10.781C25.719 11.2811 26 11.9594 26 12.6667C26 13.3739 25.719 14.0522 25.219 14.5523C24.7189 15.0524 24.0406 15.3333 23.3333 15.3333C22.6261 15.3333 21.9478 15.0524 21.4477 14.5523C20.9476 14.0522 20.6667 13.3739 20.6667 12.6667ZM27.9447 21.9267C27.2356 21.2791 26.5103 20.6495 25.7693 20.0387C24.774 19.224 23.438 19.0953 22.3453 19.824C21.636 20.2973 20.684 21.0007 19.4593 22.038C17.5987 20.2667 16.2993 19.1353 15.4327 18.426C14.4367 17.612 13.1007 17.4827 12.008 18.2113C11.1027 18.8153 9.79933 19.796 8.04 21.3687C8.084 23.11 8.15733 24.4993 8.23333 25.564C8.32 26.7727 9.228 27.6807 10.4367 27.7667C12.1147 27.8867 14.6 28 18 28C21.4 28 23.8853 27.8867 25.564 27.7667C26.7727 27.68 27.6807 26.7727 27.7667 25.564C27.8347 24.6153 27.9 23.4093 27.9447 21.9267Z" fill="#344054"/>
</svg>
