<svg width="50" height="32" viewBox="0 0 50 32" fill="none" xmlns="http://www.w3.org/2000/svg">
<rect width="50" height="32" fill="#0E4595"/>
<path d="M18.7947 22.2623L20.9332 9.71357H24.3537L22.2136 22.2623H18.7947ZM34.5709 9.98408C33.8934 9.72985 32.8314 9.45703 31.5054 9.45703C28.1256 9.45703 25.7448 11.159 25.7247 13.5982C25.7055 15.4015 27.4243 16.4074 28.7216 17.0076C30.053 17.6227 30.5005 18.0149 30.4943 18.5642C30.4859 19.4053 29.4311 19.7896 28.448 19.7896C27.0789 19.7896 26.3516 19.5994 25.2283 19.1309L24.7875 18.9315L24.3075 21.7407C25.1064 22.0909 26.5838 22.3944 28.1176 22.4101C31.7131 22.4101 34.0471 20.7277 34.0738 18.1228C34.0865 16.6953 33.1753 15.609 31.2019 14.7133C30.0064 14.1329 29.2742 13.7454 29.282 13.1577C29.282 12.6361 29.9017 12.0782 31.2407 12.0782C32.3593 12.0609 33.1696 12.3049 33.8009 12.559L34.1073 12.7039L34.5709 9.98408ZM43.3729 9.71338H40.7298C39.911 9.71338 39.2982 9.9369 38.9387 10.754L33.8589 22.254H37.4507C37.4507 22.254 38.0379 20.7077 38.1707 20.3683C38.5633 20.3683 42.0524 20.3736 42.5513 20.3736C42.6536 20.8129 42.9673 22.254 42.9673 22.254H46.1413L43.3729 9.71299V9.71338ZM39.1794 17.8166C39.4622 17.0936 40.5422 14.3087 40.5422 14.3087C40.522 14.3422 40.8229 13.5822 40.9957 13.111L41.2268 14.193C41.2268 14.193 41.8818 17.1884 42.0187 17.8166H39.1794ZM15.8909 9.71338L12.5422 18.2711L12.1854 16.532C11.562 14.5273 9.61965 12.3554 7.4483 11.268L10.5102 22.2424L14.1292 22.2383L19.5141 9.71325H15.8909" fill="white"/>
<path d="M9.41781 9.71315H3.90236L3.8587 9.97424C8.1496 11.013 10.9888 13.5231 12.1677 16.539L10.9683 10.7723C10.7613 9.97776 10.1608 9.74065 9.41793 9.71289" fill="#F2AE14"/>
</svg>
