<svg xmlns="http://www.w3.org/2000/svg" width="24" height="24" viewBox="0 0 24 24" fill="none">
  <g opacity="0.8" filter="url(#filter0_b_163_50944)">
    <rect width="24" height="24" rx="12" fill="#FCE40D"/>
    <path fill-rule="evenodd" clip-rule="evenodd" d="M17.2594 0H6.73755C3.01506 0 0 3.01776 0 6.73977V17.2602C0 20.9822 3.01506 24 6.73755 24H17.2594C20.9818 24 24 20.9822 24 17.2602V6.73977C24 3.01776 20.9818 0 17.2594 0ZM15.2761 18.1653L10.0708 18.7398C9.039 18.8541 8.27288 17.807 8.68992 16.8587L9.697 14.5637C10.009 13.8533 9.63522 13.0378 9.039 12.5405C8.23581 11.8734 7.67975 10.9035 7.55618 9.78224C7.30287 7.47799 8.96177 5.40849 11.2632 5.15521C13.5647 4.90193 15.6375 6.56062 15.8908 8.86178C16.0175 10.0077 15.6684 11.095 15.0042 11.929C14.5162 12.5467 14.3154 13.4425 14.7818 14.0757L16.2152 16.0278C16.83 16.8649 16.3079 18.0541 15.2761 18.1653Z" fill="#FB5BA2"/>
  </g>
  <defs>
    <filter id="filter0_b_163_50944" x="-100" y="-100" width="224" height="224" filterUnits="userSpaceOnUse" color-interpolation-filters="sRGB">
      <feFlood flood-opacity="0" result="BackgroundImageFix"/>
      <feGaussianBlur in="BackgroundImageFix" stdDeviation="50"/>
      <feComposite in2="SourceAlpha" operator="in" result="effect1_backgroundBlur_163_50944"/>
      <feBlend mode="normal" in="SourceGraphic" in2="effect1_backgroundBlur_163_50944" result="shape"/>
    </filter>
  </defs>
</svg>