<svg width="115" height="102" viewBox="0 0 115 102" fill="none" xmlns="http://www.w3.org/2000/svg">
<g filter="url(#filter0_d_11259_23281)">
<path d="M25.6701 8.3825C26.4941 6.95529 27.5488 5.8645 28.8342 5.11013C30.1415 4.3499 31.5293 3.97802 32.9979 3.99449C34.4882 4.00509 35.9262 4.41039 37.3119 5.21039C38.9331 6.14639 40.1133 7.38209 40.8527 8.91747C41.5921 10.4529 41.7802 12.0949 41.4172 13.8437L38.0709 11.9117C38.1383 11.0269 37.9672 10.2353 37.5575 9.53687C37.1617 8.84646 36.5689 8.27325 35.7791 7.81725C34.9338 7.32925 34.0627 7.09417 33.1656 7.11201C32.2903 7.12399 31.4576 7.38224 30.6675 7.88678C29.8912 8.39931 29.2231 9.14055 28.6631 10.1105C28.1111 11.0666 27.8032 12.0158 27.7395 12.9582C27.6976 13.8948 27.8863 14.7519 28.3056 15.5298C28.7467 16.3018 29.3898 16.9317 30.2351 17.4197C31.0249 17.8757 31.8177 18.1025 32.6135 18.1001C33.4312 18.0919 34.2063 17.8373 34.9389 17.3365L38.2852 19.2685C36.9442 20.4711 35.4241 21.1361 33.7247 21.2635C32.0472 21.3851 30.3909 20.9738 28.7559 20.0298C27.3702 19.2298 26.2962 18.1941 25.5339 16.9225C24.7933 15.6451 24.4215 14.2572 24.4182 12.7589C24.4288 11.2685 24.8461 9.80971 25.6701 8.3825ZM55.649 20.0374L49.001 31.552L46.0703 29.8601L46.9103 28.4051C46.2482 28.688 45.5283 28.7989 44.7506 28.7379C43.9948 28.671 43.2635 28.4335 42.5569 28.0255C41.6562 27.5055 40.9675 26.8585 40.4906 26.0844C40.0218 25.2964 39.7985 24.4192 39.8206 23.4528C39.8647 22.4806 40.1827 21.4817 40.7747 20.4564L44.6747 13.7014L47.5845 15.3814L43.9245 21.7207C43.3965 22.6352 43.2172 23.4739 43.3864 24.2367C43.5637 24.9857 44.0472 25.5882 44.837 26.0442C45.6407 26.5082 46.4112 26.6297 47.1484 26.4087C47.8937 26.1739 48.5303 25.5992 49.0583 24.6847L52.7183 18.3454L55.649 20.0374ZM56.1703 35.9407C55.2281 35.3967 54.4789 34.7424 53.9226 33.9779C53.3744 33.1995 53.0465 32.3913 52.9391 31.5533C52.8456 30.7233 52.982 29.943 53.3485 29.2123L56.2791 30.9043C56.0785 31.3797 56.0813 31.8709 56.2874 32.3779C56.5074 32.8929 56.9014 33.3144 57.4695 33.6424C58.0238 33.9624 58.5173 34.0995 58.9502 34.0538C59.3969 34.0161 59.7202 33.8241 59.9202 33.4777C60.1362 33.1036 60.1022 32.7144 59.8183 32.3103C59.5561 31.9003 59.0734 31.3445 58.37 30.6428C57.6309 29.9389 57.0482 29.3161 56.622 28.7744C56.2096 28.2407 55.9345 27.6292 55.7966 26.94C55.6726 26.2587 55.8347 25.5301 56.2827 24.7542C56.6507 24.1168 57.1668 23.6388 57.8311 23.3202C58.5092 23.0097 59.2757 22.898 60.1307 22.9852C60.9995 23.0803 61.8981 23.3959 62.8265 23.9319C64.1983 24.7239 65.0929 25.7023 65.5104 26.8671C65.936 28.0181 65.8543 29.1996 65.2654 30.4115L62.4803 28.8035C62.7027 28.3222 62.7168 27.85 62.5223 27.3867C62.3498 26.9176 61.9795 26.519 61.4113 26.191C60.8848 25.887 60.42 25.748 60.0171 25.774C59.6279 25.808 59.3334 25.9982 59.1334 26.3446C58.9094 26.7326 58.9313 27.1425 59.1993 27.5743C59.4753 27.9923 59.9621 28.5412 60.6596 29.2211C61.371 29.9089 61.9329 30.5197 62.3453 31.0534C62.7577 31.5871 63.0219 32.2015 63.1378 32.8966C63.2757 33.5859 63.1315 34.3156 62.7054 35.0857C62.3214 35.7508 61.7903 36.2386 61.1122 36.5492C60.4479 36.8677 59.6814 36.9794 58.8126 36.8842C57.9656 36.7832 57.0848 36.4687 56.1703 35.9407ZM71.8539 32.5803L68.6379 38.1505C68.4139 38.5385 68.3399 38.8746 68.4161 39.1587C68.5141 39.437 68.7848 39.7041 69.2282 39.9601L70.5792 40.7401L69.1632 43.1927L67.3341 42.1367C64.8815 40.7207 64.3432 38.8211 65.7192 36.4378L68.9232 30.8883L67.5515 30.0963L68.9315 27.706L70.3032 28.498L71.9472 25.6505L74.8779 27.3425L73.2339 30.19L75.8112 31.678L74.4312 34.0683L71.8539 32.5803ZM76.2611 47.5401C75.1526 46.9001 74.2949 46.0816 73.6881 45.0846C73.0893 44.0738 72.7935 42.9701 72.8009 41.7734C72.822 40.5847 73.1726 39.4015 73.8526 38.2237C74.5326 37.0459 75.389 36.1547 76.4216 35.55C77.4682 34.9534 78.5818 34.6725 79.7625 34.7076C80.9511 34.7287 82.0997 35.0593 83.2082 35.6993C84.3167 36.3393 85.1773 37.1687 85.79 38.1876C86.4107 39.1925 86.7173 40.2934 86.71 41.49C86.7166 42.6947 86.3798 43.8859 85.6998 45.0637C85.0198 46.2415 84.1496 47.1247 83.0892 47.7134C82.0427 48.3101 80.9182 48.5938 79.7156 48.5647C78.535 48.5296 77.3835 48.1881 76.2611 47.5401ZM77.7251 45.0044C78.2516 45.3084 78.8155 45.4677 79.4168 45.4823C80.0399 45.491 80.638 45.319 81.2112 44.9663C81.7843 44.6136 82.2829 44.0701 82.7069 43.3357C83.3389 42.2411 83.5319 41.2347 83.2859 40.3168C83.0618 39.3929 82.534 38.691 81.7027 38.211C80.8713 37.731 79.9995 37.6249 79.0874 37.8928C78.1972 38.1547 77.436 38.8331 76.804 39.9277C76.172 41.0224 75.9542 42.0236 76.1506 42.9314C76.3689 43.8334 76.8937 44.5244 77.7251 45.0044ZM105.554 48.6284C106.967 49.4444 107.852 50.5369 108.207 51.9059C108.584 53.269 108.324 54.7265 107.428 56.2784L103.528 63.0334L100.618 61.3534L104.29 54.9933C104.81 54.0926 104.978 53.2747 104.792 52.5396C104.615 51.7907 104.132 51.1882 103.342 50.7322C102.552 50.2762 101.782 50.1547 101.03 50.3676C100.301 50.5747 99.6766 51.1286 99.1566 52.0293L95.4846 58.3894L92.5747 56.7094L96.2467 50.3493C96.7667 49.4486 96.9341 48.6307 96.7489 47.8956C96.5716 47.1467 96.0881 46.5442 95.2982 46.0882C94.4946 45.6242 93.7172 45.4987 92.9661 45.7116C92.2368 45.9187 91.6122 46.4726 91.0922 47.3733L87.4202 53.7334L84.5103 52.0534L91.1583 40.5387L94.0682 42.2187L93.2642 43.6113C93.9183 43.3423 94.6163 43.2373 95.3583 43.2961C96.1141 43.363 96.8454 43.6004 97.5521 44.0084C98.4527 44.5284 99.1444 45.1864 99.6271 45.9824C100.118 46.7645 100.353 47.6209 100.333 48.5516C101.091 48.1025 101.94 47.881 102.878 47.8872C103.831 47.9014 104.723 48.1484 105.554 48.6284ZM14.6235 39.1491C15.3496 38.7554 16.1106 38.5574 16.9064 38.555C17.7161 38.5606 18.5089 38.7874 19.2848 39.2354L17.5208 42.2907L16.7518 41.8467C15.8373 41.3187 15.0205 41.1335 14.3014 41.291C13.5961 41.4566 12.9355 42.0728 12.3195 43.1398L9.00746 48.8763L6.09761 47.1963L12.7456 35.6816L15.6555 37.3616L14.6235 39.1491ZM28.6728 52.2211C28.4328 52.6368 28.1891 52.9949 27.9417 53.2955L19.5239 48.4355C19.1132 49.3069 19.0282 50.1261 19.2689 50.8932C19.5096 51.6604 20.004 52.2599 20.7523 52.6919C21.8331 53.3159 22.8701 53.2957 23.8634 52.6314L27.0019 54.4434C26.0293 55.3599 24.8639 55.9064 23.5057 56.0829C22.1554 56.2456 20.7944 55.9309 19.4226 55.1389C18.3141 54.4989 17.4565 53.6805 16.8497 52.6835C16.2647 51.6806 15.9828 50.5849 16.004 49.3962C16.039 48.2156 16.3965 47.0363 17.0765 45.8585C17.7645 44.6669 18.611 43.7607 19.616 43.1401C20.621 42.5194 21.6999 42.2186 22.8529 42.2376C24.0058 42.2566 25.1504 42.5941 26.2866 43.2501C27.3813 43.8821 28.2222 44.6817 28.8093 45.6488C29.4102 46.6239 29.6943 47.684 29.6614 48.8289C29.6504 49.968 29.3208 51.0988 28.6728 52.2211ZM26.1391 49.6497C26.5572 48.8935 26.631 48.1417 26.3605 47.3943C26.0979 46.633 25.5856 46.0324 24.8235 45.5924C24.103 45.1764 23.3653 45.0461 22.6105 45.2015C21.8775 45.351 21.2316 45.7818 20.6727 46.4937L26.1391 49.6497ZM29.9165 53.244C30.5805 52.0939 31.4041 51.2115 32.3872 50.5967C33.3922 49.976 34.4474 49.6523 35.553 49.6254C36.6585 49.5986 37.7031 49.8692 38.687 50.4372C39.5045 50.9092 40.133 51.4845 40.5726 52.1632C41.0339 52.8361 41.3186 53.527 41.4266 54.2359L42.2906 52.7395L45.2212 54.4315L35.4052 71.4333L32.4746 69.7413L36.5546 62.6745C35.8786 62.9493 35.119 63.065 34.2758 63.0216C33.4325 62.9781 32.6021 62.7204 31.7846 62.2484C30.8146 61.6884 30.0649 60.923 29.5354 59.9522C29.0277 58.9755 28.7983 57.9008 28.8472 56.7281C28.8961 55.5555 29.2525 54.3941 29.9165 53.244ZM38.9666 58.4968C39.3746 57.7901 39.5811 57.0964 39.5861 56.4157C39.5911 55.7351 39.4341 55.1271 39.115 54.5918C38.8097 54.0645 38.3938 53.6489 37.8673 53.3449C37.3546 53.0489 36.7867 52.8965 36.1636 52.8878C35.5543 52.8871 34.9562 53.0591 34.3692 53.4037C33.7902 53.7346 33.2967 54.2533 32.8887 54.96C32.4807 55.6667 32.2702 56.3673 32.2572 57.0618C32.2522 57.7425 32.4023 58.3465 32.7076 58.8738C33.0267 59.409 33.4426 59.8247 33.9553 60.1207C34.4818 60.4247 35.0497 60.577 35.659 60.5778C36.2821 60.5865 36.8871 60.4185 37.4741 60.0738C38.0611 59.7291 38.5586 59.2035 38.9666 58.4968ZM58.9336 62.3483L52.2856 73.8629L49.3549 72.1709L50.1949 70.716C49.5328 70.9988 48.8129 71.1098 48.0352 71.0487C47.2794 70.9819 46.5481 70.7444 45.8415 70.3364C44.9408 69.8164 44.2521 69.1694 43.7752 68.3952C43.3064 67.6073 43.0831 66.7301 43.1053 65.7637C43.1493 64.7914 43.4673 63.7926 44.0593 62.7673L47.9593 56.0123L50.8691 57.6923L47.2091 64.0316C46.6811 64.9461 46.5018 65.7848 46.671 66.5476C46.8483 67.2966 47.3318 67.8991 48.1216 68.3551C48.9253 68.8191 49.6958 68.9406 50.433 68.7196C51.1783 68.4848 51.8149 67.9101 52.3429 66.9956L56.0029 60.6563L58.9336 62.3483ZM69.3287 75.6938C69.0887 76.1095 68.845 76.4676 68.5975 76.7681L60.1798 71.9081C59.769 72.7795 59.684 73.5988 59.9247 74.3659C60.1654 75.133 60.6599 75.7326 61.4081 76.1646C62.4889 76.7886 63.526 76.7684 64.5192 76.104L67.6577 77.916C66.6851 78.8325 65.5197 79.379 64.1615 79.5556C62.8113 79.7183 61.4503 79.4036 60.0785 78.6116C58.97 77.9716 58.1123 77.1531 57.5055 76.1561C56.9205 75.1533 56.6386 74.0576 56.6598 72.8689C56.6948 71.6882 57.0524 70.509 57.7324 69.3312C58.4204 68.1395 59.2668 67.2334 60.2718 66.6127C61.2768 65.9921 62.3558 65.6912 63.5087 65.7103C64.6617 65.7293 65.8062 66.0668 66.9425 66.7228C68.0371 67.3548 68.878 68.1544 69.4651 69.1215C70.0661 70.0966 70.3501 71.1566 70.3172 72.3016C70.3062 73.4407 69.9767 74.5714 69.3287 75.6938ZM66.7949 73.1224C67.213 72.3661 67.2868 71.6143 67.0163 70.8669C66.7538 70.1057 66.2414 69.505 65.4793 69.065C64.7588 68.649 64.0211 68.5187 63.2663 68.6741C62.5333 68.8237 61.8874 69.2544 61.3286 69.9664L66.7949 73.1224ZM72.2829 85.6578C71.3407 85.1138 70.5915 84.4596 70.0352 83.695C69.487 82.9166 69.1591 82.1084 69.0517 81.2704C68.9582 80.4405 69.0946 79.6602 69.4611 78.9295L72.3917 80.6215C72.1911 81.0969 72.1939 81.5881 72.4 82.0951C72.62 82.61 73.014 83.0315 73.5821 83.3595C74.1364 83.6795 74.63 83.8167 75.0628 83.771C75.5095 83.7333 75.8328 83.5412 76.0328 83.1948C76.2488 82.8207 76.2149 82.4316 75.9309 82.0274C75.6687 81.6174 75.186 81.0616 74.4826 80.3599C73.7435 79.656 73.1608 79.0333 72.7346 78.4916C72.3222 77.9579 72.0471 77.3464 71.9092 76.6571C71.7852 75.9759 71.9473 75.2472 72.3953 74.4713C72.7633 73.8339 73.2794 73.3559 73.9437 73.0374C74.6218 72.7268 75.3883 72.6151 76.2433 72.7023C77.1121 72.7975 78.0107 73.113 78.9391 73.649C80.3109 74.441 81.2055 75.4195 81.6231 76.5843C82.0486 77.7352 81.9669 78.9167 81.3781 80.1286L78.5929 78.5206C78.8153 78.0394 78.8294 77.5671 78.6349 77.1038C78.4624 76.6347 78.0921 76.2361 77.5239 75.9081C76.9974 75.6041 76.5326 75.4651 76.1297 75.4911C75.7405 75.5251 75.446 75.7153 75.246 76.0617C75.022 76.4497 75.044 76.8596 75.3119 77.2915C75.5879 77.7094 76.0747 78.2584 76.7722 78.9382C77.4836 79.6261 78.0455 80.2368 78.4579 80.7705C78.8703 81.3042 79.1345 81.9186 79.2504 82.6138C79.3883 83.303 79.2441 84.0327 78.818 84.8028C78.434 85.4679 77.9029 85.9557 77.2248 86.2663C76.5605 86.5848 75.794 86.6965 74.9252 86.6014C74.0782 86.5003 73.1975 86.1858 72.2829 85.6578ZM87.9665 82.2974L84.7505 87.8677C84.5265 88.2557 84.4525 88.5917 84.5287 88.8758C84.6267 89.1541 84.8974 89.4213 85.3408 89.6773L86.6918 90.4573L85.2758 92.9098L83.4467 91.8538C80.9941 90.4378 80.4558 88.5382 81.8318 86.1549L85.0358 80.6054L83.6641 79.8134L85.0441 77.4232L86.4158 78.2152L88.0598 75.3677L90.9905 77.0597L89.3465 79.9072L91.9238 81.3952L90.5438 83.7854L87.9665 82.2974Z" fill="white"/>
</g>
<defs>
<filter id="filter0_d_11259_23281" x="0.802734" y="0.962402" width="113.209" height="100.869" filterUnits="userSpaceOnUse" color-interpolation-filters="sRGB">
<feFlood flood-opacity="0" result="BackgroundImageFix"/>
<feColorMatrix in="SourceAlpha" type="matrix" values="0 0 0 0 0 0 0 0 0 0 0 0 0 0 0 0 0 0 127 0" result="hardAlpha"/>
<feOffset dx="2" dy="3"/>
<feComposite in2="hardAlpha" operator="out"/>
<feColorMatrix type="matrix" values="0 0 0 0 0 0 0 0 0 0.0938526 0 0 0 0 0.938525 0 0 0 1 0"/>
<feBlend mode="normal" in2="BackgroundImageFix" result="effect1_dropShadow_11259_23281"/>
<feBlend mode="normal" in="SourceGraphic" in2="effect1_dropShadow_11259_23281" result="shape"/>
</filter>
</defs>
</svg>
