<svg width="1440" height="910" viewBox="0 0 1440 910" fill="none" xmlns="http://www.w3.org/2000/svg">
<g clip-path="url(#clip0_2136_14294)">
<rect width="1440" height="910" fill="#EAECF0"/>
<g filter="url(#filter0_f_2136_14294)">
<path opacity="0.3" d="M251 458C251 208.367 453.367 6 703 6H840V458H251Z" fill="#EE46BC"/>
<path opacity="0.3" d="M840 6H977C1226.63 6 1429 208.367 1429 458H840V6Z" fill="#EF6820"/>
<path opacity="0.3" d="M251 458H840V910H703C453.367 910 251 707.633 251 458Z" fill="#2E90FA"/>
<path opacity="0.3" d="M840 458H1429C1429 707.633 1226.63 910 977 910H840V458Z" fill="#17B26A"/>
</g>
<g filter="url(#filter1_b_2136_14294)">
<rect width="1350" height="910" transform="translate(90)" fill="url(#paint0_linear_2136_14294)"/>
</g>
</g>
<defs>
<filter id="filter0_f_2136_14294" x="-440.231" y="-685.231" width="2560.46" height="2286.46" filterUnits="userSpaceOnUse" color-interpolation-filters="sRGB">
<feFlood flood-opacity="0" result="BackgroundImageFix"/>
<feBlend mode="normal" in="SourceGraphic" in2="BackgroundImageFix" result="shape"/>
<feGaussianBlur stdDeviation="345.615" result="effect1_foregroundBlur_2136_14294"/>
</filter>
<filter id="filter1_b_2136_14294" x="40" y="-50" width="1450" height="1010" filterUnits="userSpaceOnUse" color-interpolation-filters="sRGB">
<feFlood flood-opacity="0" result="BackgroundImageFix"/>
<feGaussianBlur in="BackgroundImageFix" stdDeviation="25"/>
<feComposite in2="SourceAlpha" operator="in" result="effect1_backgroundBlur_2136_14294"/>
<feBlend mode="normal" in="SourceGraphic" in2="effect1_backgroundBlur_2136_14294" result="shape"/>
</filter>
<linearGradient id="paint0_linear_2136_14294" x1="675" y1="0" x2="675" y2="910" gradientUnits="userSpaceOnUse">
<stop stop-color="white" stop-opacity="0.3"/>
<stop offset="0.08" stop-color="white" stop-opacity="0"/>
</linearGradient>
<clipPath id="clip0_2136_14294">
<rect width="1440" height="910" fill="white"/>
</clipPath>
</defs>
</svg>
