<svg width="16" height="17" viewBox="0 0 16 17" fill="none" xmlns="http://www.w3.org/2000/svg">
<g id="contrast-01" clip-path="url(#clip0_2175_134459)">
<path id="Icon" d="M7.99992 2.26798C8.39437 2.26798 8.78082 2.30224 9.15645 2.36794M7.99992 2.26798C4.31802 2.26798 1.33325 5.25275 1.33325 8.93465C1.33325 12.6165 4.31802 15.6013 7.99992 15.6013M7.99992 2.26798V15.6013M11.8252 3.47398C12.4614 3.92045 13.016 4.47525 13.4622 5.11159M14.5667 7.7784C14.6323 8.15395 14.6666 8.5403 14.6666 8.93465C14.6666 9.329 14.6323 9.71535 14.5667 10.0909M13.4594 12.7617C13.0135 13.3966 12.4596 13.9502 11.8245 14.3958M9.15512 15.5016C8.77991 15.5671 8.3939 15.6013 7.99992 15.6013" stroke="#0C111D" stroke-width="1.25" stroke-linecap="round" stroke-linejoin="round"/>
</g>
<defs>
<clipPath id="clip0_2175_134459">
<rect width="16" height="16" fill="white" transform="translate(0 0.934647)"/>
</clipPath>
</defs>
</svg>
