<svg width="16" height="16" viewBox="0 0 16 16" fill="none" xmlns="http://www.w3.org/2000/svg">
<g id="Group 5">
<path id="color 1" d="M13.7838 10.6259C13.7838 11.4591 13.4528 12.2583 12.8635 12.8475C12.2743 13.4367 11.4752 13.7677 10.6419 13.7677H3.31467C2.48141 13.7677 1.68227 13.4367 1.09307 12.8475C0.503864 12.2583 0.172852 11.4591 0.172852 10.6259V3.30952C0.172852 2.47626 0.503864 1.67712 1.09307 1.08792C1.68227 0.49871 2.48141 0.167694 3.31467 0.167694H10.6419C11.4752 0.167694 12.2743 0.49871 12.8635 1.08792C13.4528 1.67712 13.7838 2.47626 13.7838 3.30952V10.6259ZM7.53467 8.2786C8.44012 7.26406 9.39831 6.68225 10.5819 7.80043C11.2353 8.41982 11.825 9.01437 12.351 9.58406C12.4553 9.69679 12.5092 9.67618 12.5129 9.52224C12.5601 7.59255 12.568 5.69375 12.5365 3.82588C12.5147 2.4986 12.1365 1.43861 10.5674 1.42406C8.2874 1.40467 5.90376 1.40648 3.41649 1.42951C1.83831 1.44406 1.42922 2.42043 1.39103 3.84224C1.35588 5.22891 1.37225 6.54224 1.44012 7.78224C1.4474 7.91194 1.49406 7.9277 1.58012 7.82952C2.04922 7.28406 2.54376 6.77861 3.11467 6.32043C3.74376 5.81679 4.5274 5.86406 5.14376 6.37315C5.80315 6.9186 6.45831 7.55375 7.10921 8.2786C7.13599 8.30852 7.16878 8.33247 7.20543 8.34886C7.24209 8.36525 7.28179 8.37372 7.32194 8.37372C7.3621 8.37372 7.4018 8.36525 7.43845 8.34886C7.47511 8.33247 7.5079 8.30852 7.53467 8.2786Z" fill="white"/>
<path id="color 1_2" d="M15.431 12.9295C14.5595 14.8398 13.0274 15.8041 10.8347 15.8222C9.08314 15.8368 7.30253 15.8356 5.49284 15.8186C4.52799 15.8101 3.71041 15.4798 3.04011 14.8277C3.02833 14.8163 3.01966 14.8021 3.0149 14.7864C3.01014 14.7707 3.00945 14.7541 3.01291 14.7381C3.01637 14.7221 3.02386 14.7072 3.03466 14.6949C3.04546 14.6826 3.05923 14.6732 3.07466 14.6677C3.24193 14.6095 3.41647 14.5804 3.59829 14.5804C5.78132 14.5841 8.02314 14.5822 10.3237 14.575C10.871 14.5731 11.4056 14.5895 11.9365 14.4495C13.1474 14.1307 13.9577 13.4168 14.3674 12.3077C14.5565 11.7962 14.6407 10.9047 14.6201 9.63314C14.5862 7.41859 14.585 5.34223 14.6165 3.40405C14.6177 3.3095 14.6292 3.21254 14.651 3.11314C14.6565 3.08563 14.6696 3.06023 14.6889 3.03984C14.7081 3.01946 14.7327 3.00491 14.7599 2.99789C14.7871 2.99086 14.8156 2.99164 14.8424 3.00013C14.8691 3.00862 14.8929 3.02447 14.911 3.04587C15.4977 3.72466 15.7977 4.57011 15.811 5.58224C15.8316 7.23557 15.8334 9.03738 15.8165 10.9877C15.8092 11.7331 15.6807 12.3804 15.431 12.9295Z" fill="white"/>
<path id="color 1_3" d="M10.4673 4.50042C10.4673 4.76998 10.3602 5.02849 10.1696 5.2191C9.97901 5.4097 9.72049 5.51679 9.45093 5.51679C9.18138 5.51679 8.92286 5.4097 8.73226 5.2191C8.54165 5.02849 8.43457 4.76998 8.43457 4.50042C8.43457 4.23087 8.54165 3.97234 8.73226 3.78174C8.92286 3.59113 9.18138 3.48405 9.45093 3.48405C9.72049 3.48405 9.97901 3.59113 10.1696 3.78174C10.3602 3.97234 10.4673 4.23087 10.4673 4.50042Z" fill="white"/>
</g>
</svg>
