<svg width="160" height="160" viewBox="0 0 160 160" fill="none" xmlns="http://www.w3.org/2000/svg">
<g id="image-03">
<path id="Icon" d="M28.4806 138.186L72.4576 94.2091C75.0977 91.569 76.4177 90.249 77.9399 89.7544C79.2789 89.3193 80.7212 89.3193 82.0601 89.7544C83.5823 90.249 84.9024 91.5691 87.5425 94.2091L131.226 137.893M93.3333 100L112.458 80.8758C115.098 78.2357 116.418 76.9156 117.94 76.421C119.279 75.986 120.721 75.986 122.06 76.421C123.582 76.9156 124.902 78.2357 127.542 80.8758L146.667 100M66.6667 60C66.6667 67.3638 60.6971 73.3333 53.3333 73.3333C45.9695 73.3333 40 67.3638 40 60C40 52.6362 45.9695 46.6667 53.3333 46.6667C60.6971 46.6667 66.6667 52.6362 66.6667 60ZM45.3333 140H114.667C125.868 140 131.468 140 135.746 137.82C139.51 135.903 142.569 132.843 144.487 129.08C146.667 124.802 146.667 119.201 146.667 108V52C146.667 40.7989 146.667 35.1984 144.487 30.9202C142.569 27.1569 139.51 24.0973 135.746 22.1799C131.468 20 125.868 20 114.667 20H45.3333C34.1323 20 28.5318 20 24.2535 22.1799C20.4903 24.0973 17.4307 27.1569 15.5132 30.9202C13.3333 35.1984 13.3333 40.7989 13.3333 52V108C13.3333 119.201 13.3333 124.802 15.5132 129.08C17.4307 132.843 20.4903 135.903 24.2535 137.82C28.5318 140 34.1323 140 45.3333 140Z" stroke="#98A2B3" stroke-width="2" stroke-linecap="round" stroke-linejoin="round"/>
</g>
</svg>
