<svg width="37" height="36" viewBox="0 0 37 36" fill="none" xmlns="http://www.w3.org/2000/svg">
<g id="shopping-cart-03">
<path id="Icon" d="M8.00021 21H27.7038C29.223 21 29.9826 21 30.5874 20.7168C31.1201 20.4672 31.5677 20.0666 31.8745 19.5647C32.2228 18.995 32.3067 18.24 32.4744 16.7301L33.3519 8.83252C33.4032 8.37132 33.4288 8.14073 33.3547 7.96224C33.2895 7.80548 33.1731 7.67546 33.0245 7.59341C32.8553 7.5 32.6233 7.5 32.1593 7.5H7.25021M3.5 3H5.37266C5.76959 3 5.96806 3 6.12333 3.07549C6.26003 3.14194 6.3733 3.24836 6.44816 3.38064C6.53318 3.5309 6.54556 3.72899 6.57032 4.12515L7.92968 25.8749C7.95444 26.271 7.96682 26.4691 8.05184 26.6194C8.1267 26.7516 8.23997 26.8581 8.37667 26.9245C8.53194 27 8.73041 27 9.12734 27H29M11.75 32.25H11.765M25.25 32.25H25.265M12.5 32.25C12.5 32.6642 12.1642 33 11.75 33C11.3358 33 11 32.6642 11 32.25C11 31.8358 11.3358 31.5 11.75 31.5C12.1642 31.5 12.5 31.8358 12.5 32.25ZM26 32.25C26 32.6642 25.6642 33 25.25 33C24.8358 33 24.5 32.6642 24.5 32.25C24.5 31.8358 24.8358 31.5 25.25 31.5C25.6642 31.5 26 31.8358 26 32.25Z" stroke="black" stroke-width="2" stroke-linecap="round" stroke-linejoin="round"/>
</g>
</svg>
