<svg width="74" height="129" viewBox="0 0 74 129" fill="none" xmlns="http://www.w3.org/2000/svg">
<g filter="url(#filter0_bd_9716_20788)">
<mask id="path-1-outside-1_9716_20788" maskUnits="userSpaceOnUse" x="18" y="18.125" width="37" height="92" fill="black">
<rect fill="white" x="18" y="18.125" width="37" height="92"/>
<path d="M20.1228 39.605V20.525H53.3628V108.125H32.0028V39.605H20.1228Z"/>
</mask>
<path d="M20.1228 39.605V20.525H53.3628V108.125H32.0028V39.605H20.1228Z" fill="#E9E5D3" fill-opacity="0.1" shape-rendering="crispEdges"/>
<path d="M20.1228 39.605H18.6228V41.105H20.1228V39.605ZM20.1228 20.525V19.025H18.6228V20.525H20.1228ZM53.3628 20.525H54.8628V19.025H53.3628V20.525ZM53.3628 108.125V109.625H54.8628V108.125H53.3628ZM32.0028 108.125H30.5028V109.625H32.0028V108.125ZM32.0028 39.605H33.5028V38.105H32.0028V39.605ZM21.6228 39.605V20.525H18.6228V39.605H21.6228ZM20.1228 22.025H53.3628V19.025H20.1228V22.025ZM51.8628 20.525V108.125H54.8628V20.525H51.8628ZM53.3628 106.625H32.0028V109.625H53.3628V106.625ZM33.5028 108.125V39.605H30.5028V108.125H33.5028ZM32.0028 38.105H20.1228V41.105H32.0028V38.105Z" fill="#E9E5D3" mask="url(#path-1-outside-1_9716_20788)"/>
</g>
<defs>
<filter id="filter0_bd_9716_20788" x="0.123047" y="0.525024" width="73.2402" height="127.6" filterUnits="userSpaceOnUse" color-interpolation-filters="sRGB">
<feFlood flood-opacity="0" result="BackgroundImageFix"/>
<feGaussianBlur in="BackgroundImageFix" stdDeviation="10"/>
<feComposite in2="SourceAlpha" operator="in" result="effect1_backgroundBlur_9716_20788"/>
<feColorMatrix in="SourceAlpha" type="matrix" values="0 0 0 0 0 0 0 0 0 0 0 0 0 0 0 0 0 0 127 0" result="hardAlpha"/>
<feOffset/>
<feGaussianBlur stdDeviation="10"/>
<feComposite in2="hardAlpha" operator="out"/>
<feColorMatrix type="matrix" values="0 0 0 0 0 0 0 0 0 0 0 0 0 0 0 0 0 0 0.5 0"/>
<feBlend mode="normal" in2="effect1_backgroundBlur_9716_20788" result="effect2_dropShadow_9716_20788"/>
<feBlend mode="normal" in="SourceGraphic" in2="effect2_dropShadow_9716_20788" result="shape"/>
</filter>
</defs>
</svg>
