<svg width="132" height="122" viewBox="0 0 132 122" fill="none" xmlns="http://www.w3.org/2000/svg">
<path id="Icon" d="M20.5655 73H106.231C112.836 73 116.138 73 118.768 71.867C121.084 70.869 123.03 69.2665 124.364 67.2589C125.878 64.98 126.243 61.96 126.972 55.9203L130.787 24.3301C131.01 22.4853 131.121 21.5629 130.799 20.849C130.516 20.2219 130.01 19.7018 129.364 19.3737C128.628 19 127.619 19 125.602 19H17.3048M1 1H9.14175C10.8675 1 11.7304 1 12.4054 1.30195C12.9998 1.56777 13.4922 1.99344 13.8177 2.52257C14.1873 3.12361 14.2412 3.91595 14.3488 5.50058L20.2589 92.4994C20.3665 94.0841 20.4204 94.8764 20.79 95.4774C21.1155 96.0066 21.608 96.4322 22.2023 96.6981C22.8773 97 23.7402 97 25.466 97H111.866M36.8685 118H36.9337M95.5623 118H95.6276M40.1292 118C40.1292 119.657 38.6694 121 36.8685 121C35.0676 121 33.6077 119.657 33.6077 118C33.6077 116.343 35.0676 115 36.8685 115C38.6694 115 40.1292 116.343 40.1292 118ZM98.8231 118C98.8231 119.657 97.3632 121 95.5623 121C93.7615 121 92.3016 119.657 92.3016 118C92.3016 116.343 93.7615 115 95.5623 115C97.3632 115 98.8231 116.343 98.8231 118Z" stroke="#98A2B3" stroke-width="2" stroke-linecap="round" stroke-linejoin="round"/>
</svg>
