<svg width="19" height="14" viewBox="0 0 19 14" fill="none" xmlns="http://www.w3.org/2000/svg">
<path d="M17.4167 4.91667H0.75M0.75 3.41667L0.75 9.75C0.75 10.6834 0.75 11.1501 0.931656 11.5066C1.09144 11.8203 1.34641 12.0752 1.66002 12.235C2.01654 12.4167 2.48325 12.4167 3.41667 12.4167L14.75 12.4167C15.6834 12.4167 16.1501 12.4167 16.5067 12.235C16.8203 12.0752 17.0752 11.8203 17.235 11.5067C17.4167 11.1501 17.4167 10.6834 17.4167 9.75V3.41667C17.4167 2.48325 17.4167 2.01654 17.235 1.66002C17.0752 1.34641 16.8203 1.09145 16.5067 0.931657C16.1501 0.750001 15.6834 0.750001 14.75 0.750001L3.41667 0.75C2.48325 0.75 2.01654 0.75 1.66002 0.931656C1.34641 1.09144 1.09145 1.34641 0.931656 1.66002C0.75 2.01654 0.75 2.48325 0.75 3.41667Z" stroke="#F9FAFB" stroke-width="1.5" stroke-linecap="round" stroke-linejoin="round"/>
</svg>
