<svg width="495" height="423" viewBox="0 0 495 423" fill="none" xmlns="http://www.w3.org/2000/svg">
<g clip-path="url(#clip0_2744_74312)">
<g filter="url(#filter0_d_2744_74312)">
<path d="M179.414 157.201C179.414 149.472 185.68 143.206 193.41 143.206H301.59C309.32 143.206 315.586 149.472 315.586 157.201V338.387C315.586 346.117 309.32 352.383 301.59 352.383H193.41C185.68 352.383 179.414 346.117 179.414 338.387V157.201Z" fill="#E54D11"/>
<path d="M315.586 167.557V323.966M193.41 352.383H301.59C309.32 352.383 315.586 346.117 315.586 338.387V157.201C315.586 149.472 309.32 143.206 301.59 143.206H193.41C185.68 143.206 179.414 149.472 179.414 157.201V338.387C179.414 346.117 185.68 352.383 193.41 352.383Z" stroke="black" stroke-width="4.41964" stroke-linejoin="round"/>
</g>
<rect x="195.586" y="174.576" width="103.831" height="69.2411" rx="6.62946" fill="#AEAEAE" stroke="black" stroke-width="4.41964"/>
<g filter="url(#filter1_d_2744_74312)">
<rect x="192.941" y="258.421" width="31.2169" height="14.2857" rx="7.14286" fill="#E0FFDD"/>
<rect x="192.941" y="258.421" width="31.2169" height="14.2857" rx="7.14286" stroke="black" stroke-width="4.41964"/>
</g>
<g filter="url(#filter2_d_2744_74312)">
<rect x="230.051" y="258.421" width="31.2169" height="14.2857" rx="7.14286" fill="#E0FFDD"/>
<rect x="230.051" y="258.421" width="31.2169" height="14.2857" rx="7.14286" stroke="black" stroke-width="4.41964"/>
</g>
<g filter="url(#filter3_d_2744_74312)">
<rect x="267.16" y="258.421" width="31.2169" height="14.2857" rx="7.14286" fill="#E0FFDD"/>
<rect x="267.16" y="258.421" width="31.2169" height="14.2857" rx="7.14286" stroke="black" stroke-width="4.41964"/>
</g>
<g filter="url(#filter4_d_2744_74312)">
<rect x="192.941" y="280.81" width="31.2169" height="14.2857" rx="7.14286" fill="#E0FFDD"/>
<rect x="192.941" y="280.81" width="31.2169" height="14.2857" rx="7.14286" stroke="black" stroke-width="4.41964"/>
</g>
<g filter="url(#filter5_d_2744_74312)">
<rect x="230.051" y="280.81" width="31.2169" height="14.2857" rx="7.14286" fill="#E0FFDD"/>
<rect x="230.051" y="280.81" width="31.2169" height="14.2857" rx="7.14286" stroke="black" stroke-width="4.41964"/>
</g>
<g filter="url(#filter6_d_2744_74312)">
<rect x="267.16" y="280.81" width="31.2169" height="14.2857" rx="7.14286" fill="#E0FFDD"/>
<rect x="267.16" y="280.81" width="31.2169" height="14.2857" rx="7.14286" stroke="black" stroke-width="4.41964"/>
</g>
<g filter="url(#filter7_d_2744_74312)">
<rect x="192.941" y="303.198" width="31.2169" height="14.2857" rx="7.14286" fill="#E0FFDD"/>
<rect x="192.941" y="303.198" width="31.2169" height="14.2857" rx="7.14286" stroke="black" stroke-width="4.41964"/>
</g>
<g filter="url(#filter8_d_2744_74312)">
<rect x="230.051" y="303.198" width="31.2169" height="14.2857" rx="7.14286" fill="#E0FFDD"/>
<rect x="230.051" y="303.198" width="31.2169" height="14.2857" rx="7.14286" stroke="black" stroke-width="4.41964"/>
</g>
<g filter="url(#filter9_d_2744_74312)">
<rect x="267.16" y="303.198" width="31.2169" height="14.2857" rx="7.14286" fill="#E0FFDD"/>
<rect x="267.16" y="303.198" width="31.2169" height="14.2857" rx="7.14286" stroke="black" stroke-width="4.41964"/>
</g>
<g filter="url(#filter10_d_2744_74312)">
<rect x="192.941" y="325.586" width="31.2169" height="14.2857" rx="7.14286" fill="#FF0062"/>
<rect x="192.941" y="325.586" width="31.2169" height="14.2857" rx="7.14286" stroke="black" stroke-width="4.41964"/>
</g>
<g filter="url(#filter11_d_2744_74312)">
<rect x="230.051" y="325.586" width="31.2169" height="14.2857" rx="7.14286" fill="#FF0062"/>
<rect x="230.051" y="325.586" width="31.2169" height="14.2857" rx="7.14286" stroke="black" stroke-width="4.41964"/>
</g>
<g filter="url(#filter12_d_2744_74312)">
<rect x="267.16" y="325.586" width="31.2169" height="14.2857" rx="7.14286" fill="#FF0062"/>
<rect x="267.16" y="325.586" width="31.2169" height="14.2857" rx="7.14286" stroke="black" stroke-width="4.41964"/>
</g>
<path d="M234.17 203.017C234.17 203.768 238.286 205.921 237.795 206.413C237.302 206.906 235.148 202.792 234.396 202.792C233.583 202.792 231.38 206.855 230.882 206.29C230.458 205.81 234.621 203.707 234.621 203.017C234.621 202.283 230.492 200.144 230.964 199.655C231.459 199.142 233.627 203.243 234.396 203.243C235.177 203.243 237.354 199.152 237.851 199.679C238.309 200.166 234.17 202.296 234.17 203.017Z" stroke="black" stroke-width="5.53823"/>
<path d="M260.406 203.017C260.406 203.761 264.528 205.907 264.045 206.399C263.551 206.9 261.391 202.792 260.632 202.792C259.881 202.792 257.727 206.907 257.235 206.415C256.742 205.922 260.857 203.769 260.857 203.017C260.857 202.34 256.685 200.247 257.095 199.771C257.594 199.191 259.807 203.243 260.632 203.243C261.428 203.243 263.617 199.165 264.115 199.71C264.557 200.194 260.406 202.311 260.406 203.017Z" stroke="black" stroke-width="5.53823"/>
<path d="M247.498 215.867C254.527 215.867 260.362 220.981 261.486 227.69H233.51C234.634 220.981 240.469 215.867 247.498 215.867Z" fill="black"/>
<rect x="188.357" y="153.861" width="119.126" height="8.79565" rx="4.39783" fill="black"/>
<g clip-path="url(#clip1_2744_74312)">
<path d="M196.623 72.3394L203.091 77.4956L209.559 72.3394L216.027 77.4956L222.495 72.3394L228.963 77.4956L235.431 72.3394L241.898 77.4956L248.366 72.3394L254.834 77.4956L261.302 72.3394L267.77 77.4956L274.238 72.3394L280.706 77.4956L287.174 72.3394L293.642 77.4956L300.11 72.3394V168.292H196.623V72.3394Z" fill="#F0F0F0" stroke="black" stroke-width="4.41964" stroke-linejoin="round"/>
<path d="M241.357 126.656L254.664 113.349M254.723 126.805L241.068 113.149M270.544 120.002C270.544 132.251 260.615 142.18 248.367 142.18C236.119 142.18 226.189 132.251 226.189 120.002C226.189 107.754 236.119 97.825 248.367 97.825C260.615 97.825 270.544 107.754 270.544 120.002Z" stroke="#FF0062" stroke-width="4.4355" stroke-linecap="round" stroke-linejoin="round"/>
</g>
<g filter="url(#filter13_d_2744_74312)">
<path d="M319.205 330.737V165.692L324.289 166.592C330.972 167.777 335.843 173.586 335.843 180.373V316.055C335.843 322.843 330.972 328.652 324.289 329.836L319.205 330.737Z" fill="#E54D11"/>
<path d="M319.205 330.737V165.692L324.289 166.592C330.972 167.777 335.843 173.586 335.843 180.373V316.055C335.843 322.843 330.972 328.652 324.289 329.836L319.205 330.737Z" stroke="black" stroke-width="4.41964" stroke-linejoin="round"/>
</g>
</g>
<defs>
<filter id="filter0_d_2744_74312" x="177.205" y="140.996" width="149.429" height="220.963" filterUnits="userSpaceOnUse" color-interpolation-filters="sRGB">
<feFlood flood-opacity="0" result="BackgroundImageFix"/>
<feColorMatrix in="SourceAlpha" type="matrix" values="0 0 0 0 0 0 0 0 0 0 0 0 0 0 0 0 0 0 127 0" result="hardAlpha"/>
<feOffset dx="8.83929" dy="7.36607"/>
<feComposite in2="hardAlpha" operator="out"/>
<feColorMatrix type="matrix" values="0 0 0 0 0 0 0 0 0 0 0 0 0 0 0 0 0 0 1 0"/>
<feBlend mode="normal" in2="BackgroundImageFix" result="effect1_dropShadow_2744_74312"/>
<feBlend mode="normal" in="SourceGraphic" in2="effect1_dropShadow_2744_74312" result="shape"/>
</filter>
<filter id="filter1_d_2744_74312" x="190.732" y="256.211" width="38.5812" height="20.9151" filterUnits="userSpaceOnUse" color-interpolation-filters="sRGB">
<feFlood flood-opacity="0" result="BackgroundImageFix"/>
<feColorMatrix in="SourceAlpha" type="matrix" values="0 0 0 0 0 0 0 0 0 0 0 0 0 0 0 0 0 0 127 0" result="hardAlpha"/>
<feOffset dx="2.94643" dy="2.20982"/>
<feComposite in2="hardAlpha" operator="out"/>
<feColorMatrix type="matrix" values="0 0 0 0 0 0 0 0 0 0 0 0 0 0 0 0 0 0 1 0"/>
<feBlend mode="normal" in2="BackgroundImageFix" result="effect1_dropShadow_2744_74312"/>
<feBlend mode="normal" in="SourceGraphic" in2="effect1_dropShadow_2744_74312" result="shape"/>
</filter>
<filter id="filter2_d_2744_74312" x="227.842" y="256.211" width="38.5812" height="20.9151" filterUnits="userSpaceOnUse" color-interpolation-filters="sRGB">
<feFlood flood-opacity="0" result="BackgroundImageFix"/>
<feColorMatrix in="SourceAlpha" type="matrix" values="0 0 0 0 0 0 0 0 0 0 0 0 0 0 0 0 0 0 127 0" result="hardAlpha"/>
<feOffset dx="2.94643" dy="2.20982"/>
<feComposite in2="hardAlpha" operator="out"/>
<feColorMatrix type="matrix" values="0 0 0 0 0 0 0 0 0 0 0 0 0 0 0 0 0 0 1 0"/>
<feBlend mode="normal" in2="BackgroundImageFix" result="effect1_dropShadow_2744_74312"/>
<feBlend mode="normal" in="SourceGraphic" in2="effect1_dropShadow_2744_74312" result="shape"/>
</filter>
<filter id="filter3_d_2744_74312" x="264.951" y="256.211" width="38.5812" height="20.9151" filterUnits="userSpaceOnUse" color-interpolation-filters="sRGB">
<feFlood flood-opacity="0" result="BackgroundImageFix"/>
<feColorMatrix in="SourceAlpha" type="matrix" values="0 0 0 0 0 0 0 0 0 0 0 0 0 0 0 0 0 0 127 0" result="hardAlpha"/>
<feOffset dx="2.94643" dy="2.20982"/>
<feComposite in2="hardAlpha" operator="out"/>
<feColorMatrix type="matrix" values="0 0 0 0 0 0 0 0 0 0 0 0 0 0 0 0 0 0 1 0"/>
<feBlend mode="normal" in2="BackgroundImageFix" result="effect1_dropShadow_2744_74312"/>
<feBlend mode="normal" in="SourceGraphic" in2="effect1_dropShadow_2744_74312" result="shape"/>
</filter>
<filter id="filter4_d_2744_74312" x="190.732" y="278.6" width="38.5812" height="20.9151" filterUnits="userSpaceOnUse" color-interpolation-filters="sRGB">
<feFlood flood-opacity="0" result="BackgroundImageFix"/>
<feColorMatrix in="SourceAlpha" type="matrix" values="0 0 0 0 0 0 0 0 0 0 0 0 0 0 0 0 0 0 127 0" result="hardAlpha"/>
<feOffset dx="2.94643" dy="2.20982"/>
<feComposite in2="hardAlpha" operator="out"/>
<feColorMatrix type="matrix" values="0 0 0 0 0 0 0 0 0 0 0 0 0 0 0 0 0 0 1 0"/>
<feBlend mode="normal" in2="BackgroundImageFix" result="effect1_dropShadow_2744_74312"/>
<feBlend mode="normal" in="SourceGraphic" in2="effect1_dropShadow_2744_74312" result="shape"/>
</filter>
<filter id="filter5_d_2744_74312" x="227.842" y="278.6" width="38.5812" height="20.9151" filterUnits="userSpaceOnUse" color-interpolation-filters="sRGB">
<feFlood flood-opacity="0" result="BackgroundImageFix"/>
<feColorMatrix in="SourceAlpha" type="matrix" values="0 0 0 0 0 0 0 0 0 0 0 0 0 0 0 0 0 0 127 0" result="hardAlpha"/>
<feOffset dx="2.94643" dy="2.20982"/>
<feComposite in2="hardAlpha" operator="out"/>
<feColorMatrix type="matrix" values="0 0 0 0 0 0 0 0 0 0 0 0 0 0 0 0 0 0 1 0"/>
<feBlend mode="normal" in2="BackgroundImageFix" result="effect1_dropShadow_2744_74312"/>
<feBlend mode="normal" in="SourceGraphic" in2="effect1_dropShadow_2744_74312" result="shape"/>
</filter>
<filter id="filter6_d_2744_74312" x="264.951" y="278.6" width="38.5812" height="20.9151" filterUnits="userSpaceOnUse" color-interpolation-filters="sRGB">
<feFlood flood-opacity="0" result="BackgroundImageFix"/>
<feColorMatrix in="SourceAlpha" type="matrix" values="0 0 0 0 0 0 0 0 0 0 0 0 0 0 0 0 0 0 127 0" result="hardAlpha"/>
<feOffset dx="2.94643" dy="2.20982"/>
<feComposite in2="hardAlpha" operator="out"/>
<feColorMatrix type="matrix" values="0 0 0 0 0 0 0 0 0 0 0 0 0 0 0 0 0 0 1 0"/>
<feBlend mode="normal" in2="BackgroundImageFix" result="effect1_dropShadow_2744_74312"/>
<feBlend mode="normal" in="SourceGraphic" in2="effect1_dropShadow_2744_74312" result="shape"/>
</filter>
<filter id="filter7_d_2744_74312" x="190.732" y="300.988" width="38.5812" height="20.9151" filterUnits="userSpaceOnUse" color-interpolation-filters="sRGB">
<feFlood flood-opacity="0" result="BackgroundImageFix"/>
<feColorMatrix in="SourceAlpha" type="matrix" values="0 0 0 0 0 0 0 0 0 0 0 0 0 0 0 0 0 0 127 0" result="hardAlpha"/>
<feOffset dx="2.94643" dy="2.20982"/>
<feComposite in2="hardAlpha" operator="out"/>
<feColorMatrix type="matrix" values="0 0 0 0 0 0 0 0 0 0 0 0 0 0 0 0 0 0 1 0"/>
<feBlend mode="normal" in2="BackgroundImageFix" result="effect1_dropShadow_2744_74312"/>
<feBlend mode="normal" in="SourceGraphic" in2="effect1_dropShadow_2744_74312" result="shape"/>
</filter>
<filter id="filter8_d_2744_74312" x="227.842" y="300.988" width="38.5812" height="20.9151" filterUnits="userSpaceOnUse" color-interpolation-filters="sRGB">
<feFlood flood-opacity="0" result="BackgroundImageFix"/>
<feColorMatrix in="SourceAlpha" type="matrix" values="0 0 0 0 0 0 0 0 0 0 0 0 0 0 0 0 0 0 127 0" result="hardAlpha"/>
<feOffset dx="2.94643" dy="2.20982"/>
<feComposite in2="hardAlpha" operator="out"/>
<feColorMatrix type="matrix" values="0 0 0 0 0 0 0 0 0 0 0 0 0 0 0 0 0 0 1 0"/>
<feBlend mode="normal" in2="BackgroundImageFix" result="effect1_dropShadow_2744_74312"/>
<feBlend mode="normal" in="SourceGraphic" in2="effect1_dropShadow_2744_74312" result="shape"/>
</filter>
<filter id="filter9_d_2744_74312" x="264.951" y="300.988" width="38.5812" height="20.9151" filterUnits="userSpaceOnUse" color-interpolation-filters="sRGB">
<feFlood flood-opacity="0" result="BackgroundImageFix"/>
<feColorMatrix in="SourceAlpha" type="matrix" values="0 0 0 0 0 0 0 0 0 0 0 0 0 0 0 0 0 0 127 0" result="hardAlpha"/>
<feOffset dx="2.94643" dy="2.20982"/>
<feComposite in2="hardAlpha" operator="out"/>
<feColorMatrix type="matrix" values="0 0 0 0 0 0 0 0 0 0 0 0 0 0 0 0 0 0 1 0"/>
<feBlend mode="normal" in2="BackgroundImageFix" result="effect1_dropShadow_2744_74312"/>
<feBlend mode="normal" in="SourceGraphic" in2="effect1_dropShadow_2744_74312" result="shape"/>
</filter>
<filter id="filter10_d_2744_74312" x="190.732" y="323.376" width="38.5812" height="20.9151" filterUnits="userSpaceOnUse" color-interpolation-filters="sRGB">
<feFlood flood-opacity="0" result="BackgroundImageFix"/>
<feColorMatrix in="SourceAlpha" type="matrix" values="0 0 0 0 0 0 0 0 0 0 0 0 0 0 0 0 0 0 127 0" result="hardAlpha"/>
<feOffset dx="2.94643" dy="2.20982"/>
<feComposite in2="hardAlpha" operator="out"/>
<feColorMatrix type="matrix" values="0 0 0 0 0 0 0 0 0 0 0 0 0 0 0 0 0 0 1 0"/>
<feBlend mode="normal" in2="BackgroundImageFix" result="effect1_dropShadow_2744_74312"/>
<feBlend mode="normal" in="SourceGraphic" in2="effect1_dropShadow_2744_74312" result="shape"/>
</filter>
<filter id="filter11_d_2744_74312" x="227.842" y="323.376" width="38.5812" height="20.9151" filterUnits="userSpaceOnUse" color-interpolation-filters="sRGB">
<feFlood flood-opacity="0" result="BackgroundImageFix"/>
<feColorMatrix in="SourceAlpha" type="matrix" values="0 0 0 0 0 0 0 0 0 0 0 0 0 0 0 0 0 0 127 0" result="hardAlpha"/>
<feOffset dx="2.94643" dy="2.20982"/>
<feComposite in2="hardAlpha" operator="out"/>
<feColorMatrix type="matrix" values="0 0 0 0 0 0 0 0 0 0 0 0 0 0 0 0 0 0 1 0"/>
<feBlend mode="normal" in2="BackgroundImageFix" result="effect1_dropShadow_2744_74312"/>
<feBlend mode="normal" in="SourceGraphic" in2="effect1_dropShadow_2744_74312" result="shape"/>
</filter>
<filter id="filter12_d_2744_74312" x="264.951" y="323.376" width="38.5812" height="20.9151" filterUnits="userSpaceOnUse" color-interpolation-filters="sRGB">
<feFlood flood-opacity="0" result="BackgroundImageFix"/>
<feColorMatrix in="SourceAlpha" type="matrix" values="0 0 0 0 0 0 0 0 0 0 0 0 0 0 0 0 0 0 127 0" result="hardAlpha"/>
<feOffset dx="2.94643" dy="2.20982"/>
<feComposite in2="hardAlpha" operator="out"/>
<feColorMatrix type="matrix" values="0 0 0 0 0 0 0 0 0 0 0 0 0 0 0 0 0 0 1 0"/>
<feBlend mode="normal" in2="BackgroundImageFix" result="effect1_dropShadow_2744_74312"/>
<feBlend mode="normal" in="SourceGraphic" in2="effect1_dropShadow_2744_74312" result="shape"/>
</filter>
<filter id="filter13_d_2744_74312" x="316.996" y="163.482" width="24.7397" height="172.411" filterUnits="userSpaceOnUse" color-interpolation-filters="sRGB">
<feFlood flood-opacity="0" result="BackgroundImageFix"/>
<feColorMatrix in="SourceAlpha" type="matrix" values="0 0 0 0 0 0 0 0 0 0 0 0 0 0 0 0 0 0 127 0" result="hardAlpha"/>
<feOffset dx="3.68304" dy="2.94643"/>
<feComposite in2="hardAlpha" operator="out"/>
<feColorMatrix type="matrix" values="0 0 0 0 0 0 0 0 0 0 0 0 0 0 0 0 0 0 1 0"/>
<feBlend mode="normal" in2="BackgroundImageFix" result="effect1_dropShadow_2744_74312"/>
<feBlend mode="normal" in="SourceGraphic" in2="effect1_dropShadow_2744_74312" result="shape"/>
</filter>
<clipPath id="clip0_2744_74312">
<rect width="495" height="422.076" fill="white"/>
</clipPath>
<clipPath id="clip1_2744_74312">
<rect width="114.174" height="95.7589" fill="white" transform="translate(190.73 62.6116)"/>
</clipPath>
</defs>
</svg>
