<svg width="495" height="423" viewBox="0 0 495 423" fill="none" xmlns="http://www.w3.org/2000/svg">
<g filter="url(#filter0_d_2744_74223)">
<path d="M179.414 127C179.414 119.271 185.68 113.005 193.41 113.005H301.59C309.32 113.005 315.586 119.271 315.586 127V308.186C315.586 315.916 309.32 322.182 301.59 322.182H193.41C185.68 322.182 179.414 315.916 179.414 308.186V127Z" fill="#00FF2F"/>
<path d="M315.586 137.356V293.765M193.41 322.182H301.59C309.32 322.182 315.586 315.916 315.586 308.186V127C315.586 119.271 309.32 113.005 301.59 113.005H193.41C185.68 113.005 179.414 119.271 179.414 127V308.186C179.414 315.916 185.68 322.182 193.41 322.182Z" stroke="black" stroke-width="4.41964" stroke-linejoin="round"/>
</g>
<rect x="195.584" y="144.375" width="103.831" height="69.2411" rx="6.62946" fill="#F821A6" stroke="black" stroke-width="4.41964"/>
<g filter="url(#filter1_d_2744_74223)">
<rect x="192.941" y="228.22" width="31.2169" height="14.2857" rx="7.14286" fill="#E0FFDD"/>
<rect x="192.941" y="228.22" width="31.2169" height="14.2857" rx="7.14286" stroke="black" stroke-width="4.41964"/>
</g>
<g filter="url(#filter2_d_2744_74223)">
<rect x="230.051" y="228.22" width="31.2169" height="14.2857" rx="7.14286" fill="#E0FFDD"/>
<rect x="230.051" y="228.22" width="31.2169" height="14.2857" rx="7.14286" stroke="black" stroke-width="4.41964"/>
</g>
<g filter="url(#filter3_d_2744_74223)">
<rect x="267.16" y="228.22" width="31.2169" height="14.2857" rx="7.14286" fill="#E0FFDD"/>
<rect x="267.16" y="228.22" width="31.2169" height="14.2857" rx="7.14286" stroke="black" stroke-width="4.41964"/>
</g>
<g filter="url(#filter4_d_2744_74223)">
<rect x="192.941" y="250.609" width="31.2169" height="14.2857" rx="7.14286" fill="#E0FFDD"/>
<rect x="192.941" y="250.609" width="31.2169" height="14.2857" rx="7.14286" stroke="black" stroke-width="4.41964"/>
</g>
<g filter="url(#filter5_d_2744_74223)">
<rect x="230.051" y="250.609" width="31.2169" height="14.2857" rx="7.14286" fill="#E0FFDD"/>
<rect x="230.051" y="250.609" width="31.2169" height="14.2857" rx="7.14286" stroke="black" stroke-width="4.41964"/>
</g>
<g filter="url(#filter6_d_2744_74223)">
<rect x="267.16" y="250.609" width="31.2169" height="14.2857" rx="7.14286" fill="#E0FFDD"/>
<rect x="267.16" y="250.609" width="31.2169" height="14.2857" rx="7.14286" stroke="black" stroke-width="4.41964"/>
</g>
<g filter="url(#filter7_d_2744_74223)">
<rect x="192.941" y="272.997" width="31.2169" height="14.2857" rx="7.14286" fill="#E0FFDD"/>
<rect x="192.941" y="272.997" width="31.2169" height="14.2857" rx="7.14286" stroke="black" stroke-width="4.41964"/>
</g>
<g filter="url(#filter8_d_2744_74223)">
<rect x="230.051" y="272.997" width="31.2169" height="14.2857" rx="7.14286" fill="#E0FFDD"/>
<rect x="230.051" y="272.997" width="31.2169" height="14.2857" rx="7.14286" stroke="black" stroke-width="4.41964"/>
</g>
<g filter="url(#filter9_d_2744_74223)">
<rect x="267.16" y="272.997" width="31.2169" height="14.2857" rx="7.14286" fill="#E0FFDD"/>
<rect x="267.16" y="272.997" width="31.2169" height="14.2857" rx="7.14286" stroke="black" stroke-width="4.41964"/>
</g>
<g filter="url(#filter10_d_2744_74223)">
<rect x="192.941" y="295.385" width="31.2169" height="14.2857" rx="7.14286" fill="#FF0062"/>
<rect x="192.941" y="295.385" width="31.2169" height="14.2857" rx="7.14286" stroke="black" stroke-width="4.41964"/>
</g>
<g filter="url(#filter11_d_2744_74223)">
<rect x="230.051" y="295.385" width="31.2169" height="14.2857" rx="7.14286" fill="#FFBB00"/>
<rect x="230.051" y="295.385" width="31.2169" height="14.2857" rx="7.14286" stroke="black" stroke-width="4.41964"/>
</g>
<g filter="url(#filter12_d_2744_74223)">
<rect x="267.16" y="295.385" width="31.2169" height="14.2857" rx="7.14286" fill="#0D8300"/>
<rect x="267.16" y="295.385" width="31.2169" height="14.2857" rx="7.14286" stroke="black" stroke-width="4.41964"/>
</g>
<path d="M237.176 161.534C237.176 163.037 235.958 164.255 234.455 164.255C232.953 164.255 231.734 163.037 231.734 161.534C231.734 160.031 232.953 161.717 234.455 161.717C235.958 161.717 237.176 160.031 237.176 161.534Z" stroke="black" stroke-width="5.53823"/>
<path d="M263.413 161.534C263.413 163.037 262.194 164.255 260.692 164.255C259.189 164.255 257.971 163.037 257.971 161.534C257.971 160.031 259.189 161.717 260.692 161.717C262.194 161.717 263.413 160.031 263.413 161.534Z" stroke="black" stroke-width="5.53823"/>
<path d="M261.655 175.018C261.729 175.611 261.768 176.215 261.768 176.828C261.767 184.828 255.282 191.314 247.282 191.314C239.282 191.314 232.797 184.828 232.797 176.828C232.797 176.215 232.835 175.611 232.909 175.018H261.655Z" fill="black"/>
<circle cx="216.632" cy="174.554" r="12.2316" fill="#FF6BAD"/>
<circle cx="277.146" cy="174.554" r="12.1886" fill="#FF6BAD"/>
<rect x="188.357" y="123.66" width="119.126" height="8.79565" rx="4.39783" fill="black"/>
<g clip-path="url(#clip0_2744_74223)">
<path d="M196.623 42.1387L203.091 47.2949L209.559 42.1387L216.027 47.2949L222.495 42.1387L228.963 47.2949L235.431 42.1387L241.898 47.2949L248.366 42.1387L254.834 47.2949L261.302 42.1387L267.77 47.2949L274.238 42.1387L280.706 47.2949L287.174 42.1387L293.642 47.2949L300.11 42.1387V138.092H196.623V42.1387Z" fill="#F0F0F0" stroke="black" stroke-width="4.41964" stroke-linejoin="round"/>
<path d="M238.387 89.8015L245.04 96.4548L258.347 83.1483M270.544 89.8015C270.544 102.05 260.615 111.979 248.367 111.979C236.119 111.979 226.189 102.05 226.189 89.8015C226.189 77.5532 236.119 67.624 248.367 67.624C260.615 67.624 270.544 77.5532 270.544 89.8015Z" stroke="#07F468" stroke-width="4.4355" stroke-linecap="round" stroke-linejoin="round"/>
</g>
<g filter="url(#filter13_d_2744_74223)">
<path d="M319.203 300.536V135.491L324.287 136.391C330.97 137.576 335.841 143.385 335.841 150.172V285.854C335.841 292.642 330.97 298.451 324.287 299.635L319.203 300.536Z" fill="#00FF2F"/>
<path d="M319.203 300.536V135.491L324.287 136.391C330.97 137.576 335.841 143.385 335.841 150.172V285.854C335.841 292.642 330.97 298.451 324.287 299.635L319.203 300.536Z" stroke="black" stroke-width="4.41964" stroke-linejoin="round"/>
</g>
<defs>
<filter id="filter0_d_2744_74223" x="177.205" y="110.795" width="149.429" height="220.963" filterUnits="userSpaceOnUse" color-interpolation-filters="sRGB">
<feFlood flood-opacity="0" result="BackgroundImageFix"/>
<feColorMatrix in="SourceAlpha" type="matrix" values="0 0 0 0 0 0 0 0 0 0 0 0 0 0 0 0 0 0 127 0" result="hardAlpha"/>
<feOffset dx="8.83929" dy="7.36607"/>
<feComposite in2="hardAlpha" operator="out"/>
<feColorMatrix type="matrix" values="0 0 0 0 0 0 0 0 0 0 0 0 0 0 0 0 0 0 1 0"/>
<feBlend mode="normal" in2="BackgroundImageFix" result="effect1_dropShadow_2744_74223"/>
<feBlend mode="normal" in="SourceGraphic" in2="effect1_dropShadow_2744_74223" result="shape"/>
</filter>
<filter id="filter1_d_2744_74223" x="190.732" y="226.01" width="38.5812" height="20.9151" filterUnits="userSpaceOnUse" color-interpolation-filters="sRGB">
<feFlood flood-opacity="0" result="BackgroundImageFix"/>
<feColorMatrix in="SourceAlpha" type="matrix" values="0 0 0 0 0 0 0 0 0 0 0 0 0 0 0 0 0 0 127 0" result="hardAlpha"/>
<feOffset dx="2.94643" dy="2.20982"/>
<feComposite in2="hardAlpha" operator="out"/>
<feColorMatrix type="matrix" values="0 0 0 0 0 0 0 0 0 0 0 0 0 0 0 0 0 0 1 0"/>
<feBlend mode="normal" in2="BackgroundImageFix" result="effect1_dropShadow_2744_74223"/>
<feBlend mode="normal" in="SourceGraphic" in2="effect1_dropShadow_2744_74223" result="shape"/>
</filter>
<filter id="filter2_d_2744_74223" x="227.842" y="226.01" width="38.5812" height="20.9151" filterUnits="userSpaceOnUse" color-interpolation-filters="sRGB">
<feFlood flood-opacity="0" result="BackgroundImageFix"/>
<feColorMatrix in="SourceAlpha" type="matrix" values="0 0 0 0 0 0 0 0 0 0 0 0 0 0 0 0 0 0 127 0" result="hardAlpha"/>
<feOffset dx="2.94643" dy="2.20982"/>
<feComposite in2="hardAlpha" operator="out"/>
<feColorMatrix type="matrix" values="0 0 0 0 0 0 0 0 0 0 0 0 0 0 0 0 0 0 1 0"/>
<feBlend mode="normal" in2="BackgroundImageFix" result="effect1_dropShadow_2744_74223"/>
<feBlend mode="normal" in="SourceGraphic" in2="effect1_dropShadow_2744_74223" result="shape"/>
</filter>
<filter id="filter3_d_2744_74223" x="264.951" y="226.01" width="38.5812" height="20.9151" filterUnits="userSpaceOnUse" color-interpolation-filters="sRGB">
<feFlood flood-opacity="0" result="BackgroundImageFix"/>
<feColorMatrix in="SourceAlpha" type="matrix" values="0 0 0 0 0 0 0 0 0 0 0 0 0 0 0 0 0 0 127 0" result="hardAlpha"/>
<feOffset dx="2.94643" dy="2.20982"/>
<feComposite in2="hardAlpha" operator="out"/>
<feColorMatrix type="matrix" values="0 0 0 0 0 0 0 0 0 0 0 0 0 0 0 0 0 0 1 0"/>
<feBlend mode="normal" in2="BackgroundImageFix" result="effect1_dropShadow_2744_74223"/>
<feBlend mode="normal" in="SourceGraphic" in2="effect1_dropShadow_2744_74223" result="shape"/>
</filter>
<filter id="filter4_d_2744_74223" x="190.732" y="248.399" width="38.5812" height="20.9151" filterUnits="userSpaceOnUse" color-interpolation-filters="sRGB">
<feFlood flood-opacity="0" result="BackgroundImageFix"/>
<feColorMatrix in="SourceAlpha" type="matrix" values="0 0 0 0 0 0 0 0 0 0 0 0 0 0 0 0 0 0 127 0" result="hardAlpha"/>
<feOffset dx="2.94643" dy="2.20982"/>
<feComposite in2="hardAlpha" operator="out"/>
<feColorMatrix type="matrix" values="0 0 0 0 0 0 0 0 0 0 0 0 0 0 0 0 0 0 1 0"/>
<feBlend mode="normal" in2="BackgroundImageFix" result="effect1_dropShadow_2744_74223"/>
<feBlend mode="normal" in="SourceGraphic" in2="effect1_dropShadow_2744_74223" result="shape"/>
</filter>
<filter id="filter5_d_2744_74223" x="227.842" y="248.399" width="38.5812" height="20.9151" filterUnits="userSpaceOnUse" color-interpolation-filters="sRGB">
<feFlood flood-opacity="0" result="BackgroundImageFix"/>
<feColorMatrix in="SourceAlpha" type="matrix" values="0 0 0 0 0 0 0 0 0 0 0 0 0 0 0 0 0 0 127 0" result="hardAlpha"/>
<feOffset dx="2.94643" dy="2.20982"/>
<feComposite in2="hardAlpha" operator="out"/>
<feColorMatrix type="matrix" values="0 0 0 0 0 0 0 0 0 0 0 0 0 0 0 0 0 0 1 0"/>
<feBlend mode="normal" in2="BackgroundImageFix" result="effect1_dropShadow_2744_74223"/>
<feBlend mode="normal" in="SourceGraphic" in2="effect1_dropShadow_2744_74223" result="shape"/>
</filter>
<filter id="filter6_d_2744_74223" x="264.951" y="248.399" width="38.5812" height="20.9151" filterUnits="userSpaceOnUse" color-interpolation-filters="sRGB">
<feFlood flood-opacity="0" result="BackgroundImageFix"/>
<feColorMatrix in="SourceAlpha" type="matrix" values="0 0 0 0 0 0 0 0 0 0 0 0 0 0 0 0 0 0 127 0" result="hardAlpha"/>
<feOffset dx="2.94643" dy="2.20982"/>
<feComposite in2="hardAlpha" operator="out"/>
<feColorMatrix type="matrix" values="0 0 0 0 0 0 0 0 0 0 0 0 0 0 0 0 0 0 1 0"/>
<feBlend mode="normal" in2="BackgroundImageFix" result="effect1_dropShadow_2744_74223"/>
<feBlend mode="normal" in="SourceGraphic" in2="effect1_dropShadow_2744_74223" result="shape"/>
</filter>
<filter id="filter7_d_2744_74223" x="190.732" y="270.787" width="38.5812" height="20.9151" filterUnits="userSpaceOnUse" color-interpolation-filters="sRGB">
<feFlood flood-opacity="0" result="BackgroundImageFix"/>
<feColorMatrix in="SourceAlpha" type="matrix" values="0 0 0 0 0 0 0 0 0 0 0 0 0 0 0 0 0 0 127 0" result="hardAlpha"/>
<feOffset dx="2.94643" dy="2.20982"/>
<feComposite in2="hardAlpha" operator="out"/>
<feColorMatrix type="matrix" values="0 0 0 0 0 0 0 0 0 0 0 0 0 0 0 0 0 0 1 0"/>
<feBlend mode="normal" in2="BackgroundImageFix" result="effect1_dropShadow_2744_74223"/>
<feBlend mode="normal" in="SourceGraphic" in2="effect1_dropShadow_2744_74223" result="shape"/>
</filter>
<filter id="filter8_d_2744_74223" x="227.842" y="270.787" width="38.5812" height="20.9151" filterUnits="userSpaceOnUse" color-interpolation-filters="sRGB">
<feFlood flood-opacity="0" result="BackgroundImageFix"/>
<feColorMatrix in="SourceAlpha" type="matrix" values="0 0 0 0 0 0 0 0 0 0 0 0 0 0 0 0 0 0 127 0" result="hardAlpha"/>
<feOffset dx="2.94643" dy="2.20982"/>
<feComposite in2="hardAlpha" operator="out"/>
<feColorMatrix type="matrix" values="0 0 0 0 0 0 0 0 0 0 0 0 0 0 0 0 0 0 1 0"/>
<feBlend mode="normal" in2="BackgroundImageFix" result="effect1_dropShadow_2744_74223"/>
<feBlend mode="normal" in="SourceGraphic" in2="effect1_dropShadow_2744_74223" result="shape"/>
</filter>
<filter id="filter9_d_2744_74223" x="264.951" y="270.787" width="38.5812" height="20.9151" filterUnits="userSpaceOnUse" color-interpolation-filters="sRGB">
<feFlood flood-opacity="0" result="BackgroundImageFix"/>
<feColorMatrix in="SourceAlpha" type="matrix" values="0 0 0 0 0 0 0 0 0 0 0 0 0 0 0 0 0 0 127 0" result="hardAlpha"/>
<feOffset dx="2.94643" dy="2.20982"/>
<feComposite in2="hardAlpha" operator="out"/>
<feColorMatrix type="matrix" values="0 0 0 0 0 0 0 0 0 0 0 0 0 0 0 0 0 0 1 0"/>
<feBlend mode="normal" in2="BackgroundImageFix" result="effect1_dropShadow_2744_74223"/>
<feBlend mode="normal" in="SourceGraphic" in2="effect1_dropShadow_2744_74223" result="shape"/>
</filter>
<filter id="filter10_d_2744_74223" x="190.732" y="293.176" width="38.5812" height="20.9151" filterUnits="userSpaceOnUse" color-interpolation-filters="sRGB">
<feFlood flood-opacity="0" result="BackgroundImageFix"/>
<feColorMatrix in="SourceAlpha" type="matrix" values="0 0 0 0 0 0 0 0 0 0 0 0 0 0 0 0 0 0 127 0" result="hardAlpha"/>
<feOffset dx="2.94643" dy="2.20982"/>
<feComposite in2="hardAlpha" operator="out"/>
<feColorMatrix type="matrix" values="0 0 0 0 0 0 0 0 0 0 0 0 0 0 0 0 0 0 1 0"/>
<feBlend mode="normal" in2="BackgroundImageFix" result="effect1_dropShadow_2744_74223"/>
<feBlend mode="normal" in="SourceGraphic" in2="effect1_dropShadow_2744_74223" result="shape"/>
</filter>
<filter id="filter11_d_2744_74223" x="227.842" y="293.176" width="38.5812" height="20.9151" filterUnits="userSpaceOnUse" color-interpolation-filters="sRGB">
<feFlood flood-opacity="0" result="BackgroundImageFix"/>
<feColorMatrix in="SourceAlpha" type="matrix" values="0 0 0 0 0 0 0 0 0 0 0 0 0 0 0 0 0 0 127 0" result="hardAlpha"/>
<feOffset dx="2.94643" dy="2.20982"/>
<feComposite in2="hardAlpha" operator="out"/>
<feColorMatrix type="matrix" values="0 0 0 0 0 0 0 0 0 0 0 0 0 0 0 0 0 0 1 0"/>
<feBlend mode="normal" in2="BackgroundImageFix" result="effect1_dropShadow_2744_74223"/>
<feBlend mode="normal" in="SourceGraphic" in2="effect1_dropShadow_2744_74223" result="shape"/>
</filter>
<filter id="filter12_d_2744_74223" x="264.951" y="293.176" width="38.5812" height="20.9151" filterUnits="userSpaceOnUse" color-interpolation-filters="sRGB">
<feFlood flood-opacity="0" result="BackgroundImageFix"/>
<feColorMatrix in="SourceAlpha" type="matrix" values="0 0 0 0 0 0 0 0 0 0 0 0 0 0 0 0 0 0 127 0" result="hardAlpha"/>
<feOffset dx="2.94643" dy="2.20982"/>
<feComposite in2="hardAlpha" operator="out"/>
<feColorMatrix type="matrix" values="0 0 0 0 0 0 0 0 0 0 0 0 0 0 0 0 0 0 1 0"/>
<feBlend mode="normal" in2="BackgroundImageFix" result="effect1_dropShadow_2744_74223"/>
<feBlend mode="normal" in="SourceGraphic" in2="effect1_dropShadow_2744_74223" result="shape"/>
</filter>
<filter id="filter13_d_2744_74223" x="316.994" y="133.281" width="24.7397" height="172.411" filterUnits="userSpaceOnUse" color-interpolation-filters="sRGB">
<feFlood flood-opacity="0" result="BackgroundImageFix"/>
<feColorMatrix in="SourceAlpha" type="matrix" values="0 0 0 0 0 0 0 0 0 0 0 0 0 0 0 0 0 0 127 0" result="hardAlpha"/>
<feOffset dx="3.68304" dy="2.94643"/>
<feComposite in2="hardAlpha" operator="out"/>
<feColorMatrix type="matrix" values="0 0 0 0 0 0 0 0 0 0 0 0 0 0 0 0 0 0 1 0"/>
<feBlend mode="normal" in2="BackgroundImageFix" result="effect1_dropShadow_2744_74223"/>
<feBlend mode="normal" in="SourceGraphic" in2="effect1_dropShadow_2744_74223" result="shape"/>
</filter>
<clipPath id="clip0_2744_74223">
<rect width="114.174" height="95.7589" fill="white" transform="translate(190.73 32.4106)"/>
</clipPath>
</defs>
</svg>
