<svg xmlns="http://www.w3.org/2000/svg" width="16" height="17" viewBox="0 0 10 11" fill="none">
  <g clip-path="url(#clip0_15031_21025)">
    <path d="M2.08301 2.20404C2.08301 1.79939 2.08301 1.59707 2.16738 1.48554C2.24088 1.38838 2.35323 1.32825 2.47484 1.32099C2.61444 1.31265 2.78278 1.42488 3.11947 1.64934L7.50096 4.57033C7.77916 4.7558 7.91826 4.84854 7.96673 4.96542C8.00911 5.06761 8.00911 5.18246 7.96673 5.28465C7.91826 5.40153 7.77916 5.49426 7.50096 5.67973L3.11947 8.60072C2.78278 8.82518 2.61444 8.93741 2.47484 8.92908C2.35323 8.92182 2.24088 8.86169 2.16738 8.76453C2.08301 8.653 2.08301 8.45067 2.08301 8.04602V2.20404Z" fill="white" stroke="white" stroke-linecap="round" stroke-linejoin="round"/>
  </g>
  <defs>
    <clipPath id="clip0_15031_21025">
      <rect width="10" height="10" fill="white" transform="translate(0 0.125)"/>
    </clipPath>
  </defs>
</svg>