<svg xmlns="http://www.w3.org/2000/svg" width="14" height="4" viewBox="0 0 14 4" fill="none">
<path d="M6.15625 1.9C6.15742 2.30952 6.49035 2.64055 6.89987 2.63939C7.30938 2.63822 7.64042 2.30529 7.63925 1.89577C7.63808 1.48625 7.30515 1.15522 6.89563 1.15639C6.48612 1.15756 6.15508 1.49048 6.15625 1.9Z" stroke="#667085" stroke-width="1.48301" stroke-linecap="round" stroke-linejoin="round"/>
<path d="M11.3468 1.8852C11.3479 2.29471 11.6808 2.62575 12.0904 2.62458C12.4999 2.62341 12.8309 2.29048 12.8298 1.88097C12.8286 1.47145 12.4957 1.14041 12.0861 1.14158C11.6766 1.14275 11.3456 1.47568 11.3468 1.8852Z" stroke="#667085" stroke-width="1.48301" stroke-linecap="round" stroke-linejoin="round"/>
<path d="M0.965748 1.91481C0.966916 2.32433 1.29984 2.65536 1.70936 2.65419C2.11888 2.65302 2.44992 2.3201 2.44875 1.91058C2.44758 1.50106 2.11465 1.17002 1.70513 1.17119C1.29561 1.17236 0.96458 1.50529 0.965748 1.91481Z" stroke="#667085" stroke-width="1.48301" stroke-linecap="round" stroke-linejoin="round"/>
</svg>
