<svg width="24" height="24" viewBox="0 0 24 24" fill="none" xmlns="http://www.w3.org/2000/svg">
<path fill-rule="evenodd" clip-rule="evenodd" d="M10.8006 12.7444C9.70696 12.8078 8.62314 12.995 7.57 13.3031L7.4353 13.3425C5.09133 14.0281 3.48047 16.1776 3.48047 18.6197V19.0779C3.48047 20.138 4.33983 20.9973 5.39991 20.9973H18.6C19.6601 20.9973 20.5195 20.138 20.5195 19.0779V18.6022C20.5195 16.1684 18.8939 14.0165 16.5608 13.3237C15.3713 12.9705 14.1318 12.7686 12.8907 12.7279C12.7342 12.7227 12.5778 12.7201 12.4214 12.7201H11.6394C11.3594 12.7201 11.0797 12.7283 10.8006 12.7444ZM10.911 11.2378C11.1491 11.2908 11.3928 11.3227 11.6394 11.3325C11.6935 11.3346 11.7477 11.3357 11.802 11.3357C12.0106 11.3357 12.2176 11.3198 12.4214 11.2887C12.532 11.2718 12.6417 11.2504 12.7502 11.2247C13.4921 11.0485 14.1777 10.6673 14.7254 10.1154C15.5007 9.33397 15.9363 8.27419 15.9363 7.16914C15.9363 6.0641 15.5007 5.00431 14.7254 4.22293C13.9501 3.44154 12.8985 3.00256 11.802 3.00256C10.7055 3.00256 9.65392 3.44154 8.87859 4.22293C8.10325 5.00431 7.66768 6.0641 7.66768 7.16914C7.66768 8.27419 8.10325 9.33397 8.87859 10.1154C9.44036 10.6815 10.1472 11.0679 10.911 11.2378ZM7.99079 14.7417L7.85609 14.7811C6.1511 15.2798 4.97938 16.8433 4.97938 18.6197V19.0779C4.97938 19.3101 5.16766 19.4984 5.39991 19.4984H18.6C18.8323 19.4984 19.0205 19.3101 19.0205 19.0779V18.6022C19.0205 16.8403 17.8394 15.267 16.1341 14.7606C14.9319 14.4036 13.6726 14.219 12.4214 14.219H11.6394C10.4045 14.219 9.17599 14.395 7.99079 14.7417ZM11.802 4.50147C11.1068 4.50147 10.4377 4.77968 9.94259 5.27869C9.44705 5.77809 9.16658 6.45789 9.16658 7.16914C9.16658 7.8804 9.44705 8.56019 9.94259 9.0596C10.4377 9.55861 11.1068 9.83681 11.802 9.83681C12.4972 9.83681 13.1662 9.55861 13.6614 9.0596C14.1569 8.56019 14.4374 7.8804 14.4374 7.16914C14.4374 6.45789 14.1569 5.77809 13.6614 5.27869C13.1662 4.77968 12.4972 4.50147 11.802 4.50147Z" fill="#303437"/>
</svg>
