<?xml version="1.0" encoding="utf-8"?>
<svg viewBox="0 0 128 128" fill="none" xmlns="http://www.w3.org/2000/svg">
  <g transform="matrix(1, 0, 0, 1, -99.58358764648438, -100.07902526855467)">
    <path d="M 163.001 109.667 C 170.005 109.667 176.94 111.046 183.411 113.726 C 189.882 116.407 195.761 120.335 200.714 125.287 C 205.666 130.24 209.595 136.119 212.275 142.59 C 214.955 149.061 216.335 155.996 216.335 163" stroke="#98A2B3" stroke-width="2.5" stroke-linecap="round" stroke-linejoin="round"/>
    <path d="M 216.335 163 C 216.335 171.416 214.343 179.713 210.522 187.213 C 206.701 194.712 201.159 201.2 194.35 206.147 L 163.001 163" stroke="#98A2B3" stroke-width="2.5" stroke-linecap="round" stroke-linejoin="round"/>
    <path d="M 216.335 163 L 163.001 163" stroke="#98A2B3" stroke-width="2.5" stroke-linecap="round" stroke-linejoin="round"/>
    <path d="M 163.001 109.667 C 192.456 109.667 216.335 133.545 216.335 163" stroke="#98A2B3" stroke-width="2.5" stroke-linecap="round" stroke-linejoin="round"/>
    <path d="M 163.001 109.667 C 133.546 109.667 109.668 133.545 109.668 163 C 109.668 192.455 133.546 216.333 163.001 216.333 C 192.456 216.333 216.335 192.455 216.335 163" stroke="#98A2B3" stroke-width="2.5" stroke-linecap="round" stroke-linejoin="round"/>
    <path d="M 163.001 109.667 L 163.001 163" stroke="#98A2B3" stroke-width="2.5" stroke-linecap="round" stroke-linejoin="round"/>
  </g>
</svg>