<svg width="330" height="102" viewBox="0 0 330 102" fill="none" xmlns="http://www.w3.org/2000/svg">
<g filter="url(#filter0_d_10558_8926)">
<mask id="mask0_10558_8926" style="mask-type:alpha" maskUnits="userSpaceOnUse" x="0" y="34" width="326" height="65">
<path d="M304.868 34.0002H0.819092L21.8275 98.0002H325.876L304.868 34.0002Z" fill="black" fill-opacity="0.2"/>
<path d="M304.868 34.0002H0.819092L21.8275 98.0002H325.876L304.868 34.0002Z" fill="#9FFF02"/>
</mask>
<g mask="url(#mask0_10558_8926)">
<g filter="url(#filter1_b_10558_8926)">
<path d="M304.868 34.0002H0.819092L21.8275 98.0002H325.876L304.868 34.0002Z" fill="black" fill-opacity="0.5"/>
<path d="M324.495 97.0002L304.143 35.0002H2.19986L22.5518 97.0002H324.495Z" stroke="#0018EF" stroke-width="2"/>
</g>
</g>
</g>
<path d="M137.47 59.0402L133.57 73.0002H130.27L127.65 63.0602L124.91 73.0002L121.63 73.0202L117.87 59.0402H120.87L123.33 69.8802L126.17 59.0402H129.29L131.97 69.8202L134.45 59.0402H137.47ZM147.859 70.3402H142.299L141.379 73.0002H138.439L143.459 59.0202H146.719L151.739 73.0002H148.779L147.859 70.3402ZM147.099 68.1002L145.079 62.2602L143.059 68.1002H147.099ZM163.115 59.0402V61.3002H159.395V73.0002H156.595V61.3002H152.875V59.0402H163.115ZM164.478 66.0002C164.478 64.6269 164.785 63.4002 165.398 62.3202C166.025 61.2269 166.871 60.3802 167.938 59.7802C169.018 59.1669 170.225 58.8602 171.558 58.8602C173.118 58.8602 174.485 59.2602 175.658 60.0602C176.831 60.8602 177.651 61.9669 178.118 63.3802H174.898C174.578 62.7136 174.125 62.2136 173.538 61.8802C172.965 61.5469 172.298 61.3802 171.538 61.3802C170.725 61.3802 169.998 61.5736 169.358 61.9602C168.731 62.3336 168.238 62.8669 167.878 63.5602C167.531 64.2536 167.358 65.0669 167.358 66.0002C167.358 66.9202 167.531 67.7336 167.878 68.4402C168.238 69.1336 168.731 69.6736 169.358 70.0602C169.998 70.4336 170.725 70.6202 171.538 70.6202C172.298 70.6202 172.965 70.4536 173.538 70.1202C174.125 69.7736 174.578 69.2669 174.898 68.6002H178.118C177.651 70.0269 176.831 71.1402 175.658 71.9402C174.498 72.7269 173.131 73.1202 171.558 73.1202C170.225 73.1202 169.018 72.8202 167.938 72.2202C166.871 71.6069 166.025 70.7602 165.398 69.6802C164.785 68.6002 164.478 67.3736 164.478 66.0002ZM192.09 59.0402V73.0002H189.29V67.0602H183.31V73.0002H180.51V59.0402H183.31V64.7802H189.29V59.0402H192.09ZM202.411 70.7802H207.011V73.0002H199.611V59.0402H202.411V70.7802ZM211.591 59.0402V73.0002H208.791V59.0402H211.591ZM226.897 59.0402L221.777 73.0002H218.377L213.257 59.0402H216.257L220.097 70.1402L223.917 59.0402H226.897ZM231.376 61.3002V64.8002H236.076V67.0202H231.376V70.7202H236.676V73.0002H228.576V59.0202H236.676V61.3002H231.376Z" fill="white"/>
<circle cx="260.635" cy="66.0002" r="6.5" fill="#FF4848"/>
<defs>
<filter id="filter0_d_10558_8926" x="0.819092" y="34.0002" width="329.057" height="68" filterUnits="userSpaceOnUse" color-interpolation-filters="sRGB">
<feFlood flood-opacity="0" result="BackgroundImageFix"/>
<feColorMatrix in="SourceAlpha" type="matrix" values="0 0 0 0 0 0 0 0 0 0 0 0 0 0 0 0 0 0 127 0" result="hardAlpha"/>
<feOffset dx="4" dy="4"/>
<feComposite in2="hardAlpha" operator="out"/>
<feColorMatrix type="matrix" values="0 0 0 0 0 0 0 0 0 0.0938526 0 0 0 0 0.938525 0 0 0 1 0"/>
<feBlend mode="normal" in2="BackgroundImageFix" result="effect1_dropShadow_10558_8926"/>
<feBlend mode="normal" in="SourceGraphic" in2="effect1_dropShadow_10558_8926" result="shape"/>
</filter>
<filter id="filter1_b_10558_8926" x="-9.18091" y="24.0002" width="345.057" height="84" filterUnits="userSpaceOnUse" color-interpolation-filters="sRGB">
<feFlood flood-opacity="0" result="BackgroundImageFix"/>
<feGaussianBlur in="BackgroundImageFix" stdDeviation="5"/>
<feComposite in2="SourceAlpha" operator="in" result="effect1_backgroundBlur_10558_8926"/>
<feBlend mode="normal" in="SourceGraphic" in2="effect1_backgroundBlur_10558_8926" result="shape"/>
</filter>
</defs>
</svg>
