<svg width="32" height="32" viewBox="0 0 32 32" fill="none" xmlns="http://www.w3.org/2000/svg">
<path d="M23.7919 22.366H8.38373L9.94179 18.3734H23.3077L23.7919 22.366Z" fill="#344054"/>
<path d="M19.2673 3.08838C20.5836 3.08838 21.3541 3.37563 21.9809 3.6537C22.7077 3.96875 23.2726 4.55753 23.2726 4.55753L26.8004 7.69391L26.8675 7.77111C27.0273 8.01083 27.2148 8.40823 27.2706 8.85114C27.3276 9.30306 27.249 9.83971 26.8176 10.2712C26.5672 10.5215 26.2333 10.6218 25.9146 10.6502C25.5939 10.6786 25.2468 10.6383 24.9164 10.5691C24.2549 10.4303 23.5828 10.1569 23.1626 9.94677L22.2292 9.47967L23.1143 16.7763H10.5649L14.984 5.45197L14.9856 5.44885C15.3177 4.61847 16.5637 3.08838 19.2673 3.08838Z" fill="#344054"/>
<path d="M6.40326 23.5532L25.8504 23.5532C25.8504 23.5532 28.564 25.3622 28.4509 26.9451C28.3379 28.528 27.4871 28.363 26.5288 28.528C23.9033 28.9803 7.84811 29.0933 5.38568 28.528C4.49848 28.3244 3.77745 28.1888 3.57665 27.0582C3.27423 25.3553 6.40326 23.5532 6.40326 23.5532Z" fill="#344054"/>
</svg>
