 <svg xmlns="http://www.w3.org/2000/svg" width="16" height="16" viewBox="0 0 16 16" fill="none">
                                <path d="M8.00016 8.66699C8.36835 8.66699 8.66683 8.36851 8.66683 8.00033C8.66683 7.63214 8.36835 7.33366 8.00016 7.33366C7.63197 7.33366 7.3335 7.63214 7.3335 8.00033C7.3335 8.36851 7.63197 8.66699 8.00016 8.66699Z" stroke="#E9E5D3" stroke-opacity="0.9" stroke-width="1.25" stroke-linecap="round" stroke-linejoin="round"/>
                                <path d="M8.00016 4.00033C8.36835 4.00033 8.66683 3.70185 8.66683 3.33366C8.66683 2.96547 8.36835 2.66699 8.00016 2.66699C7.63197 2.66699 7.3335 2.96547 7.3335 3.33366C7.3335 3.70185 7.63197 4.00033 8.00016 4.00033Z" stroke="#E9E5D3" stroke-opacity="0.9" stroke-width="1.25" stroke-linecap="round" stroke-linejoin="round"/>
                                <path d="M8.00016 13.3337C8.36835 13.3337 8.66683 13.0352 8.66683 12.667C8.66683 12.2988 8.36835 12.0003 8.00016 12.0003C7.63197 12.0003 7.3335 12.2988 7.3335 12.667C7.3335 13.0352 7.63197 13.3337 8.00016 13.3337Z" stroke="#E9E5D3" stroke-opacity="0.9" stroke-width="1.25" stroke-linecap="round" stroke-linejoin="round"/>
                            </svg>