 <svg xmlns="http://www.w3.org/2000/svg" width="160" height="160" viewBox="0 0 161 160" fill="none">
                        <path d="M28.9803 138.186L72.9572 94.2091C75.5973 91.569 76.9174 90.249 78.4396 89.7544C79.7785 89.3193 81.2208 89.3193 82.5598 89.7544C84.082 90.249 85.4021 91.5691 88.0421 94.2091L131.726 137.893M93.833 100L112.957 80.8758C115.597 78.2357 116.917 76.9156 118.44 76.421C119.779 75.986 121.221 75.986 122.56 76.421C124.082 76.9156 125.402 78.2357 128.042 80.8758L147.166 100M67.1663 60C67.1663 67.3638 61.1968 73.3333 53.833 73.3333C46.4692 73.3333 40.4997 67.3638 40.4997 60C40.4997 52.6362 46.4692 46.6667 53.833 46.6667C61.1968 46.6667 67.1663 52.6362 67.1663 60ZM45.833 140H115.166C126.367 140 131.968 140 136.246 137.82C140.009 135.903 143.069 132.843 144.986 129.08C147.166 124.802 147.166 119.201 147.166 108V52C147.166 40.7989 147.166 35.1984 144.986 30.9202C143.069 27.1569 140.009 24.0973 136.246 22.1799C131.968 20 126.367 20 115.166 20H45.833C34.632 20 29.0314 20 24.7532 22.1799C20.99 24.0973 17.9303 27.1569 16.0129 30.9202C13.833 35.1984 13.833 40.7989 13.833 52V108C13.833 119.201 13.833 124.802 16.0129 129.08C17.9303 132.843 20.99 135.903 24.7532 137.82C29.0314 140 34.632 140 45.833 140Z" stroke="#98A2B3" stroke-width="2" stroke-linecap="round" stroke-linejoin="round"/>
                    </svg>