<svg xmlns="http://www.w3.org/2000/svg" width="16" height="16" viewBox="0 0 16 16"
                                        fill="none">
                                        <path
                                            d="M14 5V9.73333C14 11.2268 14 11.9735 13.7094 12.544C13.4537 13.0457 13.0457 13.4537 12.544 13.7094C11.9735 14 11.2268 14 9.73333 14H5M2.70672 11.2933L5.81591 8.18409C6.03592 7.96408 6.14592 7.85408 6.27277 7.81287C6.38435 7.77661 6.50454 7.77661 6.61612 7.81287C6.74297 7.85408 6.85298 7.96409 7.07298 8.18409L10.7133 11.8244M7.55556 8.66667L9.14924 7.07298C9.36925 6.85297 9.47925 6.74297 9.6061 6.70175C9.71768 6.6655 9.83787 6.6655 9.94945 6.70175C10.0763 6.74297 10.1863 6.85297 10.4063 7.07298L12 8.66667M5.88889 4.77778C5.88889 5.39143 5.39143 5.88889 4.77778 5.88889C4.16413 5.88889 3.66667 5.39143 3.66667 4.77778C3.66667 4.16413 4.16413 3.66667 4.77778 3.66667C5.39143 3.66667 5.88889 4.16413 5.88889 4.77778ZM4.66667 12H9.33333C10.2668 12 10.7335 12 11.09 11.8183C11.4036 11.6586 11.6586 11.4036 11.8183 11.09C12 10.7335 12 10.2668 12 9.33333V4.66667C12 3.73325 12 3.26654 11.8183 2.91002C11.6586 2.59641 11.4036 2.34144 11.09 2.18166C10.7335 2 10.2668 2 9.33333 2H4.66667C3.73325 2 3.26654 2 2.91002 2.18166C2.59641 2.34144 2.34144 2.59641 2.18166 2.91002C2 3.26654 2 3.73325 2 4.66667V9.33333C2 10.2668 2 10.7335 2.18166 11.09C2.34144 11.4036 2.59641 11.6586 2.91002 11.8183C3.26654 12 3.73325 12 4.66667 12Z"
                                            stroke="#182230" stroke-width="1.25" stroke-linecap="round"
                                            stroke-linejoin="round" />
                                    </svg>