<svg xmlns="http://www.w3.org/2000/svg" width="16" height="16" viewBox="0 0 16 16" fill="none">
                            <path
                                d="M7.99984 8.33301C8.36803 8.33301 8.6665 8.03453 8.6665 7.66634V4.66634C8.6665 4.29815 8.36803 3.99967 7.99984 3.99967C7.63165 3.99967 7.33317 4.29815 7.33317 4.66634V7.66634C7.33317 8.03453 7.63165 8.33301 7.99984 8.33301Z"
                                fill="#303437" />
                            <path
                                d="M8.6665 9.99967C8.6665 10.3679 8.36803 10.6663 7.99984 10.6663C7.63165 10.6663 7.33317 10.3679 7.33317 9.99967V9.66634C7.33317 9.29815 7.63165 8.99967 7.99984 8.99967C8.36803 8.99967 8.6665 9.29815 8.6665 9.66634V9.99967Z"
                                fill="#303437" />
                            <path fill-rule="evenodd" clip-rule="evenodd"
                                d="M0.666504 1.99967C0.666504 1.63148 0.964981 1.33301 1.33317 1.33301H14.6665C15.0347 1.33301 15.3332 1.63148 15.3332 1.99967V11.9997C15.3332 12.3679 15.0347 12.6663 14.6665 12.6663H9.94265L8.47124 14.1377C8.21089 14.3981 7.78878 14.3981 7.52843 14.1377L6.05703 12.6663H1.33317C0.964981 12.6663 0.666504 12.3679 0.666504 11.9997V1.99967ZM1.99984 2.66634V11.333H6.33317C6.50998 11.333 6.67955 11.4032 6.80457 11.5283L7.99984 12.7235L9.1951 11.5283C9.32012 11.4032 9.48969 11.333 9.6665 11.333H13.9998V2.66634H1.99984Z"
                                fill="#303437" />
                        </svg>