 <svg xmlns="http://www.w3.org/2000/svg" width="17" height="16" viewBox="0 0 17 16" fill="none">
                            <path
                                d="M14.3609 8.40513C14.5237 8.26563 14.605 8.19589 14.6348 8.11289C14.661 8.04004 14.661 7.96035 14.6348 7.8875C14.605 7.8045 14.5237 7.73476 14.3609 7.59526L8.71375 2.75484C8.4336 2.51471 8.29353 2.39465 8.17493 2.3917C8.07186 2.38915 7.97341 2.43443 7.90828 2.51435C7.83333 2.6063 7.83333 2.7908 7.83333 3.15978V6.02328C6.41021 6.27225 5.10773 6.99337 4.13981 8.07611C3.08455 9.25654 2.50082 10.7842 2.5 12.3675V12.7755C3.19956 11.9328 4.073 11.2512 5.06051 10.7775C5.93113 10.3598 6.87228 10.1124 7.83333 10.0472V12.8406C7.83333 13.2096 7.83333 13.3941 7.90828 13.486C7.97341 13.566 8.07186 13.6112 8.17493 13.6087C8.29353 13.6057 8.4336 13.4857 8.71375 13.2455L14.3609 8.40513Z"
                                stroke="#0C111D" stroke-width="1.5" stroke-linecap="round" stroke-linejoin="round" />
                        </svg>