<svg xmlns="http://www.w3.org/2000/svg" width="16" height="16" viewBox="0 0 16 16" fill="none">
    <path d="M7.99974 10C5.88635 10 4.00694 11.0204 2.8104 12.604C2.55287 12.9448 2.42411 13.1152 2.42832 13.3455C2.43158 13.5235 2.54331 13.7479 2.68332 13.8578C2.86453 14 3.11565 14 3.61789 14H12.3816C12.8838 14 13.1349 14 13.3162 13.8578C13.4562 13.7479 13.5679 13.5235 13.5712 13.3455C13.5754 13.1152 13.4466 12.9448 13.1891 12.604C11.9925 11.0204 10.1131 10 7.99974 10Z" stroke="black" stroke-width="1.33333" stroke-linecap="round" stroke-linejoin="round" />
    <path d="M7.99974 8C9.65659 8 10.9997 6.65685 10.9997 5C10.9997 3.34315 9.65659 2 7.99974 2C6.34288 2 4.99974 3.34315 4.99974 5C4.99974 6.65685 6.34288 8 7.99974 8Z" stroke="black" stroke-width="1.33333" stroke-linecap="round" stroke-linejoin="round" />
</svg>