<svg xmlns="http://www.w3.org/2000/svg" width="20" height="20" viewBox="0 0 20 20" fill="none">
        <g clip-path="url(#clip0_11262_180862)">
            <path
                d="M15.4447 3.54258C15.6347 4.00197 15.9993 4.36712 16.4584 4.55777L18.0683 5.22459C18.5277 5.41489 18.8927 5.77991 19.083 6.23933C19.2733 6.69876 19.2733 7.21497 19.083 7.6744L18.4167 9.2831C18.2263 9.74273 18.226 10.2595 18.4173 10.7189L19.0824 12.3271C19.1768 12.5546 19.2254 12.7986 19.2254 13.0449C19.2254 13.2912 19.1769 13.5351 19.0827 13.7627C18.9884 13.9903 18.8502 14.1971 18.676 14.3712C18.5018 14.5454 18.295 14.6835 18.0674 14.7777L16.4587 15.444C15.9993 15.634 15.6341 15.9986 15.4435 16.4577L14.7767 18.0676C14.5864 18.527 14.2213 18.892 13.7619 19.0823C13.3025 19.2726 12.7863 19.2726 12.3269 19.0823L10.7181 18.416C10.2587 18.2261 9.74268 18.2265 9.28353 18.417L7.67367 19.0829C7.2145 19.2728 6.69874 19.2726 6.23969 19.0825C5.78063 18.8923 5.41582 18.5277 5.22539 18.0688L4.55837 16.4585C4.36841 15.9991 4.00381 15.6339 3.5447 15.4433L1.93484 14.7764C1.47561 14.5862 1.11071 14.2214 0.920338 13.7623C0.729966 13.3031 0.729708 12.7871 0.91962 12.3278L1.58597 10.7191C1.7758 10.2596 1.77541 9.74362 1.58489 9.28447L0.919499 7.67345C0.825159 7.4459 0.776583 7.202 0.776543 6.95567C0.776503 6.70934 0.825002 6.46541 0.919269 6.23784C1.01353 6.01026 1.15172 5.80348 1.32593 5.62933C1.50014 5.45518 1.70696 5.31706 1.93457 5.22286L3.54327 4.55652C4.00226 4.36673 4.3672 4.00258 4.55798 3.54401L5.22481 1.93415C5.41511 1.47472 5.78012 1.10971 6.23955 0.919404C6.69898 0.729103 7.21519 0.729103 7.67461 0.919404L9.28332 1.58575C9.74276 1.77558 10.2588 1.7752 10.7179 1.58467L12.3285 0.920437C12.7878 0.730243 13.3039 0.730281 13.7633 0.920545C14.2226 1.11081 14.5876 1.47572 14.7779 1.93503L15.4449 3.54536L15.4447 3.54258Z"
                fill="#2E90FA" />
            <path fill-rule="evenodd" clip-rule="evenodd"
                d="M13.9166 7.37925C14.0502 7.1694 14.0949 6.91507 14.041 6.67221C13.9871 6.42935 13.8389 6.21785 13.6291 6.08425C13.4192 5.95065 13.1649 5.90588 12.922 5.9598C12.6792 6.01372 12.4677 6.1619 12.3341 6.37175L8.66283 12.1405L6.98283 10.0405C6.82751 9.84623 6.60138 9.72162 6.35418 9.69407C6.10699 9.66653 5.85897 9.73831 5.6647 9.89363C5.47043 10.0489 5.34582 10.2751 5.31827 10.5223C5.29073 10.7695 5.36251 11.0175 5.51783 11.2118L8.01783 14.3368C8.111 14.4534 8.23066 14.546 8.36687 14.6071C8.50308 14.6681 8.65189 14.6957 8.80093 14.6877C8.94998 14.6796 9.09494 14.6361 9.22376 14.5607C9.35258 14.4853 9.46154 14.3802 9.54158 14.2543L13.9166 7.37925Z"
                fill="white" />
        </g>
        <defs>
            <clipPath id="clip0_11262_180862">
                <rect width="20" height="20" fill="white" />
            </clipPath>
        </defs>
</svg>