<svg width="14" height="14" viewBox="0 0 14 14" fill="none" xmlns="http://www.w3.org/2000/svg">
<g id="eye">
<g id="Icon">
<path d="M1.41174 7.4161C1.3323 7.29031 1.29257 7.22742 1.27034 7.13041C1.25364 7.05754 1.25364 6.94262 1.27034 6.86976C1.29257 6.77275 1.3323 6.70985 1.41174 6.58406C2.06823 5.54457 4.02232 2.91675 7.00024 2.91675C9.97815 2.91675 11.9322 5.54457 12.5887 6.58406C12.6682 6.70985 12.7079 6.77275 12.7301 6.86976C12.7468 6.94262 12.7468 7.05754 12.7301 7.13041C12.7079 7.22742 12.6682 7.29031 12.5887 7.4161C11.9322 8.45559 9.97815 11.0834 7.00024 11.0834C4.02232 11.0834 2.06823 8.45559 1.41174 7.4161Z" stroke="#667085" stroke-linecap="round" stroke-linejoin="round"/>
<path d="M7.00024 8.75008C7.96673 8.75008 8.75024 7.96658 8.75024 7.00008C8.75024 6.03358 7.96673 5.25008 7.00024 5.25008C6.03374 5.25008 5.25024 6.03358 5.25024 7.00008C5.25024 7.96658 6.03374 8.75008 7.00024 8.75008Z" stroke="#667085" stroke-linecap="round" stroke-linejoin="round"/>
</g>
</g>
</svg>
