<svg width="32" height="33" viewBox="0 0 32 33" fill="none" xmlns="http://www.w3.org/2000/svg">
<g id="logo_bg">
<path id="Icon" fill-rule="evenodd" clip-rule="evenodd" d="M22.4281 1.51172H9.56811C5.01841 1.51172 1.33333 5.20009 1.33333 9.74921V22.6076C1.33333 27.1567 5.01841 30.8451 9.56811 30.8451H22.4281C26.9778 30.8451 30.6667 27.1567 30.6667 22.6076V9.74921C30.6667 5.20009 26.9778 1.51172 22.4281 1.51172ZM20.0041 23.7137L13.6421 24.4159C12.381 24.5556 11.4446 23.2758 11.9543 22.1168L13.1852 19.3118C13.5666 18.4435 13.1097 17.4469 12.381 16.839C11.3993 16.0236 10.7197 14.8382 10.5687 13.4678C10.2591 10.6515 12.2866 8.1221 15.0995 7.81253C17.9124 7.50297 20.4459 9.53025 20.7555 12.3428C20.9103 13.7434 20.4836 15.0723 19.6719 16.0916C19.0753 16.8466 18.8299 17.9414 19.4 18.7153L21.1519 21.1013C21.9033 22.1243 21.2652 23.5778 20.0041 23.7137Z" fill="#FB5BA2"/>
<path id="Vector" fill-rule="evenodd" clip-rule="evenodd" d="M20.3681 24.4003L13.4277 25.1663C12.052 25.3187 11.0305 23.9226 11.5865 22.6582L12.9293 19.5983C13.3453 18.651 12.8469 17.5638 12.052 16.9007C10.981 16.0111 10.2396 14.7179 10.0749 13.223C9.73711 10.1506 11.949 7.3913 15.0176 7.05359C18.0862 6.71588 20.85 8.92747 21.1877 11.9957C21.3566 13.5236 20.8912 14.9733 20.0056 16.0853C19.3548 16.9089 19.0871 18.1033 19.7091 18.9475L21.6202 21.5504C22.4399 22.6665 21.7438 24.2521 20.3681 24.4003Z" fill="#FCE40D"/>
</g>
</svg>
