<svg width="38" height="38" viewBox="0 0 38 38" fill="none" xmlns="http://www.w3.org/2000/svg">
<g id="play" opacity="0.7">
<path id="Icon" opacity="0.5" d="M7.94727 7.93096C7.94727 6.39755 7.94727 5.63084 8.26699 5.2082C8.54552 4.84001 8.97125 4.61216 9.43211 4.58465C9.96111 4.55306 10.5991 4.97835 11.8749 5.82894L28.4784 16.898C29.5327 17.6008 30.0598 17.9522 30.2435 18.3951C30.4041 18.7824 30.4041 19.2176 30.2435 19.6048C30.0598 20.0478 29.5327 20.3992 28.4784 21.102L11.8749 32.171C10.5991 33.0216 9.96111 33.4469 9.43211 33.4153C8.97125 33.3878 8.54552 33.1599 8.26699 32.7917C7.94727 32.3691 7.94727 31.6024 7.94727 30.069V7.93096Z" fill="white" stroke="white" stroke-width="2.63158" stroke-linecap="round" stroke-linejoin="round"/>
</g>
</svg>
