<svg width="10" height="10" viewBox="0 0 10 10" fill="none" xmlns="http://www.w3.org/2000/svg">
<g id="Verified tick" clip-path="url(#clip0_12393_65769)">
<path id="Vector" d="M7.72261 1.77104C7.81759 2.00074 7.99989 2.18332 8.22944 2.27864L9.03437 2.61205C9.26409 2.7072 9.44659 2.88971 9.54174 3.11942C9.6369 3.34914 9.6369 3.60724 9.54174 3.83695L9.20857 4.64131C9.11338 4.87112 9.11325 5.12949 9.20887 5.35919L9.54147 6.16331C9.58864 6.27708 9.61293 6.39903 9.61295 6.5222C9.61297 6.64536 9.58872 6.76733 9.54158 6.88112C9.49445 6.9949 9.42536 7.09829 9.33825 7.18537C9.25115 7.27245 9.14774 7.3415 9.03393 7.3886L8.22958 7.72178C7.99989 7.81675 7.81731 7.99905 7.72199 8.22861L7.38857 9.03354C7.29342 9.26325 7.11092 9.44576 6.8812 9.54091C6.65149 9.63606 6.39338 9.63606 6.16367 9.54091L5.35932 9.20774C5.1296 9.11282 4.87159 9.11301 4.64201 9.20827L3.83708 9.54121C3.60749 9.63614 3.34961 9.63606 3.12009 9.54099C2.89056 9.44591 2.70816 9.26362 2.61294 9.03415L2.27943 8.22898C2.18445 7.99929 2.00215 7.81671 1.7726 7.72139L0.967665 7.38798C0.738051 7.29287 0.555599 7.11048 0.460413 6.88089C0.365228 6.65131 0.365098 6.39333 0.460054 6.16365L0.793228 5.3593C0.888144 5.12958 0.887951 4.87157 0.792689 4.64199L0.459994 3.83648C0.412824 3.72271 0.388536 3.60075 0.388516 3.47759C0.388496 3.35442 0.412745 3.23246 0.459878 3.11867C0.507012 3.00488 0.576105 2.9015 0.663209 2.81442C0.750314 2.72734 0.853723 2.65828 0.967527 2.61119L1.77188 2.27801C2.00138 2.18312 2.18384 2.00105 2.27924 1.77176L2.61265 0.966829C2.7078 0.737115 2.89031 0.554608 3.12002 0.459458C3.34973 0.364307 3.60784 0.364307 3.83755 0.459458L4.6419 0.792632C4.87162 0.887548 5.12963 0.887354 5.35921 0.792092L6.16448 0.459974C6.39416 0.364877 6.65221 0.364897 6.88188 0.460029C7.11155 0.55516 7.29403 0.737615 7.3892 0.967269L7.72271 1.77244L7.72261 1.77104Z" fill="#0788F5"/>
<path id="Vector_2" fill-rule="evenodd" clip-rule="evenodd" d="M6.95829 3.68938C7.02509 3.58446 7.04747 3.45729 7.02051 3.33586C6.99356 3.21443 6.91946 3.10868 6.81454 3.04188C6.70961 2.97508 6.58245 2.9527 6.46102 2.97966C6.33959 3.00661 6.23384 3.08071 6.16704 3.18563L4.33141 6.07001L3.49141 5.02001C3.41375 4.92287 3.30069 4.86056 3.17709 4.84679C3.05349 4.83302 2.92949 4.86891 2.83235 4.94657C2.73522 5.02423 2.67291 5.13729 2.65914 5.26089C2.64536 5.38449 2.68125 5.5085 2.75891 5.60563L4.00891 7.16813C4.0555 7.22644 4.11533 7.27277 4.18344 7.30329C4.25154 7.33381 4.32595 7.34763 4.40047 7.34359C4.47499 7.33956 4.54747 7.31779 4.61188 7.2801C4.67629 7.2424 4.73077 7.18987 4.77079 7.12688L6.95829 3.68938V3.68938Z" fill="white"/>
</g>
<defs>
<clipPath id="clip0_12393_65769">
<rect width="10" height="10" fill="white"/>
</clipPath>
</defs>
</svg>
