<svg width="2562" height="2288" viewBox="0 0 2562 2288" fill="none" xmlns="http://www.w3.org/2000/svg">
<g opacity="0.3" filter="url(#filter0_f_494_28497)">
<path d="M692 1144C692 894.367 894.367 692 1144 692H1281V1144H692V1144Z" fill="#EE46BC"/>
</g>
<g opacity="0.3" filter="url(#filter1_f_494_28497)">
<path d="M1281 692H1418C1667.63 692 1870 894.367 1870 1144V1144H1281V692Z" fill="#EF6820"/>
</g>
<g opacity="0.3" filter="url(#filter2_f_494_28497)">
<path d="M692 1144H1281V1596H1144C894.367 1596 692 1393.63 692 1144V1144Z" fill="#2E90FA"/>
</g>
<g opacity="0.3" filter="url(#filter3_f_494_28497)">
<path d="M1281 1144H1870V1144C1870 1393.63 1667.63 1596 1418 1596H1281V1144Z" fill="#17B26A"/>
</g>
<defs>
<filter id="filter0_f_494_28497" x="0.77002" y="0.77002" width="1971.46" height="1834.46" filterUnits="userSpaceOnUse" color-interpolation-filters="sRGB">
<feFlood flood-opacity="0" result="BackgroundImageFix"/>
<feBlend mode="normal" in="SourceGraphic" in2="BackgroundImageFix" result="shape"/>
<feGaussianBlur stdDeviation="345.615" result="effect1_foregroundBlur_494_28497"/>
</filter>
<filter id="filter1_f_494_28497" x="589.77" y="0.77002" width="1971.46" height="1834.46" filterUnits="userSpaceOnUse" color-interpolation-filters="sRGB">
<feFlood flood-opacity="0" result="BackgroundImageFix"/>
<feBlend mode="normal" in="SourceGraphic" in2="BackgroundImageFix" result="shape"/>
<feGaussianBlur stdDeviation="345.615" result="effect1_foregroundBlur_494_28497"/>
</filter>
<filter id="filter2_f_494_28497" x="0.77002" y="452.77" width="1971.46" height="1834.46" filterUnits="userSpaceOnUse" color-interpolation-filters="sRGB">
<feFlood flood-opacity="0" result="BackgroundImageFix"/>
<feBlend mode="normal" in="SourceGraphic" in2="BackgroundImageFix" result="shape"/>
<feGaussianBlur stdDeviation="345.615" result="effect1_foregroundBlur_494_28497"/>
</filter>
<filter id="filter3_f_494_28497" x="589.77" y="452.77" width="1971.46" height="1834.46" filterUnits="userSpaceOnUse" color-interpolation-filters="sRGB">
<feFlood flood-opacity="0" result="BackgroundImageFix"/>
<feBlend mode="normal" in="SourceGraphic" in2="BackgroundImageFix" result="shape"/>
<feGaussianBlur stdDeviation="345.615" result="effect1_foregroundBlur_494_28497"/>
</filter>
</defs>
</svg>
