<svg width="128" height="128" viewBox="0 0 127 116" fill="none" xmlns="http://www.w3.org/2000/svg">
<g id="monitor-03" transform="matrix(1, 0, 0, 1, -101.811546, -101.331306)">
<g id="Icon">
<path d="M110.168 168.667L216.835 168.667M142.168 206H184.835M135.768 190H191.235C200.195 190 204.676 190 208.098 188.256C211.109 186.722 213.557 184.274 215.091 181.264C216.835 177.841 216.835 173.361 216.835 164.4V135.6C216.835 126.639 216.835 122.159 215.091 118.736C213.557 115.726 211.109 113.278 208.098 111.744C204.676 110 200.195 110 191.235 110H135.768C126.807 110 122.327 110 118.904 111.744C115.894 113.278 113.446 115.726 111.912 118.736C110.168 122.159 110.168 126.639 110.168 135.6V164.4C110.168 173.361 110.168 177.841 111.912 181.264C113.446 184.274 115.894 186.722 118.904 188.256C122.327 190 126.807 190 135.768 190Z" stroke="#98A2B3" stroke-width="2.5" stroke-linecap="round" stroke-linejoin="round"/>
</g>
</g>
</svg>
