<?xml version="1.0" encoding="UTF-8"?>
<svg version="1.1" xmlns="http://www.w3.org/2000/svg" width="239" height="238">
<path d="M0 0 C78.87 0 157.74 0 239 0 C239 78.54 239 157.08 239 238 C160.13 238 81.26 238 0 238 C0 159.46 0 80.92 0 0 Z " fill="#E3FDED" transform="translate(0,0)"/>
<path d="M0 0 C1.75 0.125 1.75 0.125 4 1 C6.125 3.875 6.125 3.875 8 7 C8.99 8.485 8.99 8.485 10 10 C10 10.66 10 11.32 10 12 C10.66 13.32 11.32 14.64 12 16 C6.39 16 0.78 16 -5 16 C-5 11.38 -5 6.76 -5 2 C-1 1 -1 1 0 1 C0 0.67 0 0.34 0 0 Z " fill="#D5FDE5" transform="translate(5,222)"/>
<path d="M0 0 C4.95 0 9.9 0 15 0 C10 5 5 10 0 15 C0 10.05 0 5.1 0 0 Z " fill="#E5FFE7" transform="translate(0,0)"/>
<path d="M0 0 C4.95 0 9.9 0 15 0 C15 4.95 15 9.9 15 15 C13.35 13.35 11.7 11.7 10 10 C7.35662317 7.60745455 4.68592248 5.24860902 2.01171875 2.890625 C1.34785156 2.26671875 0.68398437 1.6428125 0 1 C0 0.67 0 0.34 0 0 Z " fill="#E5FFE7" transform="translate(224,0)"/>
<path d="M0 0 C2.23775292 1.00313062 3.8507388 1.84476835 5.5625 3.625 C7.02978279 5.34561132 7.02978279 5.34561132 10 5 C9.67 6.32 9.34 7.64 9 9 C8.67 8.34 8.34 7.68 8 7 C7.01 7.33 6.02 7.66 5 8 C4.34 8 3.68 8 3 8 C1.42888683 9.32771766 1.42888683 9.32771766 -0.125 11 C-0.66382813 11.556875 -1.20265625 12.11375 -1.7578125 12.6875 C-2.16773438 13.120625 -2.57765625 13.55375 -3 14 C-5 13 -5 13 -7 10 C-6.01 10 -5.02 10 -4 10 C-3.87625 9.360625 -3.7525 8.72125 -3.625 8.0625 C-3.41875 7.381875 -3.2125 6.70125 -3 6 C-2.34 5.67 -1.68 5.34 -1 5 C-0.34444881 2.47266765 -0.34444881 2.47266765 0 0 Z " fill="#EEFEF3" transform="translate(229,216)"/>
<path d="M0 0 C0.33 0 0.66 0 1 0 C1 3.96 1 7.92 1 12 C-2.63 12 -6.26 12 -10 12 C-9.0925 10.948125 -8.185 9.89625 -7.25 8.8125 C-5.34272159 6.59410526 -3.49820553 4.36258541 -1.6875 2.0625 C-1.130625 1.381875 -0.57375 0.70125 0 0 Z " fill="#F9FFF8" transform="translate(238,226)"/>
<path d="M0 0 C3.92446674 3.80904125 7.47412292 7.81814579 11 12 C7.37 12 3.74 12 0 12 C0 8.04 0 4.08 0 0 Z " fill="#FBFFFA" transform="translate(0,226)"/>
<path d="M0 0 C0.99 0.33 1.98 0.66 3 1 C3.33 1 3.66 1 4 1 C4.66 1.33 5.32 1.66 6 2 C3.03 4.64 0.06 7.28 -3 10 C-2.01 10.99 -1.02 11.98 0 13 C0 13.99 0 14.98 0 16 C-0.99 15.67 -1.98 15.34 -3 15 C-2.67 15.99 -2.34 16.98 -2 18 C-4.475 17.01 -4.475 17.01 -7 16 C-7 11.28312744 -6.29679683 9.29679683 -3 6 C-3 5.01 -3 4.02 -3 3 C-1.5 1.3125 -1.5 1.3125 0 0 Z " fill="#F1FDF5" transform="translate(17,0)"/>
<path d="M0 0 C7.03051093 3.19426332 12.3156261 8.99814594 17 15 C16.67 15.66 16.34 16.32 16 17 C13.32932797 14.3581833 10.66414667 11.7108958 8 9.0625 C7.236875 8.30775391 6.47375 7.55300781 5.6875 6.77539062 C4.965625 6.05673828 4.24375 5.33808594 3.5 4.59765625 C2.8296875 3.93258057 2.159375 3.26750488 1.46875 2.58227539 C0 1 0 1 0 0 Z " fill="#BCFFDB" transform="translate(222,0)"/>
<path d="M0 0 C3.66377743 0.57380172 5.32767225 1.97269658 7.890625 4.59765625 C8.59960938 5.31630859 9.30859375 6.03496094 10.0390625 6.77539062 C10.76867187 7.53013672 11.49828125 8.28488281 12.25 9.0625 C12.99507812 9.82111328 13.74015625 10.57972656 14.5078125 11.36132812 C16.34546694 13.23432207 18.17575724 15.11395611 20 17 C19.67 17.99 19.34 18.98 19 20 C18.46632812 19.38253906 17.93265625 18.76507812 17.3828125 18.12890625 C12.51015669 12.59026461 7.44795815 7.54473088 1.87109375 2.71484375 C1.25363281 2.14894531 0.63617188 1.58304687 0 1 C0 0.67 0 0.34 0 0 Z " fill="#FAFEFA" transform="translate(219,0)"/>
<path d="M0 0 C0.66 0.33 1.32 0.66 2 1 C1.25556641 1.61875 1.25556641 1.61875 0.49609375 2.25 C-3.93374182 6.01578052 -7.84042672 9.92404893 -11.5546875 14.3984375 C-13 16 -13 16 -15 17 C-13.62731224 12.82289638 -11.77260976 10.418038 -8.625 7.375 C-7.85414063 6.61960937 -7.08328125 5.86421875 -6.2890625 5.0859375 C-4.268188 3.24438975 -2.22010488 1.59158204 0 0 Z " fill="#BCFFD6" transform="translate(15,0)"/>
<path d="M0 0 C2.64 0 5.28 0 8 0 C8 2.64 8 5.28 8 8 C6.85073734 7.04578192 5.70569459 6.08647955 4.5625 5.125 C3.92441406 4.59132813 3.28632813 4.05765625 2.62890625 3.5078125 C1 2 1 2 0 0 Z " fill="#FDFFFD" transform="translate(231,0)"/>
<path d="M0 0 C2.64 0 5.28 0 8 0 C7.04578192 1.14926266 6.08647955 2.29430541 5.125 3.4375 C4.59132813 4.07558594 4.05765625 4.71367188 3.5078125 5.37109375 C2 7 2 7 0 8 C0 5.36 0 2.72 0 0 Z " fill="#FDFFFD" transform="translate(0,0)"/>
<path d="M0 0 C2 2 2 2 2 6 C0.02 6.99 0.02 6.99 -2 8 C-3.5625 6.1875 -3.5625 6.1875 -5 4 C-4.67 3.01 -4.34 2.02 -4 1 C-2.0625 0.1875 -2.0625 0.1875 0 0 Z " fill="#EFFFF0" transform="translate(220,228)"/>
<path d="M0 0 C1.32 0.66 2.64 1.32 4 2 C4 3.32 4 4.64 4 6 C2.35 5.67 0.7 5.34 -1 5 C-1.33 4.01 -1.66 3.02 -2 2 C-1.34 1.34 -0.68 0.68 0 0 Z " fill="#EFFEEF" transform="translate(19,6)"/>
<path d="M0 0 C3.36720387 1.39332574 4.9859524 2.9789286 7 6 C4.69 6 2.38 6 0 6 C0 4.02 0 2.04 0 0 Z " fill="#D6FFD6" transform="translate(0,232)"/>
<path d="M0 0 C-1.51671964 4.55015893 -5.16891053 6.50057264 -9 9 C-7.39537511 4.18612534 -5.52128094 0 0 0 Z " fill="#D8FBE4" transform="translate(9,13)"/>
<path d="M0 0 C0 1.98 0 3.96 0 6 C-1.98 6 -3.96 6 -6 6 C-3.4 0 -3.4 0 0 0 Z " fill="#D7FFD7" transform="translate(239,232)"/>
<path d="M0 0 C1.98 0.66 3.96 1.32 6 2 C6 2.66 6 3.32 6 4 C3.69 4.66 1.38 5.32 -1 6 C-1 5.34 -1 4.68 -1 4 C-1.66 3.67 -2.32 3.34 -3 3 C-2.01 2.01 -1.02 1.02 0 0 Z " fill="#D1F9DE" transform="translate(233,222)"/>
<path d="M0 0 C3.16115776 1.36983503 3.9927092 1.9890638 6 5 C4.1875 5.6875 4.1875 5.6875 2 6 C0.25 4.5625 0.25 4.5625 -1 3 C-0.67 2.01 -0.34 1.02 0 0 Z " fill="#EEFFF3" transform="translate(1,25)"/>
<path d="M0 0 C0.66 0.33 1.32 0.66 2 1 C-1.33333333 4.33333333 -4.66666667 7.66666667 -8 11 C-7.42429187 7.11397015 -5.58424279 4.88827136 -3 2 C-2.01 1.34 -1.02 0.68 0 0 Z " fill="#F5FEFA" transform="translate(8,9)"/>
<path d="M0 0 C1.9375 0.8125 1.9375 0.8125 4 2 C4.33 2.99 4.66 3.98 5 5 C4.34 5.66 3.68 6.32 3 7 C1.68 5.68 0.36 4.36 -1 3 C-0.67 2.01 -0.34 1.02 0 0 Z " fill="#EEFFF2" transform="translate(25,1)"/>
<path d="M0 0 C1.32 0 2.64 0 4 0 C3.67 1.65 3.34 3.3 3 5 C1.68 4.67 0.36 4.34 -1 4 C-0.67 2.68 -0.34 1.36 0 0 Z " fill="#E6FFE6" transform="translate(235,217)"/>
<path d="M0 0 C0 0.99 0 1.98 0 3 C-2.3125 4.75 -2.3125 4.75 -5 6 C-5.99 5.67 -6.98 5.34 -8 5 C-5.80084649 2.47097346 -4.26422245 1.65284449 -1 1 C-0.67 0.67 -0.34 0.34 0 0 Z " fill="#D6F9EA" transform="translate(16,3)"/>
<path d="M0 0 C2.475 0.495 2.475 0.495 5 1 C5 1.99 5 2.98 5 4 C3.68 4.33 2.36 4.66 1 5 C0.67 3.35 0.34 1.7 0 0 Z " fill="#E4FFE4" transform="translate(0,217)"/>
</svg>
