<svg width="160" height="160" viewBox="0 0 160 160" fill="none" xmlns="http://www.w3.org/2000/svg">
<g id="logo_bg">
<path id="Icon" fill-rule="evenodd" clip-rule="evenodd" d="M112.141 6.66666H47.8406C25.0921 6.66666 6.66669 25.1085 6.66669 47.8541V112.146C6.66669 134.891 25.0921 153.333 47.8406 153.333H112.141C134.889 153.333 153.333 134.891 153.333 112.146V47.8541C153.333 25.1085 134.889 6.66666 112.141 6.66666ZM100.021 117.677L68.2104 121.187C61.905 121.886 57.2232 115.487 59.7718 109.692L65.9261 95.6671C67.8329 91.3256 65.5486 86.3423 61.905 83.3033C56.9966 79.2261 53.5985 73.299 52.8434 66.447C51.2953 52.3655 61.4331 39.7186 75.4975 38.1707C89.5619 36.6229 102.229 46.7593 103.777 60.822C104.551 67.825 102.418 74.4693 98.3593 79.5658C95.3765 83.341 94.1494 88.8151 97.0001 92.6847L105.76 104.614C109.516 109.73 106.326 116.997 100.021 117.677Z" fill="#98A2B3"/>
</g>
</svg>
