<svg width="24" height="24" viewBox="0 0 24 24" fill="none" xmlns="http://www.w3.org/2000/svg">
<path fill-rule="evenodd" clip-rule="evenodd" d="M12 1C5.925 1 1 5.925 1 12C1 18.075 5.925 23 12 23C18.075 23 23 18.075 23 12C23 5.925 18.075 1 12 1ZM7.19216 11.382H2.75066C3.02839 7.15692 6.13691 3.7053 10.1991 2.90557C9.90904 3.29993 9.59136 3.77345 9.27382 4.3206C8.29761 6.00563 7.31377 8.40899 7.19216 11.382ZM14.7261 4.32052C14.4086 3.77337 14.091 3.29993 13.8009 2.90557C17.8631 3.7053 20.9716 7.15692 21.2493 11.382H16.8078C16.6862 8.40899 15.7023 6.00554 14.7261 4.32052ZM10.7711 5.18915C11.2166 4.42165 11.6601 3.81985 12.0006 3.40529C12.4565 3.96569 12.8673 4.56162 13.2289 5.18714C14.0953 6.68058 14.9551 8.7878 15.0758 11.382H8.92428C9.04511 8.78825 9.90485 6.6814 10.7711 5.18915ZM5.26365 18.3675C3.89931 16.9241 3.03522 15.0817 2.79659 13.1124H7.22081C7.42504 15.8582 8.35224 18.0887 9.27386 19.6795C9.55687 20.1673 9.8659 20.6395 10.1996 21.094C8.31373 20.7201 6.58783 19.7684 5.26365 18.3675ZM13.2289 18.8109C12.7834 19.5784 12.3399 20.1802 11.9994 20.5947C11.5431 20.0342 11.1324 19.4381 10.7711 18.8129C9.9606 17.4142 9.15464 15.4792 8.95678 13.1124H15.0432C14.8444 15.481 14.0394 17.4142 13.2289 18.8109ZM14.7262 19.6794C15.6478 18.0887 16.5759 15.8582 16.7792 13.1124H21.2024C20.9637 15.0814 20.0999 16.9234 18.7359 18.3668C17.4123 19.7676 15.6871 20.7193 13.8018 21.0939C14.0912 20.6997 14.4088 20.2263 14.7262 19.6794Z" fill="#303437"/>
</svg>
