<svg width="21" height="20" viewBox="0 0 21 20" fill="none" xmlns="http://www.w3.org/2000/svg">
<g id="text-input">
<path id="Icon" d="M11.3332 5.83333H4.83317C3.89975 5.83333 3.43304 5.83333 3.07652 6.01499C2.76292 6.17478 2.50795 6.42975 2.34816 6.74335C2.1665 7.09987 2.1665 7.56658 2.1665 8.5V11.5C2.1665 12.4334 2.1665 12.9001 2.34816 13.2567C2.50795 13.5703 2.76292 13.8252 3.07652 13.985C3.43304 14.1667 3.89975 14.1667 4.83317 14.1667H11.3332M14.6665 5.83333H16.1665C17.0999 5.83333 17.5666 5.83333 17.9232 6.01499C18.2368 6.17478 18.4917 6.42975 18.6515 6.74335C18.8332 7.09987 18.8332 7.56658 18.8332 8.5V11.5C18.8332 12.4334 18.8332 12.9001 18.6515 13.2567C18.4917 13.5703 18.2368 13.8252 17.9232 13.985C17.5666 14.1667 17.0999 14.1667 16.1665 14.1667H14.6665M14.6665 17.5L14.6665 2.5M16.7498 2.50001L12.5832 2.5M16.7498 17.5L12.5832 17.5" stroke="#98A2B3" stroke-width="2" stroke-linecap="round" stroke-linejoin="round"/>
</g>
</svg>
