<svg width="28" height="28" viewBox="0 0 28 28" fill="none" xmlns="http://www.w3.org/2000/svg">
<g id="icon">
<path id="Icon" d="M25.6663 24.5V22.1667C25.6663 19.9922 24.1791 18.1651 22.1663 17.647M18.083 3.83922C19.7932 4.5315 20.9997 6.2082 20.9997 8.16667C20.9997 10.1251 19.7932 11.8018 18.083 12.4941M19.833 24.5C19.833 22.3256 19.833 21.2384 19.4778 20.3808C19.0041 19.2373 18.0957 18.3289 16.9522 17.8552C16.0946 17.5 15.0074 17.5 12.833 17.5H9.33301C7.15861 17.5 6.07142 17.5 5.21382 17.8552C4.07035 18.3289 3.16188 19.2373 2.68824 20.3808C2.33301 21.2384 2.33301 22.3256 2.33301 24.5M15.7497 8.16667C15.7497 10.744 13.6603 12.8333 11.083 12.8333C8.50568 12.8333 6.41634 10.744 6.41634 8.16667C6.41634 5.58934 8.50568 3.5 11.083 3.5C13.6603 3.5 15.7497 5.58934 15.7497 8.16667Z" stroke="#22CCEE" stroke-width="2" stroke-linecap="round" stroke-linejoin="round"/>
</g>
</svg>
