<svg width="16" height="16" viewBox="0 0 16 16" fill="none" xmlns="http://www.w3.org/2000/svg">
<g id="Verified tick" clip-path="url(#clip0_1009_31492)">
<path id="Vector" d="M12.3555 2.83361C12.5075 3.20112 12.7992 3.49325 13.1665 3.64576L14.4544 4.17922C14.8219 4.33147 15.1139 4.62348 15.2662 4.99102C15.4184 5.35856 15.4184 5.77153 15.2662 6.13907L14.7331 7.42603C14.5808 7.79374 14.5806 8.20712 14.7336 8.57465L15.2657 9.86123C15.3412 10.0433 15.38 10.2384 15.3801 10.4355C15.3801 10.6325 15.3413 10.8277 15.2659 11.0097C15.1905 11.1918 15.0799 11.3572 14.9406 11.4965C14.8012 11.6359 14.6357 11.7463 14.4537 11.8217L13.1667 12.3548C12.7992 12.5067 12.5071 12.7984 12.3545 13.1657L11.8211 14.4536C11.6688 14.8211 11.3768 15.1132 11.0093 15.2654C10.6417 15.4176 10.2288 15.4176 9.86124 15.2654L8.57427 14.7323C8.20672 14.5805 7.7939 14.5808 7.42658 14.7332L6.13869 15.2659C5.77135 15.4178 5.35875 15.4176 4.9915 15.2655C4.62426 15.1134 4.33241 14.8217 4.18007 14.4546L3.64645 13.1663C3.49449 12.7988 3.2028 12.5067 2.83552 12.3542L1.54763 11.8207C1.18025 11.6685 0.888323 11.3767 0.736025 11.0094C0.583728 10.642 0.583522 10.2293 0.735451 9.86179L1.26853 8.57482C1.4204 8.20727 1.42009 7.79445 1.26767 7.42713L0.735354 6.13831C0.659883 5.95628 0.621022 5.76115 0.62099 5.56408C0.620958 5.36702 0.659757 5.17188 0.73517 4.98982C0.810583 4.80776 0.921132 4.64234 1.0605 4.50301C1.19987 4.36369 1.36532 4.2532 1.54741 4.17784L2.83437 3.64476C3.20157 3.49294 3.49352 3.20162 3.64614 2.83476L4.1796 1.54687C4.33184 1.17933 4.62385 0.887314 4.9914 0.735073C5.35894 0.582832 5.7719 0.582832 6.13945 0.735073L7.42641 1.26815C7.79396 1.42002 8.20678 1.41971 8.5741 1.26729L9.86253 0.7359C10.23 0.583744 10.6429 0.583776 11.0104 0.735986C11.3778 0.888197 11.6698 1.18012 11.8221 1.54757L12.3557 2.83584L12.3555 2.83361Z" fill="#004EEB"/>
<path id="Vector_2" fill-rule="evenodd" clip-rule="evenodd" d="M11.1333 5.90291C11.2401 5.73503 11.276 5.53157 11.2328 5.33728C11.1897 5.14299 11.0711 4.9738 10.9033 4.86691C10.7354 4.76003 10.5319 4.72422 10.3376 4.76735C10.1433 4.81048 9.97414 4.92903 9.86726 5.09691L6.93026 9.71191L5.58626 8.03191C5.46201 7.8765 5.2811 7.7768 5.08335 7.75477C4.88559 7.73273 4.68718 7.79016 4.53176 7.91441C4.37634 8.03867 4.27665 8.21957 4.25462 8.41733C4.23258 8.61508 4.29001 8.8135 4.41426 8.96891L6.41426 11.4689C6.4888 11.5622 6.58453 11.6363 6.6935 11.6852C6.80246 11.734 6.92151 11.7561 7.04075 11.7497C7.15998 11.7432 7.27595 11.7084 7.37901 11.6481C7.48206 11.5877 7.56923 11.5037 7.63326 11.4029L11.1333 5.90291Z" fill="white"/>
</g>
<defs>
<clipPath id="clip0_1009_31492">
<rect width="16" height="16" fill="white"/>
</clipPath>
</defs>
</svg>
