<svg width="58" height="62" viewBox="0 0 58 62" fill="none" xmlns="http://www.w3.org/2000/svg">
<g id="icon/logo" opacity="0.15">
<g id="Vector" filter="url(#filter0_b_12393_29807)">
<path fill-rule="evenodd" clip-rule="evenodd" d="M40.7361 48.5033L26.8553 50.0353C24.1038 50.3401 22.0609 47.5478 23.173 45.0191L25.8585 38.8991C26.6905 37.0047 25.6938 34.8302 24.1039 33.504C21.962 31.7249 20.4792 29.1385 20.1497 26.1486C19.4742 20.0039 23.8979 14.4852 30.0351 13.8098C36.1723 13.1344 41.6999 17.5576 42.3754 23.694C42.7132 26.7498 41.7823 29.6492 40.0112 31.8731C38.7096 33.5205 38.1741 35.9092 39.418 37.5977L43.2404 42.8034C44.8798 45.0356 43.4876 48.2067 40.7361 48.5033Z" fill="#E9E5D3"/>
</g>
</g>
<defs>
<filter id="filter0_b_12393_29807" x="0.081543" y="-6.2583" width="63.8613" height="76.3164" filterUnits="userSpaceOnUse" color-interpolation-filters="sRGB">
<feFlood flood-opacity="0" result="BackgroundImageFix"/>
<feGaussianBlur in="BackgroundImageFix" stdDeviation="10"/>
<feComposite in2="SourceAlpha" operator="in" result="effect1_backgroundBlur_12393_29807"/>
<feBlend mode="normal" in="SourceGraphic" in2="effect1_backgroundBlur_12393_29807" result="shape"/>
</filter>
</defs>
</svg>
