<svg width="24" height="24" viewBox="0 0 24 24" fill="none" xmlns="http://www.w3.org/2000/svg">
<path fill-rule="evenodd" clip-rule="evenodd" d="M4.22258 4.22185C4.61311 3.83132 5.24627 3.83132 5.63679 4.22185L12.0008 10.5858L18.3647 4.22185C18.7552 3.83132 19.3884 3.83132 19.7789 4.22185C20.1695 4.61237 20.1695 5.24554 19.7789 5.63606L13.415 12L19.7789 18.364C20.1695 18.7545 20.1695 19.3877 19.7789 19.7782C19.3884 20.1687 18.7552 20.1687 18.3647 19.7782L12.0008 13.4142L5.63679 19.7782C5.24627 20.1687 4.61311 20.1687 4.22258 19.7782C3.83206 19.3877 3.83206 18.7545 4.22258 18.364L10.5865 12L4.22258 5.63606C3.83206 5.24554 3.83206 4.61237 4.22258 4.22185Z" fill="#BFCEDD"/>
</svg>
