<svg width="58" height="62" viewBox="0 0 58 62" fill="none" xmlns="http://www.w3.org/2000/svg">
<g opacity="0.15">
<g filter="url(#filter0_b_11654_31398)">
<path fill-rule="evenodd" clip-rule="evenodd" d="M40.7362 48.5028L26.8554 50.0348C24.104 50.3396 22.061 47.5473 23.1731 45.0186L25.8586 38.8987C26.6907 37.0042 25.6939 34.8297 24.104 33.5035C21.9621 31.7244 20.4793 29.138 20.1498 26.1481C19.4743 20.0034 23.898 14.4848 30.0352 13.8093C36.1724 13.1339 41.7001 17.5571 42.3756 23.6935C42.7133 26.7494 41.7824 29.6487 40.0113 31.8727C38.7097 33.52 38.1742 35.9087 39.4182 37.5972L43.2405 42.8029C44.8799 45.0351 43.4877 48.2062 40.7362 48.5028Z" fill="#E9E5D3"/>
</g>
</g>
<defs>
<filter id="filter0_b_11654_31398" x="0.081665" y="-6.25879" width="63.8612" height="76.3164" filterUnits="userSpaceOnUse" color-interpolation-filters="sRGB">
<feFlood flood-opacity="0" result="BackgroundImageFix"/>
<feGaussianBlur in="BackgroundImageFix" stdDeviation="10"/>
<feComposite in2="SourceAlpha" operator="in" result="effect1_backgroundBlur_11654_31398"/>
<feBlend mode="normal" in="SourceGraphic" in2="effect1_backgroundBlur_11654_31398" result="shape"/>
</filter>
</defs>
</svg>
