<svg width="128" height="128" viewBox="0 0 128 128" fill="none" xmlns="http://www.w3.org/2000/svg">
<g filter="url(#filter0_ddd_9290_319711)">
<path d="M140.165 145.095H161.498M140.165 163.762H177.498M164.165 201.095C189.202 201.095 209.498 180.799 209.498 155.762C209.498 130.725 189.202 110.429 164.165 110.429C139.128 110.429 118.831 130.725 118.831 155.762C118.831 160.829 119.663 165.701 121.196 170.251C121.773 171.963 122.062 172.819 122.114 173.476C122.165 174.126 122.126 174.581 121.966 175.212C121.803 175.852 121.444 176.517 120.725 177.846L112.002 193.993C110.757 196.296 110.135 197.448 110.274 198.337C110.396 199.111 110.851 199.793 111.52 200.201C112.288 200.669 113.59 200.535 116.194 200.265L143.506 197.442C144.333 197.357 144.747 197.314 145.124 197.328C145.495 197.342 145.756 197.377 146.118 197.461C146.486 197.545 146.948 197.723 147.872 198.08C152.928 200.028 158.422 201.095 164.165 201.095Z" stroke="#98A2B3" stroke-width="4" stroke-linecap="round" stroke-linejoin="round"/>
</g>
</svg>
