<?xml version="1.0" encoding="utf-8"?>
<svg viewBox="0 0 128 128" xmlns="http://www.w3.org/2000/svg">
  <defs/>
  <g transform="matrix(1, 0, 0, 1, 24.704817, -29.620054)">
    <g>
      <path d="M 85.666 61.667 L 26.999 61.667 M 85.666 136.333 L 26.999 136.333 M 85.666 99 L 26.999 99 M 5.666 61.667 C 5.666 66.085 2.084 69.667 -2.334 69.667 C -6.752 69.667 -10.334 66.085 -10.334 61.667 C -10.334 57.248 -6.752 53.667 -2.334 53.667 C 2.084 53.667 5.666 57.248 5.666 61.667 Z M 5.666 136.333 C 5.666 140.752 2.084 144.333 -2.334 144.333 C -6.752 144.333 -10.334 140.752 -10.334 136.333 C -10.334 131.915 -6.752 128.333 -2.334 128.333 C 2.084 128.333 5.666 131.915 5.666 136.333 Z M 5.666 99 C 5.666 103.418 2.084 107 -2.334 107 C -6.752 107 -10.334 103.418 -10.334 99 C -10.334 94.582 -6.752 91 -2.334 91 C 2.084 91 5.666 94.582 5.666 99 Z" stroke="#98A2B3" stroke-width="2.5" stroke-linecap="round" stroke-linejoin="round" style="fill: rgba(0, 0, 0, 0);"/>
    </g>
  </g>
</svg>