<svg width="25" height="25" viewBox="0 0 25 25" fill="none" xmlns="http://www.w3.org/2000/svg">
<path d="M5.38277 14.5H18.5185C19.5313 14.5 20.0377 14.5 20.4409 14.3112C20.796 14.1448 21.0944 13.8777 21.299 13.5432C21.5311 13.1633 21.5871 12.66 21.6989 11.6534L22.361 5.43253M2.38263 2.5H3.63107C3.89569 2.5 4.028 2.5 4.13152 2.55032C4.22265 2.59463 4.29817 2.66557 4.34807 2.75376C4.40475 2.85394 4.413 2.98599 4.42951 3.2501L5.33575 17.7499C5.35226 18.014 5.36051 18.1461 5.41719 18.2462C5.46709 18.3344 5.54261 18.4054 5.63374 18.4497C5.73726 18.5 5.86957 18.5 6.13419 18.5H19.3826M7.88263 22H7.89263M16.8826 22H16.8926M8.38263 22C8.38263 22.2761 8.15877 22.5 7.88263 22.5C7.60649 22.5 7.38263 22.2761 7.38263 22C7.38263 21.7239 7.60649 21.5 7.88263 21.5C8.15877 21.5 8.38263 21.7239 8.38263 22ZM17.3826 22C17.3826 22.2761 17.1588 22.5 16.8826 22.5C16.6065 22.5 16.3826 22.2761 16.3826 22C16.3826 21.7239 16.6065 21.5 16.8826 21.5C17.1588 21.5 17.3826 21.7239 17.3826 22Z" stroke="white" stroke-width="2" stroke-linecap="round" stroke-linejoin="round"/>
<path d="M13.3826 2.5V10.5M13.3826 10.5L9.38263 6.5M13.3826 10.5L17.3826 6.5" stroke="white" stroke-width="2" stroke-linecap="round" stroke-linejoin="round"/>
</svg>
