<svg width="28" height="28" viewBox="0 0 28 28" fill="none" xmlns="http://www.w3.org/2000/svg">
<g id="icon">
<path id="Icon" d="M14.0013 10.5V15.1667M14.0013 19.8333H14.013M12.3859 4.54034L2.79018 21.1147C2.25794 22.034 1.99182 22.4937 2.03115 22.871C2.06546 23.2 2.23786 23.499 2.50544 23.6936C2.81223 23.9167 3.34336 23.9167 4.40564 23.9167H23.597C24.6593 23.9167 25.1905 23.9167 25.4972 23.6936C25.7648 23.499 25.9372 23.2 25.9715 22.871C26.0109 22.4937 25.7447 22.034 25.2125 21.1147L15.6168 4.54033C15.0865 3.62431 14.8213 3.1663 14.4754 3.01247C14.1736 2.87829 13.8291 2.87829 13.5273 3.01247C13.1814 3.1663 12.9162 3.62431 12.3859 4.54034Z" stroke="#FF4405" stroke-width="2" stroke-linecap="round" stroke-linejoin="round"/>
</g>
</svg>
