<svg width="20" height="20" viewBox="0 0 20 20" fill="none" xmlns="http://www.w3.org/2000/svg">
<g id="bank-note-03">
<path id="Icon" d="M11.6665 7.5H9.58317C8.89282 7.5 8.33317 8.05965 8.33317 8.75C8.33317 9.44036 8.89282 10 9.58317 10H10.4165C11.1069 10 11.6665 10.5596 11.6665 11.25C11.6665 11.9404 11.1069 12.5 10.4165 12.5H8.33317M9.99984 6.66667V7.5M9.99984 12.5V13.3333M14.9998 10H15.0082M4.99984 10H5.00817M1.6665 6.83333L1.6665 13.1667C1.6665 14.1001 1.6665 14.5668 1.84816 14.9233C2.00795 15.2369 2.26292 15.4919 2.57652 15.6517C2.93304 15.8333 3.39975 15.8333 4.33317 15.8333L15.6665 15.8333C16.5999 15.8333 17.0666 15.8333 17.4232 15.6517C17.7368 15.4919 17.9917 15.2369 18.1515 14.9233C18.3332 14.5668 18.3332 14.1001 18.3332 13.1667V6.83334C18.3332 5.89991 18.3332 5.4332 18.1515 5.07668C17.9917 4.76308 17.7368 4.50811 17.4232 4.34832C17.0666 4.16667 16.5999 4.16667 15.6665 4.16667L4.33317 4.16667C3.39975 4.16667 2.93304 4.16667 2.57652 4.34832C2.26292 4.50811 2.00795 4.76308 1.84816 5.07668C1.6665 5.4332 1.6665 5.89991 1.6665 6.83333ZM15.4165 10C15.4165 10.2301 15.23 10.4167 14.9998 10.4167C14.7697 10.4167 14.5832 10.2301 14.5832 10C14.5832 9.76988 14.7697 9.58333 14.9998 9.58333C15.23 9.58333 15.4165 9.76988 15.4165 10ZM5.4165 10C5.4165 10.2301 5.22996 10.4167 4.99984 10.4167C4.76972 10.4167 4.58317 10.2301 4.58317 10C4.58317 9.76988 4.76972 9.58333 4.99984 9.58333C5.22996 9.58333 5.4165 9.76988 5.4165 10Z" stroke="#0C111D" stroke-width="1.5" stroke-linecap="round" stroke-linejoin="round"/>
</g>
</svg>
