<svg width="17" height="17" viewBox="0 0 17 17" fill="none" xmlns="http://www.w3.org/2000/svg">
<g id="bell-ringing-02">
<g id="Icon">
<path d="M12.9874 5.7334C12.9874 4.67253 12.566 3.65512 11.8158 2.90497C11.0657 2.15483 10.0482 1.7334 8.98738 1.7334C7.92651 1.7334 6.9091 2.15483 6.15895 2.90497C5.40881 3.65512 4.98738 4.67253 4.98738 5.7334C4.98738 7.79352 4.46769 9.20404 3.88716 10.137C3.39747 10.924 3.15262 11.3175 3.1616 11.4272C3.17154 11.5488 3.19729 11.5951 3.29523 11.6678C3.38369 11.7334 3.78244 11.7334 4.57995 11.7334H13.3948C14.1923 11.7334 14.5911 11.7334 14.6795 11.6678C14.7775 11.5951 14.8032 11.5488 14.8132 11.4272C14.8221 11.3175 14.5773 10.924 14.0876 10.137C13.5071 9.20404 12.9874 7.79352 12.9874 5.7334Z" fill="white"/>
<path d="M10.3207 14.4001H7.65405M2.51661 4.27999C2.50704 3.31243 3.0287 2.4089 3.87142 1.9334M15.4555 4.28C15.4651 3.31243 14.9434 2.4089 14.1007 1.9334M12.9874 5.7334C12.9874 4.67253 12.566 3.65512 11.8158 2.90497C11.0657 2.15483 10.0482 1.7334 8.98738 1.7334C7.92651 1.7334 6.9091 2.15483 6.15895 2.90497C5.40881 3.65512 4.98738 4.67253 4.98738 5.7334C4.98738 7.79352 4.46769 9.20404 3.88716 10.137C3.39747 10.924 3.15262 11.3175 3.1616 11.4272C3.17154 11.5488 3.19729 11.5951 3.29523 11.6678C3.38369 11.7334 3.78244 11.7334 4.57995 11.7334H13.3948C14.1923 11.7334 14.5911 11.7334 14.6795 11.6678C14.7775 11.5951 14.8032 11.5488 14.8132 11.4272C14.8221 11.3175 14.5773 10.924 14.0876 10.137C13.5071 9.20404 12.9874 7.79352 12.9874 5.7334Z" stroke="white" stroke-width="0.831797" stroke-linecap="round" stroke-linejoin="round"/>
</g>
</g>
</svg>
