<svg width="24" height="24" viewBox="0 0 24 24" fill="none" xmlns="http://www.w3.org/2000/svg">
<g id="icon">
<path id="Icon" d="M15.6461 18.0149C16.075 19.6153 15.1252 21.2603 13.5248 21.6891C11.9244 22.118 10.2794 21.1682 9.85057 19.5678M2.05705 11.6134C1.66755 10.2152 2.0726 8.70361 3.109 7.6875M12.1465 5.74097C12.4507 5.19367 12.5509 4.53217 12.3761 3.87957C12.0187 2.54591 10.6479 1.75445 9.31422 2.11181C7.98055 2.46916 7.18909 3.84 7.54645 5.17367C7.72131 5.82627 8.13884 6.34904 8.67595 6.67091M20.3192 6.72012C19.9575 5.31451 18.8509 4.20792 17.4453 3.84614M17.4908 9.4454C17.1339 8.11327 16.181 6.99931 14.8417 6.34858C13.5024 5.69784 11.8865 5.56365 10.3494 5.9755C8.81235 6.38736 7.48003 7.31154 6.64555 8.54473C5.81107 9.77792 5.54279 11.2191 5.89974 12.5512C6.49031 14.7553 6.37563 16.5137 6.00268 17.8498C5.57761 19.3727 5.36508 20.1341 5.4225 20.287C5.48819 20.4619 5.53571 20.5099 5.70994 20.5774C5.86223 20.6364 6.502 20.465 7.78154 20.1222L19.6466 16.9429C20.9262 16.6001 21.5659 16.4286 21.6683 16.3014C21.7854 16.1558 21.8026 16.0905 21.772 15.9061C21.7453 15.745 21.1805 15.1919 20.051 14.0856C19.0599 13.1149 18.0814 11.6495 17.4908 9.4454Z" stroke="white" stroke-width="1.25" stroke-linecap="round" stroke-linejoin="round"/>
</g>
</svg>
