<svg width="20" height="20" viewBox="0 0 20 20" fill="none" xmlns="http://www.w3.org/2000/svg">
<g id="coins-stacked-01">
<path id="Icon" d="M9.99984 14.1667C9.99984 16.4679 11.8653 18.3333 14.1665 18.3333C16.4677 18.3333 18.3332 16.4679 18.3332 14.1667C18.3332 11.8655 16.4677 10 14.1665 10C11.8653 10 9.99984 11.8655 9.99984 14.1667ZM9.99984 14.1667C9.99984 13.2285 10.3099 12.3627 10.8332 11.6663V4.16667M9.99984 14.1667C9.99984 14.8545 10.1665 15.5033 10.4616 16.0751C9.75956 16.6681 8.13804 17.0833 6.24984 17.0833C3.71853 17.0833 1.6665 16.3371 1.6665 15.4167V4.16667M10.8332 4.16667C10.8332 5.08714 8.78114 5.83333 6.24984 5.83333C3.71853 5.83333 1.6665 5.08714 1.6665 4.16667M10.8332 4.16667C10.8332 3.24619 8.78114 2.5 6.24984 2.5C3.71853 2.5 1.6665 3.24619 1.6665 4.16667M1.6665 11.6667C1.6665 12.5871 3.71853 13.3333 6.24984 13.3333C8.07401 13.3333 9.64927 12.9458 10.387 12.3848M10.8332 7.91667C10.8332 8.83714 8.78114 9.58333 6.24984 9.58333C3.71853 9.58333 1.6665 8.83714 1.6665 7.91667" stroke="#667085" stroke-width="1.77961" stroke-linecap="round" stroke-linejoin="round"/>
</g>
</svg>
