<svg width="20" height="20" viewBox="0 0 20 20" fill="none" xmlns="http://www.w3.org/2000/svg">
<g id="coins-stacked-04" clip-path="url(#clip0_16249_306167)">
<path id="Icon" d="M16.6666 4.16663C16.6666 5.54734 13.6818 6.66663 9.99992 6.66663C6.31802 6.66663 3.33325 5.54734 3.33325 4.16663M16.6666 4.16663C16.6666 2.78591 13.6818 1.66663 9.99992 1.66663C6.31802 1.66663 3.33325 2.78591 3.33325 4.16663M16.6666 4.16663V15.8333C16.6666 17.214 13.6818 18.3333 9.99992 18.3333C6.31802 18.3333 3.33325 17.214 3.33325 15.8333V4.16663M16.6666 8.05546C16.6666 9.43617 13.6818 10.5555 9.99992 10.5555C6.31802 10.5555 3.33325 9.43617 3.33325 8.05546M16.6666 11.9416C16.6666 13.3223 13.6818 14.4416 9.99992 14.4416C6.31802 14.4416 3.33325 13.3223 3.33325 11.9416" stroke="white" stroke-width="1.5" stroke-linecap="round" stroke-linejoin="round"/>
</g>
<defs>
<clipPath id="clip0_16249_306167">
<rect width="20" height="20" fill="white"/>
</clipPath>
</defs>
</svg>
