<svg width="20" height="20" viewBox="0 0 20 20" fill="none" xmlns="http://www.w3.org/2000/svg">
<rect x="0.657025" y="0.657025" width="18.3967" height="18.3967" stroke="white" stroke-width="1.31405"/>
<path d="M1.43811 8.21283C1.43811 4.58276 4.38158 1.64258 8.01246 1.64258H11.5982C15.2857 1.64258 18.2744 4.63204 18.2744 8.31959C18.2744 10.7506 16.9546 12.9845 14.8283 14.1589L8.21368 17.8218V14.7913H8.15865C4.4711 14.8734 1.43811 11.9086 1.43811 8.21283ZM8.01246 3.28514C5.28827 3.28514 3.08067 5.49439 3.08067 8.21283C3.08067 10.9805 5.35562 13.2062 8.12169 13.1487L8.40996 13.1405H9.85624V15.0295L14.0341 12.7217C15.6364 11.8347 16.6318 10.151 16.6318 8.31959C16.6318 5.53545 14.3782 3.28514 11.5982 3.28514H8.01246Z" fill="#6D6D6D"/>
</svg>
