<svg width="32" height="32" viewBox="0 0 32 32" fill="none" xmlns="http://www.w3.org/2000/svg">
<path d="M10.2741 8.23533C8.64332 8.55368 7.4126 9.99017 7.4126 11.7141C7.4126 13.6717 8.99954 15.2587 10.9571 15.2587C12.6811 15.2587 14.1176 14.0279 14.4359 12.3972M10.2741 8.23533L14.4359 12.3972M10.2741 8.23533V2.66692M14.4359 12.3972H17.5635M21.7253 8.23533C23.3561 8.55368 24.5868 9.99017 24.5868 11.7141C24.5868 13.6717 22.9999 15.2587 21.0423 15.2587C19.3183 15.2587 17.8818 14.0279 17.5635 12.3972M21.7253 8.23533L17.5635 12.3972M21.7253 8.23533V2.83152M7.85265 20.9934H24.1468L24.5855 23.1882C21.0893 23.8139 19.4526 24.9309 18.1647 27.8016C17.7613 28.7007 16.9023 29.3336 15.9169 29.3336C15.0142 29.3336 14.2029 28.8028 13.7811 28.0048C12.0353 24.7025 10.3958 23.5795 7.41345 23.1882L7.85265 20.9934Z" stroke="#EAECF0" stroke-width="1.33333" stroke-linecap="round" stroke-linejoin="round"/>
</svg>
