<svg width="18" height="18" viewBox="0 0 18 18" fill="none" xmlns="http://www.w3.org/2000/svg">
<g id="credit-card-download">
<path id="Icon" d="M6.75 12.7499L9 14.9999M9 14.9999L11.25 12.7499M9 14.9999V9.74988M16.5 6.74988H1.5M4.125 13.4999H3.9C3.05992 13.4999 2.63988 13.4999 2.31901 13.3364C2.03677 13.1926 1.8073 12.9631 1.66349 12.6809C1.5 12.36 1.5 11.94 1.5 11.0999V5.39988C1.5 4.5598 1.5 4.13976 1.66349 3.81889C1.8073 3.53665 2.03677 3.30718 2.31901 3.16337C2.63988 2.99988 3.05992 2.99988 3.9 2.99988H14.1C14.9401 2.99988 15.3601 2.99988 15.681 3.16337C15.9632 3.30718 16.1927 3.53665 16.3365 3.81889C16.5 4.13976 16.5 4.5598 16.5 5.39988V11.0999C16.5 11.94 16.5 12.36 16.3365 12.6809C16.1927 12.9631 15.9632 13.1926 15.681 13.3364C15.3601 13.4999 14.9401 13.4999 14.1 13.4999H13.875" stroke="black" stroke-linecap="round" stroke-linejoin="round"/>
</g>
</svg>
