<svg width="16" height="17" viewBox="0 0 16 17" fill="none" xmlns="http://www.w3.org/2000/svg">
<g id="dots-vertical">
<g id="Icon">
<path d="M8.00016 9.41663C8.36835 9.41663 8.66683 9.11815 8.66683 8.74996C8.66683 8.38177 8.36835 8.08329 8.00016 8.08329C7.63197 8.08329 7.3335 8.38177 7.3335 8.74996C7.3335 9.11815 7.63197 9.41663 8.00016 9.41663Z" stroke="#344054" stroke-width="1.25" stroke-linecap="round" stroke-linejoin="round"/>
<path d="M8.00016 4.74996C8.36835 4.74996 8.66683 4.45148 8.66683 4.08329C8.66683 3.7151 8.36835 3.41663 8.00016 3.41663C7.63197 3.41663 7.3335 3.7151 7.3335 4.08329C7.3335 4.45148 7.63197 4.74996 8.00016 4.74996Z" stroke="#344054" stroke-width="1.25" stroke-linecap="round" stroke-linejoin="round"/>
<path d="M8.00016 14.0833C8.36835 14.0833 8.66683 13.7848 8.66683 13.4166C8.66683 13.0484 8.36835 12.75 8.00016 12.75C7.63197 12.75 7.3335 13.0484 7.3335 13.4166C7.3335 13.7848 7.63197 14.0833 8.00016 14.0833Z" stroke="#344054" stroke-width="1.25" stroke-linecap="round" stroke-linejoin="round"/>
</g>
</g>
</svg>
