<svg width="32" height="32" viewBox="0 0 32 32" fill="none" xmlns="http://www.w3.org/2000/svg">
<g id="icon/edit" clip-path="url(#clip0_4096_67531)">
<g id="Clip path group">
<mask id="mask0_4096_67531" style="mask-type:luminance" maskUnits="userSpaceOnUse" x="0" y="0" width="32" height="32">
<g id="icon-1bcbb1f52696ccc">
<path id="Vector" d="M32 0H0V32H32V0Z" fill="white"/>
</g>
</mask>
<g mask="url(#mask0_4096_67531)">
<path id="Icon" d="M28 19.5V21.1C28 23.3402 28 24.4603 27.564 25.316C27.1805 26.0686 26.5686 26.6805 25.816 27.064C24.9603 27.5 23.8402 27.5 21.6 27.5H10.4C8.15979 27.5 7.03969 27.5 6.18404 27.064C5.43139 26.6805 4.81947 26.0686 4.43597 25.316C4 24.4603 4 23.3402 4 21.1V19.5M22.6667 10.1667L16 3.5M16 3.5L9.33333 10.1667M16 3.5V19.5" stroke="black" stroke-width="3" stroke-linecap="round" stroke-linejoin="round"/>
</g>
</g>
</g>
<defs>
<clipPath id="clip0_4096_67531">
<rect width="32" height="32" fill="white"/>
</clipPath>
</defs>
</svg>
