<svg width="33" height="32" viewBox="0 0 33 32" fill="none" xmlns="http://www.w3.org/2000/svg">
<g id="Clip path group">
<mask id="mask0_4993_18435" style="mask-type:luminance" maskUnits="userSpaceOnUse" x="0" y="0" width="33" height="32">
<g id="icon-1bcbb1f52696ccc">
<path id="Vector" d="M32.5 0H0.5V32H32.5V0Z" fill="white"/>
</g>
</mask>
<g mask="url(#mask0_4993_18435)">
<g id="Group">
<path id="color 1" fill-rule="evenodd" clip-rule="evenodd" d="M23.3211 5.25913C23.9719 4.60831 25.0271 4.60828 25.678 5.25907L27.2399 6.82079C27.8909 7.47165 27.8909 8.52699 27.24 9.17789L26.4995 9.91838L22.5807 5.99952L23.3211 5.25913ZM21.1664 7.41371L25.0853 11.3326L11.4995 24.9184L7.58043 20.9993L21.1664 7.41371ZM6.55811 22.8054L5.77429 26.7245L9.69339 25.9407L6.55811 22.8054ZM20.4405 5.3112L20.441 5.31074C20.4469 5.30449 20.4529 5.29829 20.4591 5.29216C20.4654 5.28586 20.4717 5.27967 20.4782 5.27357L21.9069 3.8449C23.3387 2.41308 25.6602 2.41302 27.0921 3.84476L28.654 5.40648C30.0861 6.83837 30.0862 9.16011 28.6542 10.5921L27.2066 12.0397L11.8733 27.373C11.7337 27.5126 11.5559 27.6078 11.3623 27.6465L4.69564 28.9798C4.36778 29.0454 4.02884 28.9428 3.79242 28.7064C3.556 28.4699 3.45337 28.131 3.51895 27.8031L4.85229 21.1365C4.89101 20.9429 4.98617 20.7651 5.12578 20.6255L20.4405 5.3112Z" fill="black"/>
</g>
</g>
</g>
</svg>
