<svg width="15" height="11" viewBox="0 0 15 11" fill="none" xmlns="http://www.w3.org/2000/svg">
<path fill-rule="evenodd" clip-rule="evenodd" d="M3.3589 2.71075C2.34738 3.55499 1.64033 4.54615 1.28322 5.1116C1.25974 5.14877 1.24292 5.17544 1.22878 5.19872C1.21498 5.22145 1.20746 5.23489 1.20302 5.24344C1.20199 5.24541 1.20059 5.24825 1.20059 5.24825C1.20026 5.25312 1.2 5.25944 1.2 5.26667C1.2 5.2739 1.20026 5.28021 1.20059 5.28508C1.20059 5.28508 1.20199 5.28792 1.20302 5.28989C1.20746 5.29845 1.21498 5.31188 1.22878 5.33462C1.24292 5.3579 1.25974 5.38456 1.28322 5.42173C1.64033 5.98719 2.34738 6.97835 3.3589 7.82258C4.36902 8.66563 5.6466 9.33333 7.16277 9.33333C8.67893 9.33333 9.95652 8.66563 10.9666 7.82258C11.9782 6.97835 12.6852 5.98719 13.0423 5.42173C13.0658 5.38456 13.0826 5.3579 13.0968 5.33462C13.1106 5.31188 13.1181 5.29844 13.1225 5.28989C13.1235 5.28792 13.1249 5.28508 13.1249 5.28508C13.1253 5.28021 13.1255 5.2739 13.1255 5.26667C13.1255 5.25944 13.1253 5.25312 13.1249 5.24825C13.1249 5.24825 13.1235 5.24541 13.1225 5.24344C13.1181 5.23489 13.1106 5.22145 13.0968 5.19872C13.0826 5.17544 13.0658 5.14877 13.0423 5.1116C12.6852 4.54615 11.9782 3.55499 10.9666 2.71075C9.95652 1.8677 8.67893 1.2 7.16277 1.2C5.6466 1.2 4.36902 1.8677 3.3589 2.71075ZM2.58998 1.78947C3.73489 0.833913 5.2756 0 7.16277 0C9.04994 0 10.5906 0.833913 11.7356 1.78947C12.8791 2.74385 13.6638 3.84829 14.0569 4.47083C14.062 4.4789 14.0672 4.48709 14.0725 4.4954C14.1511 4.61926 14.2472 4.77068 14.2961 4.98367C14.3354 5.15517 14.3354 5.37816 14.2961 5.54966C14.2472 5.76265 14.1511 5.91407 14.0725 6.03793C14.0672 6.04624 14.062 6.05443 14.0569 6.0625C13.6638 6.68504 12.8791 7.78948 11.7356 8.74386C10.5906 9.69942 9.04994 10.5333 7.16277 10.5333C5.2756 10.5333 3.73489 9.69942 2.58998 8.74386C1.44648 7.78948 0.661776 6.68504 0.268615 6.0625C0.263516 6.05443 0.258319 6.04624 0.253044 6.03793C0.174417 5.91407 0.0783024 5.76265 0.0294821 5.54966C-0.00982736 5.37816 -0.00982736 5.15517 0.0294821 4.98367C0.0783024 4.77068 0.174417 4.61926 0.253044 4.4954C0.258319 4.48709 0.263516 4.4789 0.268614 4.47083C0.661776 3.84829 1.44648 2.74385 2.58998 1.78947ZM4.56277 5.26667C4.56277 3.83073 5.72683 2.66667 7.16277 2.66667C8.59871 2.66667 9.76277 3.83073 9.76277 5.26667C9.76277 6.70261 8.59871 7.86667 7.16277 7.86667C5.72683 7.86667 4.56277 6.70261 4.56277 5.26667Z" fill="#22CCEE"/>
</svg>
