<svg width="28" height="28" viewBox="0 0 28 28" fill="none" xmlns="http://www.w3.org/2000/svg">
<g id="icon">
<path id="Icon" d="M9.33325 16.3335C9.33325 16.3335 11.0833 18.6668 13.9999 18.6668C16.9166 18.6668 18.6666 16.3335 18.6666 16.3335M17.4999 10.5002H17.5116M9.33325 10.5002H11.6666M25.6666 14.0002C25.6666 20.4435 20.4432 25.6668 13.9999 25.6668C7.5566 25.6668 2.33325 20.4435 2.33325 14.0002C2.33325 7.55684 7.5566 2.3335 13.9999 2.3335C20.4432 2.3335 25.6666 7.55684 25.6666 14.0002ZM18.0833 10.5002C18.0833 10.8223 17.8221 11.0835 17.4999 11.0835C17.1778 11.0835 16.9166 10.8223 16.9166 10.5002C16.9166 10.178 17.1778 9.91683 17.4999 9.91683C17.8221 9.91683 18.0833 10.178 18.0833 10.5002Z" stroke="#22CCEE" stroke-width="2" stroke-linecap="round" stroke-linejoin="round"/>
</g>
</svg>
