<svg width="16" height="17" viewBox="0 0 16 17" fill="none" xmlns="http://www.w3.org/2000/svg">
<g id="icon/flame">
<path id="Vector" d="M9.43111 1.42686C9.43655 1.42348 9.44287 1.42179 9.44927 1.42202C9.45566 1.42224 9.46185 1.42436 9.46704 1.42811C9.47223 1.43186 9.47619 1.43706 9.47841 1.44307C9.48064 1.44907 9.48102 1.4556 9.47953 1.46183C9.3531 1.96215 8.73173 4.85917 10.9778 6.73941C13.1728 8.57931 13.24 11.3472 11.6045 13.1952C9.64899 15.409 6.26778 15.0189 4.81255 13.5637C3.7877 12.5442 1.92628 9.2195 5.11382 6.44083C5.11632 6.43749 5.11957 6.43478 5.12331 6.43291C5.12704 6.43105 5.13116 6.43007 5.13534 6.43007C5.13951 6.43007 5.14363 6.43105 5.14737 6.43291C5.1511 6.43478 5.15435 6.43749 5.15686 6.44083C5.23486 6.77169 5.77553 8.86175 7.21732 9.13074C7.28457 9.13074 7.31685 9.10115 7.28457 9.03928C6.85956 8.21617 4.94435 4.01992 9.43111 1.42686Z" fill="#FF4848" stroke="#FF4848" stroke-width="1.5" stroke-linecap="round"/>
</g>
</svg>
