<svg width="21" height="20" viewBox="0 0 21 20" fill="none" xmlns="http://www.w3.org/2000/svg">
<g id="grid-03">
<path id="Icon" d="M6.83268 2.5H5.33268C4.39926 2.5 3.93255 2.5 3.57603 2.68166C3.26243 2.84144 3.00746 3.09641 2.84767 3.41002C2.66602 3.76654 2.66602 4.23325 2.66602 5.16667V6.66667M6.83268 17.5H5.33268C4.39926 17.5 3.93255 17.5 3.57603 17.3183C3.26243 17.1586 3.00746 16.9036 2.84767 16.59C2.66602 16.2335 2.66602 15.7668 2.66602 14.8333V13.3333M17.666 6.66667V5.16667C17.666 4.23325 17.666 3.76654 17.4844 3.41002C17.3246 3.09641 17.0696 2.84144 16.756 2.68166C16.3995 2.5 15.9328 2.5 14.9993 2.5H13.4993M17.666 13.3333V14.8333C17.666 15.7668 17.666 16.2335 17.4844 16.59C17.3246 16.9036 17.0696 17.1586 16.756 17.3183C16.3995 17.5 15.9328 17.5 14.9993 17.5H13.4993M13.4993 10C13.4993 11.8409 12.007 13.3333 10.166 13.3333C8.32507 13.3333 6.83268 11.8409 6.83268 10C6.83268 8.15905 8.32507 6.66667 10.166 6.66667C12.007 6.66667 13.4993 8.15905 13.4993 10Z" stroke="#98A2B3" stroke-width="2" stroke-linecap="round" stroke-linejoin="round"/>
</g>
</svg>
