<svg width="32" height="32" viewBox="0 0 32 32" fill="none" xmlns="http://www.w3.org/2000/svg">
<g clip-path="url(#clip0_23765_239618)">
<path d="M13.667 2.11719C15.0206 1.33576 16.6682 1.28694 18.0586 1.9707L18.333 2.11719L26.8564 7.03809C28.3002 7.87171 29.1894 9.41197 29.1895 11.0791V20.9209C29.1894 22.484 28.4077 23.9357 27.1201 24.7979L26.8564 24.9619L18.333 29.8828C16.9794 30.6642 15.3318 30.7131 13.9414 30.0293L13.667 29.8828L5.14355 24.9619C3.69981 24.1283 2.81058 22.588 2.81055 20.9209V11.0791C2.81058 9.51597 3.59229 8.06435 4.87988 7.20215L5.14355 7.03809L13.667 2.11719Z" stroke="#EAECF0" stroke-width="1.33333" stroke-linejoin="round"/>
<path d="M14.9996 6.01334C15.5798 5.6784 16.2865 5.65776 16.8824 5.95084L16.9996 6.01334L24.1481 10.1413C24.7668 10.4985 25.148 11.1583 25.1481 11.8727V20.1266C25.1481 20.7965 24.8132 21.4192 24.2614 21.7887L24.1481 21.859L16.9996 25.986C16.4195 26.3209 15.7136 26.3416 15.1178 26.0485L14.9996 25.986L7.8512 21.859C7.23262 21.5017 6.8512 20.841 6.8512 20.1266V11.8727C6.85127 11.2029 7.18708 10.5811 7.73889 10.2116L7.8512 10.1413L14.9996 6.01334Z" stroke="#EAECF0" stroke-width="1.33333" stroke-linejoin="round"/>
<path d="M15.4203 10.6855C17.0308 10.5085 18.485 11.6271 18.7406 13.207L18.7621 13.3613C18.8421 14.0851 18.66 14.7765 18.2914 15.3418L18.1215 15.5762L18.1205 15.5781C17.5951 16.2431 17.2481 17.3766 17.9095 18.2764V18.2773L19.1732 19.9971C19.397 20.3018 19.2313 20.7239 18.8832 20.8105L18.8109 20.8232H18.8099L14.223 21.3301C13.8506 21.3713 13.5661 21.019 13.6644 20.6729L13.6898 20.6035V20.6025L14.5775 18.5811C14.9926 17.6359 14.5256 16.6828 13.934 16.124L13.8138 16.0186L13.8129 16.0176L13.6039 15.8262C13.2044 15.4256 12.9152 14.9102 12.7914 14.3252L12.7435 14.0264C12.5664 12.4139 13.6846 10.9617 15.265 10.7061L15.4203 10.6855Z" fill="#EAECF0" stroke="#EAECF0" stroke-width="1.33333"/>
</g>
<defs>
<clipPath id="clip0_23765_239618">
<rect width="32" height="32" fill="white"/>
</clipPath>
</defs>
</svg>
