<svg width="65" height="65" viewBox="0 0 65 65" fill="none" xmlns="http://www.w3.org/2000/svg">
<g id="image-03">
<path id="Icon" d="M11.8924 55.7744L29.4832 38.1837C30.5392 37.1276 31.0672 36.5996 31.6761 36.4018C32.2117 36.2277 32.7886 36.2277 33.3242 36.4018C33.9331 36.5996 34.4611 37.1276 35.5172 38.1837L52.9906 55.6571M37.8335 40.5L45.4832 32.8503C46.5392 31.7943 47.0672 31.2663 47.6761 31.0684C48.2117 30.8944 48.7886 30.8944 49.3242 31.0684C49.9331 31.2663 50.4611 31.7943 51.5172 32.8503L59.1668 40.5M27.1668 24.5C27.1668 27.4455 24.779 29.8333 21.8335 29.8333C18.888 29.8333 16.5002 27.4455 16.5002 24.5C16.5002 21.5545 18.888 19.1667 21.8335 19.1667C24.779 19.1667 27.1668 21.5545 27.1668 24.5ZM18.6335 56.5H46.3668C50.8473 56.5 53.0875 56.5 54.7988 55.6281C56.304 54.8611 57.5279 53.6372 58.2949 52.1319C59.1668 50.4206 59.1668 48.1804 59.1668 43.7V21.3C59.1668 16.8196 59.1668 14.5794 58.2949 12.8681C57.5279 11.3628 56.304 10.1389 54.7988 9.37195C53.0875 8.5 50.8473 8.5 46.3668 8.5H18.6335C14.1531 8.5 11.9129 8.5 10.2016 9.37195C8.69628 10.1389 7.47243 11.3628 6.70544 12.8681C5.8335 14.5794 5.8335 16.8196 5.8335 21.3V43.7C5.8335 48.1804 5.8335 50.4206 6.70544 52.1319C7.47243 53.6372 8.69628 54.8611 10.2016 55.6281C11.9129 56.5 14.1531 56.5 18.6335 56.5Z" stroke="#98A2B3" stroke-width="2" stroke-linecap="round" stroke-linejoin="round"/>
</g>
</svg>
