<svg width="20" height="20" viewBox="0 0 20 20" fill="none" xmlns="http://www.w3.org/2000/svg">
<g id="image-gallery">
<path id="Icon" d="M17.5 6.25V12.1667C17.5 14.0335 17.5 14.9669 17.1367 15.68C16.8171 16.3072 16.3072 16.8171 15.68 17.1367C14.9669 17.5 14.0335 17.5 12.1667 17.5H6.25M3.3834 14.1166L7.26988 10.2301C7.54489 9.95511 7.6824 9.8176 7.84096 9.76608C7.98043 9.72076 8.13068 9.72076 8.27015 9.76608C8.42871 9.8176 8.56622 9.95511 8.84123 10.2301L13.3916 14.7805M9.44444 10.8333L11.4365 8.84123C11.7116 8.56622 11.8491 8.42871 12.0076 8.37719C12.1471 8.33187 12.2973 8.33187 12.4368 8.37719C12.5954 8.42871 12.7329 8.56622 13.0079 8.84123L15 10.8333M7.36111 5.97222C7.36111 6.73928 6.73928 7.36111 5.97222 7.36111C5.20516 7.36111 4.58333 6.73928 4.58333 5.97222C4.58333 5.20516 5.20516 4.58333 5.97222 4.58333C6.73928 4.58333 7.36111 5.20516 7.36111 5.97222ZM5.83333 15H11.6667C12.8334 15 13.4168 15 13.8625 14.7729C14.2545 14.5732 14.5732 14.2545 14.7729 13.8625C15 13.4168 15 12.8334 15 11.6667V5.83333C15 4.66656 15 4.08317 14.7729 3.63752C14.5732 3.24552 14.2545 2.92681 13.8625 2.72707C13.4168 2.5 12.8334 2.5 11.6667 2.5H5.83333C4.66656 2.5 4.08317 2.5 3.63752 2.72707C3.24552 2.92681 2.92681 3.24552 2.72707 3.63752C2.5 4.08317 2.5 4.66656 2.5 5.83333V11.6667C2.5 12.8334 2.5 13.4168 2.72707 13.8625C2.92681 14.2545 3.24552 14.5732 3.63752 14.7729C4.08317 15 4.66656 15 5.83333 15Z" stroke="#0C111D" stroke-width="1.5" stroke-linecap="round" stroke-linejoin="round"/>
</g>
</svg>
