<svg width="24" height="25" viewBox="0 0 24 25" fill="none" xmlns="http://www.w3.org/2000/svg">
<g id="line-chart-up-02">
<path id="Icon" d="M21 21.5352H4.6C4.03995 21.5352 3.75992 21.5352 3.54601 21.4262C3.35785 21.3303 3.20487 21.1773 3.10899 20.9891C3 20.7752 3 20.4952 3 19.9352V3.53516M21 7.53516L15.5657 12.9695C15.3677 13.1675 15.2687 13.2665 15.1545 13.3036C15.0541 13.3362 14.9459 13.3362 14.8455 13.3036C14.7313 13.2665 14.6323 13.1675 14.4343 12.9695L12.5657 11.1008C12.3677 10.9028 12.2687 10.8038 12.1545 10.7667C12.0541 10.7341 11.9459 10.7341 11.8455 10.7667C11.7313 10.8038 11.6323 10.9028 11.4343 11.1008L7 15.5352M21 7.53516H17M21 7.53516V11.5352" stroke="#63D0FF" stroke-width="2" stroke-linecap="round" stroke-linejoin="round"/>
</g>
</svg>
