<svg width="14" height="15" viewBox="0 0 14 15" fill="none" xmlns="http://www.w3.org/2000/svg">
<path fill-rule="evenodd" clip-rule="evenodd" d="M9.81222 0.72998H4.18597C2.19547 0.72998 0.583252 2.34364 0.583252 4.33388V9.95941C0.583252 11.9497 2.19547 13.5633 4.18597 13.5633H9.81222C11.8027 13.5633 13.4166 11.9497 13.4166 9.95941V4.33388C13.4166 2.34364 11.8027 0.72998 9.81222 0.72998ZM8.75172 10.4433L5.96833 10.7506C5.41661 10.8117 5.00694 10.2518 5.22995 9.7447L5.76845 8.51752C5.93529 8.13764 5.73542 7.7016 5.41661 7.43569C4.98712 7.07893 4.68979 6.56031 4.62371 5.96076C4.48826 4.72863 5.37531 3.62202 6.60595 3.48659C7.83659 3.35115 8.94499 4.23809 9.08044 5.46857C9.14817 6.08133 8.96151 6.66271 8.60636 7.10866C8.34536 7.43899 8.23799 7.91797 8.48742 8.25656L9.25389 9.3004C9.58261 9.748 9.30344 10.3839 8.75172 10.4433Z" fill="#FCFCFD"/>
</svg>
