<svg width="14" height="15" viewBox="0 0 14 15" fill="none" xmlns="http://www.w3.org/2000/svg">
<g id="logo_bg">
<path id="Icon" fill-rule="evenodd" clip-rule="evenodd" d="M9.81222 1.4502H4.18597C2.19547 1.4502 0.583252 3.06386 0.583252 5.0541V10.6796C0.583252 12.6699 2.19547 14.2835 4.18597 14.2835H9.81222C11.8027 14.2835 13.4166 12.6699 13.4166 10.6796V5.0541C13.4166 3.06386 11.8027 1.4502 9.81222 1.4502ZM8.75172 11.1636L5.96833 11.4708C5.41661 11.5319 5.00694 10.972 5.22995 10.4649L5.76845 9.23773C5.93529 8.85785 5.73542 8.42182 5.41661 8.1559C4.98712 7.79914 4.68979 7.28053 4.62371 6.68098C4.48826 5.44884 5.37531 4.34224 6.60595 4.2068C7.83659 4.07137 8.94499 4.9583 9.08044 6.18878C9.14817 6.80155 8.96151 7.38293 8.60636 7.82887C8.34536 8.1592 8.23799 8.63818 8.48742 8.97677L9.25389 10.0206C9.58261 10.4682 9.30344 11.1041 8.75172 11.1636Z" fill="#FCFCFD"/>
<path id="Vector" fill-rule="evenodd" clip-rule="evenodd" d="M8.91101 11.463L5.87458 11.7981C5.2727 11.8648 4.8258 11.254 5.06907 10.7008L5.65654 9.36208C5.83854 8.94766 5.6205 8.47199 5.2727 8.1819C4.80417 7.79271 4.47981 7.22694 4.40773 6.57289C4.25996 5.22874 5.22765 4.02154 6.57017 3.87379C7.91268 3.72604 9.12185 4.69361 9.26961 6.03595C9.3435 6.70442 9.13987 7.33865 8.75243 7.82514C8.46771 8.1855 8.35058 8.70802 8.62268 9.07739L9.45883 10.2161C9.81743 10.7044 9.51289 11.3981 8.91101 11.463Z" fill="#FCE40D"/>
</g>
</svg>
