<svg width="28" height="28" viewBox="0 0 28 28" fill="none" xmlns="http://www.w3.org/2000/svg">
<g id="icon">
<path id="Icon" d="M17.8064 21.0525L17.806 21.0525L11.7332 21.7228L11.7331 21.7228C10.6377 21.8441 9.82395 20.7323 10.2668 19.7253L10.2669 19.7252L11.4418 17.0478C11.4418 17.0477 11.4418 17.0477 11.4418 17.0477C11.8413 16.138 11.3563 15.1236 10.6353 14.5223L10.6351 14.5221C9.72511 13.7662 9.09525 12.6676 8.95524 11.3972C8.66824 8.78628 10.5478 6.44166 13.1553 6.15471C15.763 5.86772 18.1115 7.74713 18.3985 10.3542L18.3985 10.3543C18.542 11.6525 18.1466 12.8841 17.394 13.8292L17.3936 13.8296C16.804 14.5759 16.5337 15.694 17.1311 16.5052C17.1312 16.5052 17.1312 16.5053 17.1313 16.5053L18.8034 18.7826L18.8034 18.7826C19.4565 19.6719 18.9016 20.9345 17.8064 21.0525ZM17.8215 21.1928L11.7487 21.8631C10.5449 21.9964 9.65111 20.7748 10.1377 19.6685L17.8215 21.1928Z" fill="#2ED3B7" stroke="#2ED3B7" stroke-width="0.282259"/>
</g>
</svg>
