<svg width="17" height="17" viewBox="0 0 17 17" fill="none" xmlns="http://www.w3.org/2000/svg">
<g id="leading icon">
<g id="Icon">
<path d="M6.83333 6.47689C6.83333 6.1587 6.83333 5.9996 6.89983 5.91078C6.95778 5.83338 7.04648 5.78496 7.14292 5.77807C7.25359 5.77016 7.38742 5.8562 7.65507 6.02826L10.8021 8.05137C11.0344 8.20068 11.1505 8.27533 11.1906 8.37026C11.2257 8.4532 11.2257 8.5468 11.1906 8.62974C11.1505 8.72467 11.0344 8.79932 10.8021 8.94863L7.65507 10.9717C7.38742 11.1438 7.25359 11.2298 7.14292 11.2219C7.04648 11.215 6.95778 11.1666 6.89983 11.0892C6.83333 11.0004 6.83333 10.8413 6.83333 10.5231V6.47689Z" stroke="#E478FA" stroke-width="1.5" stroke-linecap="round" stroke-linejoin="round"/>
<path d="M2.5 5.7C2.5 4.5799 2.5 4.01984 2.71799 3.59202C2.90973 3.21569 3.21569 2.90973 3.59202 2.71799C4.01984 2.5 4.5799 2.5 5.7 2.5H11.3C12.4201 2.5 12.9802 2.5 13.408 2.71799C13.7843 2.90973 14.0903 3.21569 14.282 3.59202C14.5 4.01984 14.5 4.5799 14.5 5.7V11.3C14.5 12.4201 14.5 12.9802 14.282 13.408C14.0903 13.7843 13.7843 14.0903 13.408 14.282C12.9802 14.5 12.4201 14.5 11.3 14.5H5.7C4.5799 14.5 4.01984 14.5 3.59202 14.282C3.21569 14.0903 2.90973 13.7843 2.71799 13.408C2.5 12.9802 2.5 12.4201 2.5 11.3V5.7Z" stroke="#E478FA" stroke-width="1.5" stroke-linecap="round" stroke-linejoin="round"/>
</g>
</g>
</svg>
