<svg width="16" height="17" viewBox="0 0 16 17" fill="none" xmlns="http://www.w3.org/2000/svg">
<g id="message-text-square-02">
<path id="Icon" d="M4.66667 6.49797H8M4.66667 8.8313H10M4.66667 12.8313V14.3883C4.66667 14.7435 4.66667 14.9211 4.73949 15.0124C4.80282 15.0917 4.89885 15.1379 5.00036 15.1378C5.11708 15.1376 5.25578 15.0267 5.53317 14.8048L7.12348 13.5325C7.44834 13.2726 7.61078 13.1427 7.79166 13.0503C7.95213 12.9683 8.12295 12.9084 8.29948 12.8721C8.49845 12.8313 8.70646 12.8313 9.1225 12.8313H10.8C11.9201 12.8313 12.4802 12.8313 12.908 12.6133C13.2843 12.4216 13.5903 12.1156 13.782 11.7393C14 11.3115 14 10.7514 14 9.6313V6.0313C14 4.91119 14 4.35114 13.782 3.92332C13.5903 3.54699 13.2843 3.24103 12.908 3.04929C12.4802 2.8313 11.9201 2.8313 10.8 2.8313H5.2C4.0799 2.8313 3.51984 2.8313 3.09202 3.04929C2.71569 3.24103 2.40973 3.54699 2.21799 3.92332C2 4.35114 2 4.91119 2 6.0313V10.1646C2 10.7846 2 11.0946 2.06815 11.3489C2.25308 12.0391 2.79218 12.5782 3.48236 12.7631C3.7367 12.8313 4.04669 12.8313 4.66667 12.8313Z" stroke="white" stroke-width="1.25" stroke-linecap="round" stroke-linejoin="round"/>
</g>
</svg>
