<svg width="17" height="17" viewBox="0 0 17 17" fill="none" xmlns="http://www.w3.org/2000/svg">
<g id="leading icon">
<path id="Icon" d="M5.83292 6.83333H8.49959M5.83292 9.16667H10.4996M8.83292 13.8333C11.9625 13.8333 14.4996 11.2963 14.4996 8.16667C14.4996 5.03705 11.9625 2.5 8.83292 2.5C5.70331 2.5 3.16625 5.03705 3.16625 8.16667C3.16625 8.8 3.27015 9.40906 3.46183 9.97774C3.53397 10.1917 3.57003 10.2987 3.57654 10.381C3.58296 10.4621 3.57811 10.519 3.55802 10.598C3.53769 10.6779 3.49278 10.761 3.40298 10.9272L2.31254 12.9456C2.157 13.2335 2.07923 13.3774 2.09664 13.4885C2.1118 13.5853 2.16875 13.6705 2.25237 13.7215C2.34837 13.7801 2.51112 13.7632 2.83661 13.7296L6.25063 13.3767C6.35402 13.366 6.40571 13.3606 6.45283 13.3624C6.49917 13.3642 6.53188 13.3686 6.57708 13.379C6.62302 13.3896 6.6808 13.4118 6.79636 13.4564C7.42839 13.6999 8.11507 13.8333 8.83292 13.8333Z" stroke="#FAC515" stroke-width="1.5" stroke-linecap="round" stroke-linejoin="round"/>
</g>
</svg>
