<svg xmlns="http://www.w3.org/2000/svg" width="24" height="24" viewBox="0 0 32 32" fill="none">
    <path d="M6.66687 18.6666H24.1812C25.5316 18.6666 26.2068 18.6666 26.7444 18.4149C27.2179 18.1931 27.6157 17.837 27.8885 17.3908C28.198 16.8844 28.2726 16.2133 28.4217 14.8711L29.2017 7.85109C29.2473 7.44114 29.2701 7.23616 29.2042 7.07751C29.1463 6.93817 29.0428 6.82259 28.9107 6.74966C28.7603 6.66663 28.5541 6.66663 28.1416 6.66663H6.00021M2.66669 2.66663H4.33127C4.6841 2.66663 4.86052 2.66663 4.99854 2.73373C5.12004 2.7928 5.22073 2.88739 5.28727 3.00498C5.36285 3.13854 5.37385 3.31461 5.39586 3.66676L6.60418 22.9998C6.62619 23.352 6.63719 23.528 6.71277 23.6616C6.77931 23.7792 6.88 23.8738 7.0015 23.9329C7.13952 24 7.31594 24 7.66877 24H25.3334M10 28.6666H10.0134M22 28.6666H22.0134M10.6667 28.6666C10.6667 29.0348 10.3682 29.3333 10 29.3333C9.63183 29.3333 9.33335 29.0348 9.33335 28.6666C9.33335 28.2984 9.63183 28 10 28C10.3682 28 10.6667 28.2984 10.6667 28.6666ZM22.6667 28.6666C22.6667 29.0348 22.3682 29.3333 22 29.3333C21.6318 29.3333 21.3334 29.0348 21.3334 28.6666C21.3334 28.2984 21.6318 28 22 28C22.3682 28 22.6667 28.2984 22.6667 28.6666Z" stroke="#FFFFFF" stroke-width="2" stroke-linecap="round" stroke-linejoin="round"></path>
</svg>