<svg width="17" height="16" viewBox="0 0 17 16" fill="none" xmlns="http://www.w3.org/2000/svg">
<g id="leading icon">
<path id="Icon" d="M14.1666 4.85221L8.49998 8.00036M8.49998 8.00036L2.83331 4.85221M8.49998 8.00036L8.5 14.3337M9.83333 13.9263L9.01802 14.3793C8.82895 14.4843 8.73442 14.5368 8.6343 14.5574C8.5457 14.5756 8.45431 14.5756 8.3657 14.5574C8.26559 14.5368 8.17105 14.4843 7.98198 14.3793L3.04865 11.6385C2.84897 11.5276 2.74912 11.4721 2.67642 11.3932C2.61211 11.3234 2.56343 11.2407 2.53366 11.1506C2.5 11.0487 2.5 10.9345 2.5 10.7061V5.29468C2.5 5.06625 2.5 4.95204 2.53366 4.85017C2.56343 4.76005 2.61211 4.67733 2.67642 4.60754C2.74912 4.52865 2.84897 4.47318 3.04865 4.36225L7.98198 1.6215C8.17105 1.51647 8.26559 1.46395 8.3657 1.44336C8.45431 1.42513 8.5457 1.42513 8.6343 1.44336C8.73442 1.46395 8.82895 1.51646 9.01802 1.6215L13.9514 4.36224C14.151 4.47318 14.2509 4.52865 14.3236 4.60754C14.3879 4.67733 14.4366 4.76005 14.4663 4.85017C14.5 4.95204 14.5 5.06625 14.5 5.29468L14.5 8.33372M5.5 3.00038L11.5 6.33371M13.1667 14.0004V10.0004M11.1667 12.0004H15.1667" stroke="#E478FA" stroke-width="1.5" stroke-linecap="round" stroke-linejoin="round"/>
</g>
</svg>
