<svg width="16" height="17" viewBox="0 0 16 17" fill="none" xmlns="http://www.w3.org/2000/svg">
<g id="pencil-01">
<path id="Icon" d="M1.6665 14.5834L5.36602 13.1605C5.60264 13.0695 5.72096 13.024 5.83165 12.9646C5.92997 12.9118 6.0237 12.8509 6.11186 12.7824C6.21112 12.7054 6.30075 12.6158 6.48002 12.4365L13.9999 4.91671C14.7362 4.18033 14.7362 2.98642 13.9999 2.25004C13.2635 1.51366 12.0696 1.51366 11.3332 2.25004L3.81336 9.76985C3.63409 9.94912 3.54445 10.0388 3.46743 10.138C3.39902 10.2262 3.3381 10.3199 3.28533 10.4182C3.22591 10.5289 3.1804 10.6472 3.08939 10.8839L1.6665 14.5834ZM1.6665 14.5834L3.03858 11.016C3.13677 10.7607 3.18586 10.6331 3.27006 10.5746C3.34365 10.5235 3.43471 10.5042 3.5227 10.521C3.62339 10.5402 3.72009 10.6369 3.91349 10.8303L5.41955 12.3364C5.61295 12.5298 5.70965 12.6265 5.72888 12.7272C5.74568 12.8152 5.72636 12.9062 5.67527 12.9798C5.6168 13.064 5.48916 13.1131 5.23388 13.2113L1.6665 14.5834Z" stroke="#344054" stroke-width="1.25" stroke-linecap="round" stroke-linejoin="round"/>
</g>
</svg>
