<svg width="17" height="17" viewBox="0 0 17 17" fill="none" xmlns="http://www.w3.org/2000/svg">
<g id="leading icon">
<path id="Icon" d="M8.50016 12.1663H8.50683M5.96683 15.1663H11.0335C11.7802 15.1663 12.1536 15.1663 12.4388 15.021C12.6897 14.8932 12.8937 14.6892 13.0215 14.4383C13.1668 14.1531 13.1668 13.7797 13.1668 13.033V3.96634C13.1668 3.2196 13.1668 2.84624 13.0215 2.56102C12.8937 2.31014 12.6897 2.10616 12.4388 1.97833C12.1536 1.83301 11.7802 1.83301 11.0335 1.83301H5.96683C5.22009 1.83301 4.84672 1.83301 4.56151 1.97833C4.31063 2.10616 4.10665 2.31014 3.97882 2.56102C3.8335 2.84624 3.8335 3.2196 3.8335 3.96634V13.033C3.8335 13.7797 3.8335 14.1531 3.97882 14.4383C4.10665 14.6892 4.31063 14.8932 4.56151 15.021C4.84672 15.1663 5.22009 15.1663 5.96683 15.1663ZM8.8335 12.1663C8.8335 12.3504 8.68426 12.4997 8.50016 12.4997C8.31607 12.4997 8.16683 12.3504 8.16683 12.1663C8.16683 11.9822 8.31607 11.833 8.50016 11.833C8.68426 11.833 8.8335 11.9822 8.8335 12.1663Z" stroke="#F670C7" stroke-width="1.5" stroke-linecap="round" stroke-linejoin="round"/>
</g>
</svg>
