<svg width="17" height="17" viewBox="0 0 17 17" fill="none" xmlns="http://www.w3.org/2000/svg">
<g id="leading icon">
<path id="Icon" d="M6.08685 6.40223C6.55085 7.36865 7.18337 8.27441 7.98443 9.07546C8.78548 9.87651 9.69124 10.509 10.6577 10.973C10.7408 11.0129 10.7823 11.0329 10.8349 11.0482C11.0218 11.1027 11.2513 11.0636 11.4096 10.9502C11.4542 10.9183 11.4923 10.8802 11.5685 10.804C11.8016 10.571 11.9181 10.4544 12.0353 10.3782C12.4772 10.0909 13.0469 10.0909 13.4889 10.3782C13.606 10.4544 13.7226 10.571 13.9556 10.804L14.0856 10.9339C14.4398 11.2882 14.617 11.4654 14.7132 11.6556C14.9046 12.034 14.9046 12.4809 14.7132 12.8592C14.617 13.0495 14.4399 13.2266 14.0856 13.5809L13.9805 13.686C13.6274 14.0391 13.4508 14.2156 13.2108 14.3505C12.9445 14.5001 12.5308 14.6077 12.2253 14.6068C11.95 14.6059 11.7619 14.5525 11.3856 14.4457C9.36333 13.8718 7.45509 12.7888 5.86311 11.1968C4.27112 9.60479 3.18814 7.69655 2.61416 5.67429C2.50735 5.29799 2.45395 5.10984 2.45313 4.83455C2.45222 4.52906 2.5598 4.1154 2.70941 3.84907C2.84424 3.60904 3.02078 3.4325 3.37386 3.07942L3.47895 2.97433C3.83325 2.62004 4.0104 2.44289 4.20065 2.34666C4.57903 2.15528 5.02587 2.15528 5.40424 2.34666C5.5945 2.44289 5.77164 2.62004 6.12594 2.97433L6.25585 3.10424C6.48892 3.33732 6.60546 3.45385 6.68165 3.57104C6.96898 4.01296 6.96898 4.58268 6.68165 5.02461C6.60546 5.1418 6.48892 5.25833 6.25585 5.4914C6.17964 5.56761 6.14154 5.60571 6.10965 5.65026C5.9963 5.80854 5.95717 6.03805 6.01165 6.22495C6.02698 6.27754 6.04694 6.31911 6.08685 6.40223Z" stroke="#47CD89" stroke-width="1.5" stroke-linecap="round" stroke-linejoin="round"/>
</g>
</svg>
