<svg width="21" height="20" viewBox="0 0 21 20" fill="none" xmlns="http://www.w3.org/2000/svg">
<g id="play">
<path id="Icon" d="M4.6665 4.15797C4.6665 3.34866 4.6665 2.94401 4.83525 2.72095C4.98225 2.52663 5.20694 2.40638 5.45017 2.39186C5.72937 2.37519 6.06606 2.59965 6.73944 3.04857L15.5024 8.89054C16.0588 9.26148 16.337 9.44695 16.434 9.68072C16.5187 9.8851 16.5187 10.1148 16.434 10.3192C16.337 10.5529 16.0588 10.7384 15.5024 11.1093L6.73944 16.9513C6.06606 17.4002 5.72937 17.6247 5.45017 17.608C5.20694 17.5935 4.98225 17.4733 4.83525 17.2789C4.6665 17.0559 4.6665 16.6512 4.6665 15.8419V4.15797Z" fill="#07F468" stroke="#07F468" stroke-width="2" stroke-linecap="round" stroke-linejoin="round"/>
</g>
</svg>
