<svg width="16" height="16" viewBox="0 0 16 16" fill="none" xmlns="http://www.w3.org/2000/svg">
<g clip-path="url(#clip0_1_7)">
<path d="M5.55925 11.7075C6.38971 12.7025 7.36671 13.3999 7.92503 13.7525C7.95701 13.7727 7.98025 13.7873 8 13.7995C8.01976 13.7873 8.04299 13.7727 8.07497 13.7525C8.63329 13.3999 9.61029 12.7025 10.4408 11.7075C11.2697 10.7142 11.9167 9.46952 11.9167 7.99973C11.9167 6.52994 11.2697 5.28524 10.4408 4.29198C9.61029 3.29695 8.63329 2.59961 8.07497 2.247C8.04299 2.22681 8.01975 2.21215 8 2.20001C7.98025 2.21215 7.95701 2.22681 7.92503 2.247C7.36671 2.59961 6.38971 3.29695 5.55925 4.29198C4.73026 5.28524 4.08334 6.52994 4.08334 7.99973C4.08334 9.46952 4.73026 10.7142 5.55925 11.7075ZM4.40764 12.6686C3.43803 11.5069 2.58334 9.93328 2.58334 7.99973C2.58334 6.06619 3.43802 4.49259 4.40764 3.33083C5.37579 2.17083 6.4944 1.37642 7.12407 0.978752C7.13251 0.973423 7.14119 0.967899 7.15013 0.962213C7.27316 0.883974 7.44447 0.775021 7.6835 0.720236C7.87705 0.675871 8.12295 0.675871 8.31651 0.720235C8.55553 0.775021 8.72685 0.883973 8.84987 0.962213C8.85881 0.967899 8.8675 0.973423 8.87593 0.978752C9.50561 1.37642 10.6242 2.17083 11.5924 3.33083C12.562 4.49259 13.4167 6.06619 13.4167 7.99973C13.4167 9.93328 12.562 11.5069 11.5924 12.6686C10.6242 13.8286 9.50561 14.623 8.87594 15.0207C8.8675 15.026 8.85882 15.0316 8.84988 15.0372C8.72685 15.1155 8.55553 15.2244 8.31651 15.2792C8.12295 15.3236 7.87705 15.3236 7.6835 15.2792C7.44447 15.2244 7.27316 15.1155 7.15013 15.0372C7.14119 15.0316 7.13251 15.026 7.12407 15.0207C6.4944 14.623 5.37579 13.8286 4.40764 12.6686ZM6.75 7.99973C6.75 8.69009 7.30965 9.24973 8 9.24973C8.69036 9.24973 9.25 8.69009 9.25 7.99973C9.25 7.30938 8.69036 6.74973 8 6.74973C7.30965 6.74973 6.75 7.30938 6.75 7.99973ZM8 10.7497C6.48122 10.7497 5.25 9.51851 5.25 7.99973C5.25 6.48095 6.48122 5.24973 8 5.24973C9.51879 5.24973 10.75 6.48095 10.75 7.99973C10.75 9.51851 9.51879 10.7497 8 10.7497Z" fill="black"/>
</g>
<defs>
<clipPath id="clip0_1_7">
<rect width="16" height="16" fill="white" transform="translate(0 16) rotate(-90)"/>
</clipPath>
</defs>
</svg>
