<svg width="17" height="17" viewBox="0 0 17 17" fill="none" xmlns="http://www.w3.org/2000/svg">
<g id="leading icon">
<path id="Icon" d="M3.16685 15.0446C3.56856 15.1663 4.11116 15.1663 5.0335 15.1663H11.9668C12.8892 15.1663 13.4318 15.1663 13.8335 15.0446M3.16685 15.0446C3.08071 15.0185 3.00105 14.9868 2.92552 14.9484C2.54919 14.7566 2.24323 14.4506 2.05148 14.0743C1.8335 13.6465 1.8335 13.0864 1.8335 11.9663V5.03301C1.8335 3.9129 1.8335 3.35285 2.05148 2.92503C2.24323 2.5487 2.54919 2.24274 2.92552 2.05099C3.35334 1.83301 3.91339 1.83301 5.0335 1.83301H11.9668C13.0869 1.83301 13.647 1.83301 14.0748 2.05099C14.4511 2.24274 14.7571 2.5487 14.9488 2.92503C15.1668 3.35285 15.1668 3.9129 15.1668 5.03301V11.9663C15.1668 13.0864 15.1668 13.6465 14.9488 14.0743C14.7571 14.4506 14.4511 14.7566 14.0748 14.9484C13.9993 14.9868 13.9196 15.0185 13.8335 15.0446M3.16685 15.0446C3.16706 14.5051 3.1703 14.2196 3.21807 13.9794C3.42849 12.9216 4.25541 12.0947 5.31326 11.8842C5.57085 11.833 5.88062 11.833 6.50016 11.833H10.5002C11.1197 11.833 11.4295 11.833 11.6871 11.8842C12.7449 12.0947 13.5718 12.9216 13.7823 13.9794C13.83 14.2196 13.8333 14.5051 13.8335 15.0446M11.1668 6.83301C11.1668 8.30577 9.97292 9.49967 8.50016 9.49967C7.0274 9.49967 5.8335 8.30577 5.8335 6.83301C5.8335 5.36025 7.0274 4.16634 8.50016 4.16634C9.97292 4.16634 11.1668 5.36025 11.1668 6.83301Z" stroke="#528BFF" stroke-width="1.5" stroke-linecap="round" stroke-linejoin="round"/>
</g>
</svg>
