<svg width="25" height="24" viewBox="0 0 25 24" fill="none" xmlns="http://www.w3.org/2000/svg">
<g id="reflect-01">
<path id="Icon" d="M12.5 3V6M12.5 10.5V13.5M12.5 18V21M3.78777 7.99059L8.17567 11.3659C8.45617 11.5817 8.59641 11.6895 8.64681 11.821C8.69098 11.9363 8.69098 12.0637 8.64681 12.179C8.59641 12.3105 8.45617 12.4183 8.17567 12.6341L3.78777 16.0094C3.37415 16.3276 3.16735 16.4867 2.99387 16.4845C2.84295 16.4827 2.70094 16.4128 2.60745 16.2943C2.5 16.1581 2.5 15.8971 2.5 15.3753V8.62469C2.5 8.10286 2.5 7.84195 2.60745 7.70574C2.70094 7.58724 2.84295 7.51732 2.99387 7.51547C3.16735 7.51334 3.37415 7.67243 3.78777 7.99059ZM21.2122 7.99059L16.8243 11.3659C16.5438 11.5817 16.4036 11.6895 16.3532 11.821C16.309 11.9363 16.309 12.0637 16.3532 12.179C16.4036 12.3105 16.5438 12.4183 16.8243 12.6341L21.2122 16.0094C21.6258 16.3276 21.8327 16.4867 22.0061 16.4845C22.1571 16.4827 22.2991 16.4128 22.3925 16.2943C22.5 16.1581 22.5 15.8971 22.5 15.3753V8.62469C22.5 8.10286 22.5 7.84195 22.3925 7.70574C22.2991 7.58724 22.1571 7.51732 22.0061 7.51547C21.8327 7.51334 21.6258 7.67243 21.2122 7.99059Z" stroke="black" stroke-width="2" stroke-linecap="round" stroke-linejoin="round"/>
</g>
</svg>
