<svg width="21" height="20" viewBox="0 0 21 20" fill="none" xmlns="http://www.w3.org/2000/svg">
<g id="retweet">
<g clip-path="url(#clip0_6759_12750)">
<g id="Group">
<path id="Vector" d="M4.42507 3.18652L8.06499 6.58663L6.94476 7.7857L5.24636 6.20062V13.1404C5.24636 14.0439 5.98222 14.783 6.88892 14.783H11.406V16.4256H6.88892C5.07471 16.4256 3.60379 14.9555 3.60379 13.1404V6.20062L1.90538 7.7857L0.785156 6.58663L4.42507 3.18652ZM14.2804 4.92764H9.7634V3.28508H14.2804C16.0947 3.28508 17.5656 4.75517 17.5656 6.5702V13.51L19.264 11.925L20.3842 13.124L16.7443 16.5241L13.1044 13.124L14.2246 11.925L15.923 13.51V6.5702C15.923 5.66679 15.1871 4.92764 14.2804 4.92764Z" fill="#6D6D6D"/>
</g>
</g>
<rect x="1.38639" y="0.657025" width="18.3967" height="18.3967" stroke="white" stroke-width="1.31405"/>
</g>
<defs>
<clipPath id="clip0_6759_12750">
<rect x="0.72937" width="19.7107" height="19.7107" fill="white"/>
</clipPath>
</defs>
</svg>
