<svg width="15" height="15" viewBox="0 0 15 15" fill="none" xmlns="http://www.w3.org/2000/svg">
<path id="Icon" d="M10.1671 5.49967V3.49967C10.1671 2.02692 8.97317 0.833008 7.50041 0.833008C6.02765 0.833008 4.83374 2.02692 4.83374 3.49967V5.49967M1.89508 6.40098L1.49508 10.6676C1.38135 11.8808 1.32448 12.4874 1.52578 12.9559C1.70261 13.3674 2.01249 13.7077 2.40575 13.9222C2.85343 14.1663 3.46265 14.1663 4.68111 14.1663H10.3197C11.5382 14.1663 12.1474 14.1663 12.5951 13.9222C12.9883 13.7077 13.2982 13.3674 13.475 12.9559C13.6763 12.4874 13.6195 11.8808 13.5057 10.6677L13.1057 6.40099C13.0097 5.37657 12.9617 4.86437 12.7313 4.47712C12.5284 4.13606 12.2286 3.86308 11.8701 3.6929C11.4631 3.49968 10.9486 3.49968 9.91971 3.49968L5.08111 3.49967C4.0522 3.49967 3.53775 3.49967 3.13069 3.6929C2.77219 3.86308 2.47241 4.13606 2.26952 4.47712C2.03914 4.86436 1.99112 5.37657 1.89508 6.40098Z" stroke="#85E13A" stroke-width="1.5" stroke-linecap="round" stroke-linejoin="round"/>
</svg>
