<svg width="14" height="14" viewBox="0 0 14 14" fill="none" xmlns="http://www.w3.org/2000/svg">
<g id="Group 5">
<path id="color 1" d="M13.8052 10.6582C13.8052 11.4914 13.4742 12.2906 12.885 12.8798C12.2958 13.469 11.4967 13.8 10.6634 13.8H3.33615C2.50289 13.8 1.70376 13.469 1.11455 12.8798C0.525348 12.2906 0.194336 11.4914 0.194336 10.6582V3.34182C0.194336 2.50856 0.525348 1.70942 1.11455 1.12022C1.70376 0.531013 2.50289 0.199997 3.33615 0.199997H10.6634C11.4967 0.199997 12.2958 0.531013 12.885 1.12022C13.4742 1.70942 13.8052 2.50856 13.8052 3.34182V10.6582ZM7.55615 9.21999C8.46161 8.20545 9.41979 7.62364 10.6034 8.74182C11.2568 9.36122 11.8465 9.95576 12.3725 10.5255C12.4768 10.6382 12.5307 10.6176 12.5343 10.4636C12.5816 8.53394 12.5895 5.72606 12.558 3.85818C12.5362 2.53091 12.158 1.47091 10.5889 1.45637C8.30888 1.43697 5.92525 1.43879 3.43797 1.46182C1.85979 1.47636 1.4507 2.45273 1.41252 3.87455C1.37737 5.26121 1.39373 7.48363 1.46161 8.72363C1.46888 8.85333 1.51555 8.86909 1.60161 8.77091C2.0707 8.22545 2.56525 7.72 3.13615 7.26182C3.76525 6.75818 4.54888 6.80545 5.16525 7.31454C5.82464 7.86 6.47979 8.49515 7.1307 9.21999C7.15747 9.24992 7.19026 9.27386 7.22692 9.29025C7.26357 9.30664 7.30327 9.31511 7.34343 9.31511C7.38358 9.31511 7.42328 9.30664 7.45994 9.29025C7.49659 9.27386 7.52938 9.24992 7.55615 9.21999Z" fill="#5F6369"/>
<path id="color 1_2" d="M10.4888 4.53273C10.4888 4.80228 10.3817 5.06079 10.1911 5.2514C10.0005 5.442 9.74198 5.54909 9.47242 5.54909C9.20286 5.54909 8.94435 5.442 8.75374 5.2514C8.56314 5.06079 8.45605 4.80228 8.45605 4.53273C8.45605 4.26317 8.56314 4.00465 8.75374 3.81404C8.94435 3.62344 9.20286 3.51636 9.47242 3.51636C9.74198 3.51636 10.0005 3.62344 10.1911 3.81404C10.3817 4.00465 10.4888 4.26317 10.4888 4.53273Z" fill="#5F6369"/>
</g>
</svg>
