<svg width="24" height="24" viewBox="0 0 24 24" fill="none" xmlns="http://www.w3.org/2000/svg">
<g id="social media icon/X">
<g id="Vector">
<mask id="path-1-inside-1_8797_16211" fill="white">
<path d="M13.7142 10.6226L20.4163 3H18.8287L13.0068 9.61729L8.36042 3H3L10.0278 13.0075L3 21H4.58761L10.7316 14.0104L15.6396 21H21.0001M5.16061 4.17142H7.59962L18.8275 19.8861H16.3878"/>
</mask>
<path d="M13.7142 10.6226L20.4163 3H18.8287L13.0068 9.61729L8.36042 3H3L10.0278 13.0075L3 21H4.58761L10.7316 14.0104L15.6396 21H21.0001M5.16061 4.17142H7.59962L18.8275 19.8861H16.3878" fill="black"/>
<path d="M20.4163 3L21.1673 3.6603L22.627 2H20.4163V3ZM18.8287 3V2H18.3765L18.0779 2.33946L18.8287 3ZM13.0068 9.61729L12.1884 10.1919L12.9185 11.2316L13.7576 10.2778L13.0068 9.61729ZM8.36042 3L9.17882 2.42535L8.88015 2H8.36042V3ZM3 3V2H1.07579L2.18164 3.5747L3 3ZM10.0278 13.0075L10.7788 13.6678L11.2985 13.0768L10.8462 12.4328L10.0278 13.0075ZM3 21L2.24902 20.3397L0.7891 22H3V21ZM4.58761 21V22H5.04L5.33868 21.6602L4.58761 21ZM10.7316 14.0104L11.55 13.4358L10.8196 12.3956L9.98055 13.3502L10.7316 14.0104ZM15.6396 21L14.8213 21.5747L15.1199 22H15.6396V21ZM7.59962 4.17142L8.41327 3.59008L8.11415 3.17142H7.59962V4.17142ZM18.8275 19.8861V20.8861H20.7709L19.6411 19.3048L18.8275 19.8861ZM14.4652 11.2829L21.1673 3.6603L19.6653 2.3397L12.9632 9.96235L14.4652 11.2829ZM20.4163 2H18.8287V4H20.4163V2ZM18.0779 2.33946L12.256 8.95675L13.7576 10.2778L19.5794 3.66054L18.0779 2.33946ZM13.8252 9.04264L9.17882 2.42535L7.54202 3.57465L12.1884 10.1919L13.8252 9.04264ZM8.36042 2H3V4H8.36042V2ZM2.18164 3.5747L9.20946 13.5822L10.8462 12.4328L3.81836 2.4253L2.18164 3.5747ZM9.27685 12.3471L2.24902 20.3397L3.75098 21.6603L10.7788 13.6678L9.27685 12.3471ZM3 22H4.58761V20H3V22ZM5.33868 21.6602L11.4827 14.6706L9.98055 13.3502L3.83653 20.3398L5.33868 21.6602ZM9.91324 14.5851L14.8213 21.5747L16.458 20.4253L11.55 13.4358L9.91324 14.5851ZM15.6396 22H21.0001V20H15.6396V22ZM5.16061 5.17142H7.59962V3.17142H5.16061V5.17142ZM6.78596 4.75277L18.0138 20.4675L19.6411 19.3048L8.41327 3.59008L6.78596 4.75277ZM18.8275 18.8861H16.3878V20.8861H18.8275V18.8861Z" fill="black" mask="url(#path-1-inside-1_8797_16211)"/>
</g>
</g>
</svg>
