<svg width="8" height="7" viewBox="0 0 8 7" fill="none" xmlns="http://www.w3.org/2000/svg">
<path id="Icon" d="M0.79681 0.967141L3.53844 5.70268C3.68996 5.9644 3.76572 6.09526 3.86457 6.13922C3.95079 6.17755 4.04921 6.17755 4.13543 6.13922C4.23428 6.09526 4.31004 5.9644 4.46156 5.70268L7.20319 0.967142C7.35526 0.704478 7.43129 0.573146 7.42005 0.465357C7.41025 0.371342 7.36099 0.285908 7.28454 0.23032C7.19689 0.166589 7.04513 0.166589 6.74163 0.166589L1.25837 0.16659C0.954863 0.16659 0.803109 0.16659 0.715456 0.230321C0.639004 0.285909 0.589747 0.371342 0.579945 0.465358C0.568708 0.573147 0.644742 0.704478 0.79681 0.967141Z" fill="#344054"/>
</svg>
