<svg width="17" height="17" viewBox="0 0 17 17" fill="none" xmlns="http://www.w3.org/2000/svg">
<g id="leading icon">
<path id="Icon" fill-rule="evenodd" clip-rule="evenodd" d="M11.7139 1.16699H5.28389C3.00904 1.16699 1.1665 3.01118 1.1665 5.28574V11.7149C1.1665 13.9895 3.00904 15.8337 5.28389 15.8337H11.7139C13.9887 15.8337 15.8332 13.9895 15.8332 11.7149V5.28574C15.8332 3.01118 13.9887 1.16699 11.7139 1.16699ZM10.5019 12.268L7.32088 12.6191C6.69034 12.6889 6.22215 12.049 6.47701 11.4695L7.09245 10.067C7.28312 9.63289 7.05469 9.13456 6.69034 8.83066C6.1995 8.42293 5.85969 7.83023 5.78417 7.14503C5.62937 5.73688 6.64314 4.47218 8.04959 4.3174C9.45603 4.16262 10.7228 5.17626 10.8776 6.58252C10.955 7.28282 10.7417 7.94726 10.3358 8.45691C10.0375 8.83443 9.91478 9.38184 10.1998 9.7688L11.0758 10.9618C11.4515 11.4733 11.1324 12.2 10.5019 12.268Z" fill="#FD6F8E"/>
</g>
</svg>
