<svg width="28" height="28" viewBox="0 0 28 28" fill="none" xmlns="http://www.w3.org/2000/svg">
<g id="user-02">
<g id="Icon">
<path d="M13.9999 17.5C10.3015 17.5 7.0125 19.2857 4.91857 22.057C4.4679 22.6534 4.24256 22.9516 4.24993 23.3547C4.25563 23.666 4.45116 24.0589 4.69617 24.2511C5.01329 24.5 5.45275 24.5 6.33168 24.5H21.6681C22.5471 24.5 22.9865 24.5 23.3036 24.2511C23.5487 24.0589 23.7442 23.666 23.7499 23.3547C23.7573 22.9516 23.5319 22.6534 23.0812 22.057C20.9873 19.2857 17.6983 17.5 13.9999 17.5Z" stroke="#FDB022" stroke-width="2" stroke-linecap="round" stroke-linejoin="round"/>
<path d="M13.9999 14C16.8994 14 19.2499 11.6495 19.2499 8.75C19.2499 5.8505 16.8994 3.5 13.9999 3.5C11.1004 3.5 8.74991 5.8505 8.74991 8.75C8.74991 11.6495 11.1004 14 13.9999 14Z" stroke="#FDB022" stroke-width="2" stroke-linecap="round" stroke-linejoin="round"/>
</g>
</g>
</svg>
