<svg width="23" height="22" viewBox="0 0 23 22" fill="none" xmlns="http://www.w3.org/2000/svg">
<path id="Icon" d="M3.22219 20.8174C3.82477 21 4.63866 21 6.02217 21H16.4222C17.8057 21 18.6196 21 19.2221 20.8174M3.22219 20.8174C3.09299 20.7783 2.9735 20.7308 2.8602 20.673C2.29571 20.3854 1.83677 19.9265 1.54915 19.362C1.22217 18.7202 1.22217 17.8802 1.22217 16.2V5.8C1.22217 4.11984 1.22217 3.27976 1.54915 2.63803C1.83677 2.07354 2.29571 1.6146 2.8602 1.32698C3.50193 1 4.34201 1 6.02217 1H16.4222C18.1023 1 18.9424 1 19.5841 1.32698C20.1486 1.6146 20.6076 2.07354 20.8952 2.63803C21.2222 3.27976 21.2222 4.11984 21.2222 5.8V16.2C21.2222 17.8802 21.2222 18.7202 20.8952 19.362C20.6076 19.9265 20.1486 20.3854 19.5841 20.673C19.4708 20.7308 19.3513 20.7783 19.2221 20.8174M3.22219 20.8174C3.22252 20.0081 3.22737 19.5799 3.29903 19.2196C3.61465 17.6329 4.85504 16.3925 6.44181 16.0769C6.8282 16 7.29286 16 8.22217 16H14.2222C15.1515 16 15.6161 16 16.0025 16.0769C17.5893 16.3925 18.8297 17.6329 19.1453 19.2196C19.217 19.5799 19.2218 20.0081 19.2221 20.8174M15.2222 8.5C15.2222 10.7091 13.4313 12.5 11.2222 12.5C9.01303 12.5 7.22217 10.7091 7.22217 8.5C7.22217 6.29086 9.01303 4.5 11.2222 4.5C13.4313 4.5 15.2222 6.29086 15.2222 8.5Z" stroke="black" stroke-width="2" stroke-linecap="round" stroke-linejoin="round"/>
</svg>
