<svg width="12" height="13" viewBox="0 0 12 13" fill="none" xmlns="http://www.w3.org/2000/svg">
<g id="Verified tick" clip-path="url(#clip0_3941_76198)">
<path id="Vector" d="M9.2666 2.62518C9.38057 2.90082 9.59933 3.11991 9.8748 3.23429L10.8407 3.63439C11.1164 3.74857 11.3354 3.96758 11.4496 4.24324C11.5637 4.51889 11.5637 4.82862 11.4496 5.10427L11.0497 6.0695C10.9355 6.34527 10.9354 6.65531 11.0501 6.93096L11.4492 7.8959C11.5058 8.03242 11.535 8.17877 11.535 8.32657C11.535 8.47436 11.5059 8.62072 11.4494 8.75727C11.3928 8.89381 11.3099 9.01788 11.2054 9.12237C11.1008 9.22686 10.9767 9.30973 10.8402 9.36625L9.87496 9.76606C9.59933 9.88003 9.38023 10.0988 9.26585 10.3743L8.86575 11.3402C8.75157 11.6158 8.53256 11.8348 8.25691 11.949C7.98125 12.0632 7.67152 12.0632 7.39587 11.949L6.43064 11.5492C6.15498 11.4353 5.84537 11.4355 5.56987 11.5499L4.60396 11.9494C4.32845 12.0633 4.019 12.0632 3.74357 11.9491C3.46813 11.835 3.24925 11.6163 3.13499 11.3409L2.73478 10.3747C2.6208 10.0991 2.40204 9.87998 2.12658 9.76559L1.16066 9.3655C0.885124 9.25137 0.666181 9.0325 0.551958 8.757C0.437735 8.4815 0.43758 8.17192 0.551528 7.89631L0.951336 6.93109C1.06524 6.65542 1.065 6.34581 0.950689 6.07032L0.551455 5.10371C0.494851 4.96718 0.465705 4.82083 0.465681 4.67303C0.465657 4.52524 0.494757 4.37888 0.551317 4.24234C0.607876 4.10579 0.690788 3.98172 0.795314 3.87723C0.899839 3.77274 1.02393 3.68987 1.1605 3.63335L2.12572 3.23354C2.40111 3.11967 2.62008 2.90119 2.73455 2.62604L3.13464 1.66012C3.24882 1.38447 3.46783 1.16546 3.74349 1.05128C4.01914 0.937096 4.32887 0.937096 4.60452 1.05128L5.56975 1.45108C5.84541 1.56498 6.15503 1.56475 6.43052 1.45044L7.39684 1.0519C7.67246 0.93778 7.98212 0.937803 8.25772 1.05196C8.53332 1.16612 8.7523 1.38506 8.8665 1.66065L9.26672 2.62685L9.2666 2.62518Z" fill="#004EEB"/>
<path id="Vector_2" fill-rule="evenodd" clip-rule="evenodd" d="M8.34995 4.92718C8.43011 4.80127 8.45697 4.64867 8.42462 4.50296C8.39227 4.35724 8.30336 4.23035 8.17745 4.15018C8.05153 4.07002 7.89894 4.04316 7.75322 4.07551C7.6075 4.10786 7.48061 4.19677 7.40045 4.32268L5.1977 7.78393L4.1897 6.52393C4.09651 6.40737 3.96083 6.3326 3.81251 6.31608C3.66419 6.29955 3.51538 6.34262 3.39882 6.43581C3.28226 6.529 3.20749 6.66468 3.19096 6.813C3.17444 6.96131 3.21751 7.11012 3.3107 7.22668L4.8107 9.10168C4.8666 9.17165 4.9384 9.22726 5.02012 9.26388C5.10185 9.3005 5.19114 9.31708 5.28056 9.31224C5.36999 9.3074 5.45696 9.28128 5.53426 9.23604C5.61155 9.19081 5.67692 9.12778 5.72495 9.05218L8.34995 4.92718Z" fill="white"/>
</g>
<defs>
<clipPath id="clip0_3941_76198">
<rect width="12" height="12" fill="white" transform="translate(0 0.5)"/>
</clipPath>
</defs>
</svg>
