<svg width="17" height="17" viewBox="0 0 17 17" fill="none" xmlns="http://www.w3.org/2000/svg">
<g id="leading icon">
<path id="Icon" d="M8.49984 12.4997C11.4454 12.4997 13.8332 10.1119 13.8332 7.16634C13.8332 4.22082 11.4454 1.83301 8.49984 1.83301C5.55432 1.83301 3.1665 4.22082 3.1665 7.16634C3.1665 10.1119 5.55432 12.4997 8.49984 12.4997ZM8.49984 12.4997V15.1663M8.49984 15.1663H5.1665M8.49984 15.1663H11.8332M10.4998 7.16634C10.4998 8.27091 9.60441 9.16634 8.49984 9.16634C7.39527 9.16634 6.49984 8.27091 6.49984 7.16634C6.49984 6.06177 7.39527 5.16634 8.49984 5.16634C9.60441 5.16634 10.4998 6.06177 10.4998 7.16634Z" stroke="#FF692E" stroke-width="1.5" stroke-linecap="round" stroke-linejoin="round"/>
</g>
</svg>
