<svg width="16" height="17" viewBox="0 0 16 17" fill="none" xmlns="http://www.w3.org/2000/svg">
<g id="image-gallery">
<path id="Icon" d="M13.9999 5.17969V9.91302C13.9999 11.4065 13.9999 12.1532 13.7093 12.7237C13.4536 13.2254 13.0457 13.6334 12.5439 13.889C11.9735 14.1797 11.2267 14.1797 9.73326 14.1797H4.99992M2.70664 11.473L5.81583 8.36378C6.03584 8.14377 6.14584 8.03377 6.27269 7.99255C6.38427 7.9563 6.50446 7.9563 6.61604 7.99255C6.74289 8.03377 6.8529 8.14378 7.07291 8.36378L10.7132 12.0041M7.55548 8.84635L9.14916 7.25267C9.36917 7.03266 9.47918 6.92266 9.60603 6.88144C9.7176 6.84519 9.8378 6.84519 9.94938 6.88144C10.0762 6.92266 10.1862 7.03266 10.4062 7.25267L11.9999 8.84635M5.88881 4.95747C5.88881 5.57112 5.39135 6.06858 4.7777 6.06858C4.16405 6.06858 3.66659 5.57112 3.66659 4.95747C3.66659 4.34382 4.16405 3.84635 4.7777 3.84635C5.39135 3.84635 5.88881 4.34382 5.88881 4.95747ZM4.66659 12.1797H9.33326C10.2667 12.1797 10.7334 12.1797 11.0899 11.998C11.4035 11.8382 11.6585 11.5833 11.8183 11.2697C11.9999 10.9132 11.9999 10.4464 11.9999 9.51302V4.84635C11.9999 3.91293 11.9999 3.44622 11.8183 3.0897C11.6585 2.7761 11.4035 2.52113 11.0899 2.36134C10.7334 2.17969 10.2667 2.17969 9.33326 2.17969H4.66659C3.73317 2.17969 3.26646 2.17969 2.90994 2.36134C2.59634 2.52113 2.34137 2.7761 2.18158 3.0897C1.99992 3.44622 1.99992 3.91293 1.99992 4.84635V9.51302C1.99992 10.4464 1.99992 10.9132 2.18158 11.2697C2.34137 11.5833 2.59634 11.8382 2.90994 11.998C3.26646 12.1797 3.73317 12.1797 4.66659 12.1797Z" stroke="#667085" stroke-width="1.25" stroke-linecap="round" stroke-linejoin="round"/>
</g>
</svg>
