<svg width="16" height="17" viewBox="0 0 16 17" fill="none" xmlns="http://www.w3.org/2000/svg">
<g id="image-03">
<path id="Icon" d="M2.84815 13.9983L7.24584 9.6006C7.50985 9.33659 7.64186 9.20458 7.79408 9.15513C7.92797 9.11162 8.0722 9.11162 8.2061 9.15513C8.35832 9.20458 8.49033 9.33659 8.75433 9.6006L13.1227 13.969M9.33342 10.1797L11.2458 8.26727C11.5099 8.00326 11.6419 7.87125 11.7941 7.82179C11.928 7.77829 12.0722 7.77829 12.2061 7.82179C12.3583 7.87125 12.4903 8.00326 12.7543 8.26727L14.6668 10.1797M6.66675 6.17969C6.66675 6.91607 6.0698 7.51302 5.33342 7.51302C4.59704 7.51302 4.00009 6.91607 4.00009 6.17969C4.00009 5.44331 4.59704 4.84635 5.33342 4.84635C6.0698 4.84635 6.66675 5.44331 6.66675 6.17969ZM4.53342 14.1797H11.4668C12.5869 14.1797 13.1469 14.1797 13.5747 13.9617C13.9511 13.77 14.257 13.464 14.4488 13.0877C14.6668 12.6598 14.6668 12.0998 14.6668 10.9797V5.37969C14.6668 4.25958 14.6668 3.69953 14.4488 3.27171C14.257 2.89538 13.9511 2.58942 13.5747 2.39767C13.1469 2.17969 12.5869 2.17969 11.4668 2.17969H4.53342C3.41331 2.17969 2.85326 2.17969 2.42544 2.39767C2.04911 2.58942 1.74315 2.89538 1.55141 3.27171C1.33342 3.69953 1.33342 4.25958 1.33342 5.37969V10.9797C1.33342 12.0998 1.33342 12.6598 1.55141 13.0877C1.74315 13.464 2.04911 13.77 2.42544 13.9617C2.85326 14.1797 3.41331 14.1797 4.53342 14.1797Z" stroke="#667085" stroke-width="1.25" stroke-linecap="round" stroke-linejoin="round"/>
</g>
</svg>
