<svg width="16" height="17" viewBox="0 0 16 17" fill="none" xmlns="http://www.w3.org/2000/svg">
<g id="play-square">
<g id="Icon">
<path d="M6.33325 6.15658C6.33325 5.83839 6.33325 5.67929 6.39974 5.59047C6.45769 5.51307 6.54639 5.46464 6.64284 5.45776C6.75351 5.44985 6.88733 5.53588 7.15499 5.70795L10.302 7.73106C10.5343 7.88037 10.6504 7.95502 10.6905 8.04995C10.7256 8.13289 10.7256 8.22648 10.6905 8.30943C10.6504 8.40435 10.5343 8.47901 10.302 8.62832L7.15499 10.6514C6.88733 10.8235 6.75351 10.9095 6.64284 10.9016C6.54639 10.8947 6.45769 10.8463 6.39974 10.7689C6.33325 10.6801 6.33325 10.521 6.33325 10.2028V6.15658Z" stroke="#667085" stroke-width="1.25" stroke-linecap="round" stroke-linejoin="round"/>
<path d="M1.99992 5.37969C1.99992 4.25958 1.99992 3.69953 2.2179 3.27171C2.40965 2.89538 2.71561 2.58942 3.09194 2.39767C3.51976 2.17969 4.07981 2.17969 5.19992 2.17969H10.7999C11.92 2.17969 12.4801 2.17969 12.9079 2.39767C13.2842 2.58942 13.5902 2.89538 13.7819 3.27171C13.9999 3.69953 13.9999 4.25958 13.9999 5.37969V10.9797C13.9999 12.0998 13.9999 12.6598 13.7819 13.0877C13.5902 13.464 13.2842 13.77 12.9079 13.9617C12.4801 14.1797 11.92 14.1797 10.7999 14.1797H5.19992C4.07981 14.1797 3.51976 14.1797 3.09194 13.9617C2.71561 13.77 2.40965 13.464 2.2179 13.0877C1.99992 12.6598 1.99992 12.0998 1.99992 10.9797V5.37969Z" stroke="#667085" stroke-width="1.25" stroke-linecap="round" stroke-linejoin="round"/>
</g>
</g>
</svg>
