<svg width="32" height="32" viewBox="0 0 32 32" fill="none" xmlns="http://www.w3.org/2000/svg">
<path d="M12.0887 5.02737C12.0887 3.82033 13.3954 3.06592 14.4407 3.66944C14.9259 3.94954 15.2247 4.46718 15.2247 5.02737C15.2247 6.23442 13.9181 6.98882 12.8727 6.3853C12.3876 6.1052 12.0887 5.58756 12.0887 5.02737ZM9.73674 5.81137C10.9438 5.81132 11.6982 7.11795 11.0947 8.16331C10.8146 8.64849 10.297 8.94737 9.73674 8.94737C8.52969 8.94737 7.77529 7.64071 8.37881 6.59537C8.65891 6.11023 9.17655 5.81137 9.73674 5.81137ZM8.16874 9.73137C9.03603 9.73137 9.73674 10.4321 9.73674 11.2994H10.1287C10.7804 11.2994 11.3047 11.8237 11.3047 12.4754V13.2594C11.3047 13.3427 11.2949 13.426 11.2802 13.5093C14.0634 14.7098 16.0087 17.4832 16.0087 20.7074C16.0087 25.039 12.5003 28.5474 8.16874 28.5474C3.83713 28.5474 0.328735 25.039 0.328735 20.7074C0.328735 17.4832 2.27404 14.7098 5.05724 13.5093C5.03764 13.4309 5.03274 13.3476 5.03274 13.2594V12.4754C5.03274 11.8237 5.55703 11.2994 6.20873 11.2994H6.60074C6.60074 10.4321 7.30143 9.73137 8.16874 9.73137ZM8.16874 25.4114C11.7899 25.4112 14.0531 21.4911 12.2424 18.3552C11.4021 16.8999 9.84924 16.0034 8.16874 16.0034C4.5476 16.0034 2.28438 19.9234 4.09495 23.0594C4.93528 24.5149 6.48808 25.4114 8.16874 25.4114ZM17.5767 20.7074C17.5767 19.4383 17.3268 18.2329 16.8711 17.1255C17.6992 15.5134 19.0663 14.2296 20.7372 13.5044C20.7176 13.426 20.7127 13.3427 20.7127 13.2545V12.4754C20.7127 11.8237 21.237 11.2994 21.8887 11.2994H22.2807C22.2807 10.4321 22.9814 9.73137 23.8487 9.73137C24.716 9.73137 25.4167 10.4321 25.4167 11.2994H25.8087C26.4604 11.2994 26.9847 11.8237 26.9847 12.4754V13.2594C26.9847 13.3427 26.9749 13.426 26.9602 13.5093C29.7434 14.7098 31.6887 17.4832 31.6887 20.7074C31.6887 25.039 28.1803 28.5474 23.8487 28.5474C20.8107 28.5474 18.1745 26.8177 16.8711 24.2893C17.3268 23.1868 17.5767 21.9765 17.5767 20.7074ZM28.5527 20.7074C28.5527 17.0862 24.6327 14.823 21.4967 16.6336C20.0413 17.4739 19.1447 19.0268 19.1447 20.7074C19.1447 24.3285 23.0647 26.5917 26.2007 24.7812C27.6562 23.9409 28.5527 22.3879 28.5527 20.7074ZM18.3607 3.45937C19.5678 3.45937 20.3222 4.76604 19.7187 5.81137C19.4386 6.29651 18.9209 6.59537 18.3607 6.59537C17.1537 6.59537 16.3993 5.28871 17.0028 4.24337C17.2829 3.75823 17.8005 3.45937 18.3607 3.45937ZM22.2807 5.81137C23.4878 5.81132 24.2422 7.11795 23.6387 8.16331C23.3586 8.64849 22.841 8.94737 22.2807 8.94737C21.0737 8.94737 20.3193 7.64071 20.9228 6.59537C21.2029 6.11023 21.7205 5.81137 22.2807 5.81137Z" fill="#344054"/>
</svg>
