<svg width="32" height="32" viewBox="0 0 32 32" fill="none" xmlns="http://www.w3.org/2000/svg">
<rect width="32" height="32" rx="16" fill="#E9E5D3" fill-opacity="0.05"/>
<rect x="0.25" y="0.25" width="31.5" height="31.5" rx="15.75" stroke="#E9E5D3" stroke-opacity="0.25" stroke-width="0.5"/>
<path d="M22 16V18.8C22 19.9201 22 20.4802 21.782 20.908C21.5903 21.2843 21.2843 21.5903 20.908 21.782C20.4802 22 19.9201 22 18.8 22H13.2C12.0799 22 11.5198 22 11.092 21.782C10.7157 21.5903 10.4097 21.2843 10.218 20.908C10 20.4802 10 19.9201 10 18.8V16M18.6667 12.6667L16 10M16 10L13.3333 12.6667M16 10V18" stroke="#E9E5D3" stroke-opacity="0.9" stroke-width="1.25" stroke-linecap="round" stroke-linejoin="round"/>
</svg>
