<svg width="32" height="32" viewBox="0 0 32 32" fill="none" xmlns="http://www.w3.org/2000/svg">
<rect width="32" height="32" rx="16" fill="#E9E5D3" fill-opacity="0.05"/>
<rect x="0.25" y="0.25" width="31.5" height="31.5" rx="15.75" stroke="#E9E5D3" stroke-opacity="0.25" stroke-width="0.5"/>
<path fill-rule="evenodd" clip-rule="evenodd" d="M15.9961 11.4239C14.6632 9.8656 12.4405 9.44643 10.7704 10.8733C9.10041 12.3003 8.8653 14.686 10.1768 16.3736C11.2672 17.7767 14.5672 20.7361 15.6487 21.6939C15.7697 21.801 15.8302 21.8546 15.9008 21.8757C15.9624 21.8941 16.0298 21.8941 16.0914 21.8757C16.1619 21.8546 16.2225 21.801 16.3435 21.6939C17.425 20.7361 20.725 17.7767 21.8154 16.3736C23.1269 14.686 22.9205 12.2852 21.2217 10.8733C19.523 9.46144 17.329 9.8656 15.9961 11.4239Z" stroke="#E9E5D3" stroke-opacity="0.9" stroke-width="1.25" stroke-linecap="round" stroke-linejoin="round"/>
</svg>
