<svg width="19" height="19" viewBox="0 0 19 19" fill="none" xmlns="http://www.w3.org/2000/svg">
<g id="line-chart-up-01">
<path id="Icon" d="M16.099 16.4696H3.93836C3.52308 16.4696 3.31544 16.4696 3.15682 16.3888C3.0173 16.3177 2.90386 16.2043 2.83277 16.0647C2.75195 15.9061 2.75195 15.6985 2.75195 15.2832V3.12256M15.3575 6.83007L12.4517 9.93153C12.3415 10.0491 12.2865 10.1078 12.22 10.1382C12.1614 10.165 12.0968 10.1761 12.0326 10.1703C11.9598 10.1637 11.8884 10.1266 11.7454 10.0524L9.33007 8.79827C9.18712 8.72404 9.11564 8.68693 9.04289 8.68037C8.97868 8.67459 8.91407 8.68565 8.85544 8.71246C8.78901 8.74283 8.73395 8.8016 8.62382 8.91914L5.71797 12.0206" stroke="#D0D5DD" stroke-width="1.48301" stroke-linecap="round" stroke-linejoin="round"/>
</g>
</svg>
