<svg width="37" height="36" viewBox="0 0 37 36" fill="none" xmlns="http://www.w3.org/2000/svg">
<g id="play-square">
<g id="Icon">
<path d="M14.75 13.448C14.75 12.7321 14.75 12.3741 14.8996 12.1743C15.03 12.0001 15.2296 11.8912 15.4466 11.8757C15.6956 11.8579 15.9967 12.0514 16.5989 12.4386L23.6798 16.9906C24.2024 17.3265 24.4637 17.4945 24.5539 17.7081C24.6328 17.8947 24.6328 18.1053 24.5539 18.2919C24.4637 18.5055 24.2024 18.6735 23.6798 19.0094L16.5989 23.5614C15.9967 23.9486 15.6956 24.1421 15.4466 24.1243C15.2296 24.1088 15.03 23.9999 14.8996 23.8257C14.75 23.6259 14.75 23.2679 14.75 22.552V13.448Z" stroke="black" stroke-width="2" stroke-linecap="round" stroke-linejoin="round"/>
<path d="M5 11.7C5 9.17976 5 7.91965 5.49047 6.95704C5.9219 6.11031 6.61031 5.4219 7.45704 4.99047C8.41965 4.5 9.67976 4.5 12.2 4.5H24.8C27.3202 4.5 28.5804 4.5 29.543 4.99047C30.3897 5.4219 31.0781 6.11031 31.5095 6.95704C32 7.91965 32 9.17976 32 11.7V24.3C32 26.8202 32 28.0804 31.5095 29.043C31.0781 29.8897 30.3897 30.5781 29.543 31.0095C28.5804 31.5 27.3202 31.5 24.8 31.5H12.2C9.67976 31.5 8.41965 31.5 7.45704 31.0095C6.61031 30.5781 5.9219 29.8897 5.49047 29.043C5 28.0804 5 26.8202 5 24.3V11.7Z" stroke="black" stroke-width="2" stroke-linecap="round" stroke-linejoin="round"/>
</g>
</g>
</svg>
